<svg width="152" height="80" viewBox="0 0 152 80" fill="none" xmlns="http://www.w3.org/2000/svg">
<path d="M96.9421 54.2428V22.1023H90.9326V32.6419C90.373 32.315 87.9156 31.8738 85.9864 31.9273C79.5607 32.1058 74.786 37.1783 74.9169 43.3746C75.0878 51.4783 79.8651 54.8774 87.356 55.352C91.193 55.5956 95.7972 54.4269 96.9421 54.2428ZM90.9554 49.9C90.5624 49.9883 87.9562 50.264 86.9839 50.106C83.0249 49.4614 81.1194 47.4354 81.0781 43.9117C81.0342 40.1566 82.5969 37.4312 87.2344 37.2381C88.021 37.2054 90.6146 37.6655 90.9323 37.9617L90.9554 49.9Z" fill="#818AAD"/>
<path d="M146.362 54.2428V22.1023H140.352V32.6419C139.793 32.315 137.335 31.8738 135.406 31.9273C128.981 32.1058 124.206 37.1783 124.337 43.3746C124.508 51.4783 129.285 54.8774 136.776 55.352C140.613 55.5956 145.217 54.4269 146.362 54.2428ZM140.376 49.9C139.983 49.9883 137.376 50.264 136.404 50.106C132.445 49.4614 130.54 47.4354 130.499 43.9117C130.455 40.1566 132.017 37.4312 136.655 37.2381C137.441 37.2054 140.034 37.6655 140.353 37.9617L140.376 49.9Z" fill="#818AAD"/>
<path d="M100.316 33.8136V63.9944H106.398L106.375 37.7462C106.768 37.6579 109.356 37.3105 110.338 37.3684C114.348 37.6037 116.172 39.842 116.265 43.3683C116.325 45.6218 115.575 47.4919 114.104 48.658C112.995 49.5365 111.453 49.9929 109.668 50.0432L109.679 55.3219C112.481 55.4032 115.314 54.8126 117.561 53.3646C120.473 51.4869 122.541 47.325 122.427 43.3677C122.221 36.2126 118.191 32.1392 109.99 31.9657C106.146 31.8857 101.482 33.2299 100.316 33.8136Z" fill="#818AAD"/>
<path d="M31.2261 8.63261L6.94437 21.8779L33.8953 37.5525C34.1403 37.6949 34.4182 37.9802 34.4182 38.2876L34.4159 61.379C34.4159 61.702 34.1303 61.9227 34.0979 61.9406L32.4913 62.8366C32.2417 62.9761 31.8759 62.9897 31.5116 62.7877L30.0788 61.9945C29.8709 61.8788 29.6908 61.5995 29.6908 61.2991V40.8673C29.6908 40.507 29.2991 40.3368 29.037 40.1844L5.6375 26.5637V53.8842C5.6375 54.4883 6.21789 55.1791 6.70871 55.4683L31.0191 69.8086C31.7985 70.2677 32.2639 70.192 33.3414 69.653L57.3649 55.4736C57.9248 55.1424 58.4712 54.5254 58.4715 53.8428V26.5587L42.3553 35.9776C42.1531 36.0959 41.7865 36.1402 41.576 36.0182L40.1171 35.1751C39.8278 35.0078 39.5641 34.6727 39.5575 34.3213L39.5261 32.6168C39.5211 32.361 39.6923 32.0265 39.9164 31.896L57.1574 21.8597L32.879 8.63625C32.687 8.53147 32.3657 8.4776 32.0444 8.4776C31.7327 8.4776 31.4207 8.5285 31.2261 8.63261Z" fill="#818AAD"/>
</svg>
