<svg width="152" height="80" viewBox="0 0 152 80" fill="none" xmlns="http://www.w3.org/2000/svg">
<path d="M87.7422 54.032C87.1735 54.032 86.6947 53.9627 86.307 53.7817C85.5111 53.4184 85.1119 52.5083 85.1119 51.0628C85.1119 50.7765 85.1234 50.4004 85.1581 49.9331C85.1915 49.4671 85.203 49.0563 85.203 48.7046C85.203 48.2142 85.203 47.7482 85.1915 47.3271C85.1799 46.8945 85.1799 46.6442 85.1799 46.5749C85.1799 46.1538 85.1799 46.028 85.2261 45.7212C85.2942 45.3117 85.4315 45.1859 85.8295 45.1409C86.2056 45.1409 86.3982 45.494 86.3982 46.2116C86.3982 46.3938 86.3866 46.5749 86.3764 46.7584C86.3301 47.7713 86.307 49.0576 86.307 50.5942C86.307 50.765 86.2852 51.2091 86.2852 51.3914C86.2852 52.4954 86.6382 52.8369 87.3212 52.8369C87.4123 52.8369 87.6511 52.8266 87.7422 52.8266C88.3687 52.8266 88.5844 53.1103 88.5844 53.43C88.5831 53.8279 88.3007 54.032 87.7422 54.032Z" fill="#818AAD"/>
<path d="M92.5793 48.6135C93.1378 48.0332 93.8425 47.738 94.709 47.738C95.5396 47.738 96.2226 48.0666 96.7348 48.738C97.2585 49.4094 97.5204 50.1719 97.5204 51.0372C97.5204 51.9371 97.2354 52.6765 96.6783 53.2567C96.1199 53.8383 95.4138 54.1232 94.5601 54.1232C93.7296 54.1232 93.0466 53.792 92.5344 53.1335C92.0209 52.4724 91.759 51.7098 91.759 50.833C91.759 49.9331 92.0325 49.1937 92.5793 48.6135ZM93.3534 49.4787C93.0466 49.8792 92.899 50.3439 92.899 50.8921C92.899 51.4492 93.0466 51.9383 93.3534 52.3607C93.6615 52.7702 94.0826 52.9756 94.6166 52.9756C95.175 52.9756 95.6077 52.783 95.9042 52.3838C96.211 51.9845 96.3586 51.507 96.3586 50.9717C96.3586 50.4145 96.211 49.9242 95.9042 49.5134C95.5974 49.0936 95.1866 48.8882 94.6513 48.8882C94.0941 48.8869 93.6628 49.0795 93.3534 49.4787Z" fill="#818AAD"/>
<path d="M104.307 53.6225C104.307 53.4967 104.296 53.2015 104.296 53.0641C103.761 53.4852 103.169 53.6919 102.519 53.6919C101.712 53.6919 101.074 53.4056 100.653 52.8369C100.22 52.2554 100.015 51.5724 100.015 50.7868C100.003 49.6584 100.562 47.8034 102.736 47.8034C103.316 47.8034 103.693 47.9626 104.296 48.3387C104.352 48.0537 104.637 47.8368 104.911 47.8368C105.297 47.8368 105.491 48.1795 105.491 48.8625C105.491 48.9896 105.48 49.1808 105.456 49.4312C105.445 49.6828 105.435 49.8522 105.435 49.9549V52.937C105.435 53.6649 105.503 54.2927 105.138 54.964C104.729 55.715 103.931 56.0912 102.781 56.0912C102.44 56.0912 102.087 56.0578 101.723 55.9769C101.438 55.9204 101.165 55.7843 100.891 55.5687C100.618 55.3517 100.482 55.113 100.482 54.8498C100.482 54.5186 100.721 54.258 101.051 54.258C101.233 54.258 101.404 54.3479 101.551 54.5314C101.712 54.724 101.848 54.8267 101.951 54.8498C102.234 54.9178 102.519 54.9525 102.804 54.9525C103.895 54.9551 104.307 54.4762 104.307 53.6225ZM101.164 50.7303C101.164 51.2207 101.277 51.6533 101.517 52.0179C101.755 52.3696 102.085 52.5519 102.506 52.5519C102.894 52.5519 103.292 52.3927 103.703 52.0628C104.124 51.7316 104.328 51.3221 104.328 50.8099C104.328 50.3208 104.159 49.8869 103.827 49.5108C103.497 49.1359 103.099 48.9421 102.632 48.9421C101.755 48.9433 101.164 49.6725 101.164 50.7303Z" fill="#818AAD"/>
<path d="M111.057 53.2579C111.057 53.0872 111.092 52.6892 111.092 52.5519V49.1025C110.989 49.1025 110.819 49.114 110.58 49.1359C110.34 49.1474 110.159 49.159 110.033 49.159C109.372 49.159 109.042 48.942 109.042 48.521C109.042 48.1217 109.338 47.9292 109.942 47.9292C110.044 47.9292 110.192 47.9407 110.363 47.9523C110.534 47.9638 110.648 47.9638 110.704 47.9638C110.807 47.9638 111.195 47.9407 111.365 47.9407C112.014 47.9407 112.264 48.1461 112.264 48.7944C112.264 48.9664 112.229 49.3528 112.229 49.4555V52.6212C112.229 52.7239 112.252 53.0872 112.252 53.2361C112.252 53.783 112.06 54.0564 111.661 54.0564C111.261 54.0551 111.057 53.7932 111.057 53.2579ZM111.422 45.1178C112.025 45.1178 112.299 45.3681 112.299 45.9265C112.299 46.3361 112.184 46.5967 111.969 46.7006C111.752 46.8033 111.627 46.8264 111.41 46.8264C110.83 46.8264 110.545 46.553 110.545 46.0177C110.544 45.1422 111.127 45.1178 111.422 45.1178Z" fill="#818AAD"/>
<path d="M120.653 52.2451C120.666 52.0179 120.471 51.8459 120.118 51.7342C119.766 51.6084 119.322 51.4839 118.787 51.3593C118.263 51.2322 117.864 51.05 117.602 50.8343C117.203 50.5057 117.01 50.0718 117.01 49.5377C117.01 48.91 117.26 48.4324 117.761 48.1012C118.162 47.8509 118.697 47.7264 119.39 47.7264C120.061 47.7264 120.597 47.874 120.972 48.1706C121.348 48.4671 121.54 48.7855 121.54 49.1385C121.54 49.4568 121.291 49.6854 120.972 49.6854C120.221 49.6854 120.756 48.8548 119.287 48.8548C118.661 48.8548 118.149 49.0602 118.149 49.5249C118.149 49.9472 118.716 50.2078 119.435 50.3465C120.459 50.5506 121.803 50.9036 121.792 52.1912C121.792 52.6354 121.655 53.023 121.29 53.4326C120.938 53.8421 120.174 54.1142 119.162 54.1142C118.443 54.1142 117.898 53.9666 117.511 53.6701C117.122 53.3748 116.93 53.0782 116.93 52.7714C116.93 52.2926 117.556 52.145 117.852 52.3735C117.955 52.4531 118.046 52.5314 118.102 52.6225C118.228 52.8061 118.593 52.9743 119.173 52.9858C119.766 52.9974 120.631 52.8138 120.653 52.2451Z" fill="#818AAD"/>
<path d="M129.365 53.7817C128.919 54.0436 128.487 54.0769 128.122 54.0769C127.325 54.0769 126.847 53.7701 126.608 53.3709C126.425 53.0525 126.357 52.8818 126.312 52.5172C126.267 52.1411 126.279 52.0846 126.279 51.7996V49.0781C126.177 49.0781 125.846 49.1025 125.71 49.1025C125.163 49.1025 124.89 48.8971 124.89 48.4978C124.89 48.1102 125.14 47.9176 125.63 47.9176C125.687 47.9176 125.857 47.9292 125.936 47.9292C125.97 47.9292 126.063 47.9407 126.108 47.9407C126.279 47.9407 126.357 47.8842 126.357 47.6455C126.357 47.6018 126.345 47.4978 126.345 47.4632C126.345 47.372 126.335 47.0986 126.335 46.9959C126.335 46.485 126.529 46.2218 126.915 46.2218C127.313 46.2218 127.519 46.5299 127.519 47.132C127.519 47.3258 127.484 47.7931 127.484 47.9292H128.727C129.057 47.9292 129.273 47.9407 129.352 47.9754C129.592 48.0768 129.705 48.2591 129.705 48.5107C129.705 48.693 129.624 48.8406 129.476 48.9549C129.375 49.0345 129.134 49.0794 128.782 49.0794H127.426V51.6083C127.426 51.6982 127.403 51.9716 127.403 52.0987C127.403 52.7367 127.698 52.9524 128.053 52.9524C128.178 52.9524 128.359 52.9177 128.599 52.8369C128.84 52.7573 129.021 52.7239 129.134 52.7239C129.453 52.7239 129.715 52.9524 129.704 53.2823C129.705 53.4877 129.58 53.6559 129.365 53.7817Z" fill="#818AAD"/>
<path d="M135.75 53.2579C135.75 53.0872 135.783 52.6892 135.783 52.5519V49.1025C135.681 49.1025 135.51 49.114 135.272 49.1359C135.031 49.1474 134.851 49.159 134.725 49.159C134.063 49.159 133.734 48.942 133.734 48.521C133.734 48.1217 134.031 47.9292 134.634 47.9292C134.737 47.9292 134.885 47.9407 135.055 47.9523C135.226 47.9638 135.34 47.9638 135.397 47.9638C135.5 47.9638 135.887 47.9407 136.058 47.9407C136.708 47.9407 136.957 48.1461 136.957 48.7944C136.957 48.9664 136.923 49.3528 136.923 49.4555V52.6212C136.923 52.7239 136.946 53.0872 136.946 53.2361C136.946 53.783 136.754 54.0564 136.355 54.0564C135.955 54.0551 135.75 53.7932 135.75 53.2579ZM136.114 45.1178C136.718 45.1178 136.991 45.3681 136.991 45.9265C136.991 46.3361 136.877 46.5967 136.661 46.7006C136.444 46.8033 136.319 46.8264 136.102 46.8264C135.521 46.8264 135.236 46.553 135.236 46.0177C135.238 45.1422 135.819 45.1178 136.114 45.1178Z" fill="#818AAD"/>
<path d="M142.513 48.4992C143.002 48.0333 143.617 47.8047 144.368 47.8047C144.972 47.8047 145.427 47.9524 145.757 48.2592C146.088 48.5557 146.257 48.8741 146.257 49.204C146.257 49.5801 145.917 49.7624 145.7 49.7624C145.176 49.7624 145.357 48.955 144.357 48.955C143.411 48.955 142.934 49.5801 142.934 50.8446C142.934 52.3928 143.388 52.9846 144.288 52.9846C144.574 52.9846 144.812 52.8947 144.994 52.724C145.053 52.6662 145.11 52.5751 145.166 52.4287C145.292 52.1425 145.439 51.9383 145.758 51.9383C146.089 51.9383 146.362 52.1887 146.362 52.5417C146.362 52.8151 146.214 53.1001 145.93 53.3954C145.645 53.6804 145.383 53.8755 145.121 53.9641C144.848 54.0668 144.551 54.1117 144.243 54.1117C143.412 54.1117 141.989 53.7138 141.83 51.5173C141.807 51.2759 141.796 51.0385 141.796 50.7766C141.795 49.7175 142.034 48.9665 142.513 48.4992Z" fill="#818AAD"/>
<path d="M93.614 24.1583H86.0503C85.2749 24.1583 84.6472 24.7861 84.6472 25.5627V34.8364C84.307 35.1817 84.0964 35.6528 84.0964 36.1715C84.0964 37.2177 84.954 38.0752 86.0015 38.0752C87.049 38.0752 87.9053 37.2177 87.9053 36.1715C87.9053 35.7055 87.7345 35.2767 87.4534 34.9442V26.9671H93.614C97.0274 26.9671 99.8042 29.7425 99.8042 33.156C99.8042 36.5694 97.0274 39.3461 93.614 39.3461H86.0503C85.2749 39.3461 84.6472 39.9739 84.6472 40.7492C84.6472 41.5246 85.2749 42.1524 86.0503 42.1524H93.614C98.5743 42.1524 102.61 38.1163 102.61 33.156C102.61 28.1957 98.5743 24.1583 93.614 24.1583Z" fill="#818AAD"/>
<path d="M121.581 35.0586C123.168 33.9867 124.214 32.1715 124.214 30.1162C124.214 26.8299 121.542 24.1572 118.255 24.1572H107.654C106.879 24.1572 106.251 24.7849 106.251 25.5628V40.7494C106.251 41.5235 106.879 42.1512 107.654 42.1512C108.428 42.1512 109.057 41.5235 109.057 40.7494V26.9647H118.255C119.993 26.9647 121.407 28.3794 121.407 30.1162C121.407 31.8531 119.992 33.2678 118.255 33.2678H116.737H116.733H112.871H112.87H112.25C111.475 33.2678 110.847 33.8955 110.847 34.6722C110.847 35.4476 111.475 36.0753 112.25 36.0753H116.737C119.313 36.0779 121.408 38.1729 121.408 40.7507C121.408 41.5247 122.036 42.1525 122.811 42.1525C123.587 42.1525 124.214 41.5247 124.214 40.7507C124.214 38.472 123.19 36.4309 121.581 35.0586Z" fill="#818AAD"/>
<path d="M129.261 24.1583C130.036 24.1583 130.665 24.7861 130.665 25.5627V33.1868C131.855 32.283 133.338 31.7439 134.944 31.7439H135.806L135.778 30.5911C135.761 29.9223 136.466 29.4819 137.061 29.7888L141.701 32.1842C142.31 32.4974 142.342 33.355 141.759 33.7131L137.244 36.4898C136.666 36.8441 135.921 36.441 135.905 35.7632L135.874 34.5514H134.942C132.583 34.5514 130.664 36.4706 130.664 38.8313V40.7338V40.7415C130.664 41.5169 130.036 42.1447 129.259 42.1447C128.484 42.1447 127.856 41.5169 127.856 40.7415V40.7338V38.8313V25.5627C127.857 24.7861 128.485 24.1583 129.261 24.1583Z" fill="#818AAD"/>
<path d="M144.411 24.1583C145.187 24.1583 145.814 24.7861 145.814 25.5627V40.7338C145.814 41.5092 145.188 42.137 144.411 42.137C143.636 42.137 143.008 41.5092 143.008 40.7338V25.5627C143.008 24.7861 143.637 24.1583 144.411 24.1583Z" fill="#818AAD"/>
<path d="M5.63751 39.9445C5.63751 20.7001 21.2374 5.10022 40.4818 5.10022C59.7249 5.10022 75.3273 20.7001 75.3273 39.9445C75.3273 59.1876 59.7262 74.79 40.4818 74.79C21.2374 74.79 5.63751 59.1876 5.63751 39.9445Z" fill="#818AAD"/>
<path d="M24.697 18.9119C26.5109 18.9119 27.9808 20.3817 27.9808 22.1956V40.0369C30.7652 37.9213 34.2338 36.6607 37.9926 36.6607H40.0106L39.9438 33.961C39.9066 32.3987 41.5549 31.3666 42.9439 32.0829L53.803 37.689C55.2254 38.4233 55.3011 40.4297 53.9365 41.2693L43.3727 47.7663C42.0209 48.5981 40.2776 47.6494 40.2391 46.064L40.1698 43.2283H37.9913C32.47 43.2283 27.9795 47.72 27.9795 53.2414V57.6933V57.7113C27.9795 59.5252 26.5096 60.9964 24.6957 60.9964C22.8818 60.9964 21.4119 59.5252 21.4119 57.7113V57.6933V53.2414V22.1956C21.4132 20.3817 22.8831 18.9119 24.697 18.9119Z" fill="white"/>
<path d="M60.1485 18.9119C61.9611 18.9119 63.4322 20.3817 63.4322 22.1956V57.6933C63.4322 59.5085 61.9611 60.9771 60.1485 60.9771C58.3346 60.9771 56.8634 59.5085 56.8634 57.6933V22.1956C56.8647 20.3817 58.3346 18.9119 60.1485 18.9119Z" fill="white"/>
</svg>
