<svg width="152" height="80" viewBox="0 0 152 80" fill="none" xmlns="http://www.w3.org/2000/svg">
<path fill-rule="evenodd" clip-rule="evenodd" d="M93.1791 26.3092C92.5427 26.9514 91.8347 27.497 91.1185 28.0298C89.6446 29.1263 88.1316 30.1662 86.5581 31.1163C86.3826 31.2222 86.3533 31.3667 86.3444 31.5465C86.2666 33.0942 86.1641 34.641 86.115 36.1895C86.0998 36.6683 85.9249 36.9176 85.5007 37.1203C83.6934 37.9848 81.9018 38.8814 80.1052 39.7683C78.6433 40.4894 77.1821 41.212 75.722 41.9363C74.6106 42.488 73.5011 43.0437 72.39 43.5966C72.3302 43.6264 72.2645 43.6439 72.1924 43.6709C72.1232 43.5661 72.1502 43.4619 72.1499 43.3659C72.1482 40.2194 72.153 37.0732 72.1413 33.9267C72.1404 33.6243 72.2607 33.5384 72.5261 33.487C74.0971 33.1818 75.6511 32.8029 77.2031 32.4106C78.7625 32.0166 80.3071 31.5723 81.8389 31.0887C83.8372 30.4577 85.8128 29.7624 87.7488 28.9508C89.3413 28.2831 90.8471 27.4505 92.3856 26.6791C92.6463 26.5484 92.9146 26.4324 93.1791 26.3092Z" fill="#818AAD"/>
<path fill-rule="evenodd" clip-rule="evenodd" d="M71.6255 23.1167C71.6255 23.9321 71.6131 24.7477 71.6321 25.5625C71.639 25.8583 71.5252 25.9588 71.2504 26.007C69.6479 26.2885 68.041 26.528 66.4209 26.6888C64.3859 26.8907 62.3488 27.0435 60.3046 26.9416C59.3106 26.8922 58.3097 26.8724 57.3258 26.6745C57.1587 26.6409 57.1029 26.5992 57.082 26.4275C56.9789 25.5823 56.9792 24.7316 56.9344 23.8838C56.8054 21.4421 56.7043 18.9992 56.5851 16.5569C56.5745 16.3418 56.6199 16.303 56.8307 16.3613C57.9855 16.6813 59.1437 16.9889 60.3017 17.2967C61.6811 17.6635 63.0631 18.0208 64.4413 18.3918C66.1711 18.8576 67.8965 19.3393 69.6275 19.8005C70.2119 19.9562 70.8009 20.0917 71.3799 20.2706C71.5755 20.3309 71.6263 20.4182 71.6252 20.6021C71.6194 21.4401 71.6226 22.2784 71.6226 23.1167C71.6237 23.1167 71.6246 23.1167 71.6255 23.1167Z" fill="#818AAD"/>
<path fill-rule="evenodd" clip-rule="evenodd" d="M56.6164 15.7695C57.0102 15.5492 57.3907 15.5254 57.7434 15.43C59.727 14.8944 61.7138 14.3697 63.7026 13.8545C65.128 13.4851 66.5605 13.1434 67.9867 12.7769C69.1142 12.4871 70.2386 12.1841 71.361 11.8754C71.6565 11.7941 71.9342 11.7941 72.2314 11.8725C74.2303 12.4004 76.2338 12.9099 78.2324 13.4398C79.9196 13.8872 81.6164 14.299 83.2964 14.7764C84.4047 15.0914 85.5311 15.3444 86.6497 15.6239C86.7479 15.6483 86.8614 15.644 86.8829 15.7991C85.1511 16.2476 83.4182 16.6922 81.6876 17.1454C80.2533 17.5211 78.8228 17.9131 77.388 18.2864C76.2395 18.5851 75.0861 18.864 73.9362 19.1563C73.5833 19.246 73.2257 19.3275 72.8851 19.453C72.1071 19.7402 71.361 19.6612 70.5827 19.4091C69.7148 19.1279 68.8147 18.947 67.9298 18.7181C66.3287 18.304 64.7285 17.8867 63.1277 17.4705C61.9134 17.1543 60.6992 16.8381 59.4849 16.5211C58.557 16.2784 57.6291 16.0348 56.6164 15.7695Z" fill="#818AAD"/>
<path fill-rule="evenodd" clip-rule="evenodd" d="M107.224 53.198C108.028 53.198 108.831 53.1997 109.635 53.1966C109.824 53.196 109.941 53.1733 109.88 53.466C109.567 54.9775 109.296 56.4973 108.995 58.0111C108.926 58.3586 108.826 58.6995 108.792 59.0542C108.777 59.2012 108.695 59.2713 108.538 59.2702C107.838 59.2653 107.137 59.2656 106.437 59.2693C106.312 59.2702 106.259 59.2242 106.225 59.1024C106.136 58.7851 106.015 58.4761 105.934 58.157C105.868 57.9008 105.796 57.9224 105.634 58.0909C105.116 58.6312 104.541 59.0789 103.794 59.2839C102.88 59.5347 101.984 59.4867 101.085 59.2302C99.6668 58.8253 98.7575 57.8767 98.2719 56.5206C97.5823 54.5949 97.7122 52.6515 98.352 50.7534C99.0548 48.6687 100.45 47.1701 102.519 46.3734C104.483 45.6167 106.491 45.588 108.52 46.1353C109.202 46.3197 109.851 46.5871 110.508 46.8361C110.699 46.9085 110.738 47.007 110.698 47.1997C110.466 48.3436 110.241 49.4892 110.023 50.636C109.977 50.8815 109.895 50.9995 109.607 50.9927C108.654 50.9705 107.7 50.9726 106.748 50.9912C106.449 50.9972 106.408 50.8976 106.445 50.6325C106.55 49.8939 106.613 49.1492 106.599 48.4025C106.59 47.9498 106.547 47.4673 106.047 47.2755C105.552 47.0857 105.134 47.3128 104.773 47.6557C104.175 48.2238 103.831 48.9542 103.584 49.71C102.875 51.8884 102.479 54.1231 102.532 56.4264C102.54 56.7828 102.634 57.1036 102.806 57.4045C103.087 57.8971 103.733 58.0183 104.322 57.688C104.893 57.3672 105.248 56.858 105.499 56.2698C105.692 55.8169 105.82 55.3428 105.922 54.8612C105.957 54.6911 105.931 54.6104 105.728 54.6176C105.326 54.632 104.924 54.6116 104.522 54.6257C104.294 54.6337 104.203 54.58 104.275 54.3356C104.358 54.0507 104.433 53.7609 104.48 53.4683C104.522 53.215 104.663 53.1888 104.881 53.1926C105.662 53.2052 106.443 53.198 107.224 53.198Z" fill="#818AAD"/>
<path fill-rule="evenodd" clip-rule="evenodd" d="M78.2088 54.984C78.11 55.4071 78.0184 55.7672 77.9429 56.1302C77.7499 57.0593 77.5603 57.9895 77.3797 58.9209C77.3492 59.08 77.2731 59.1351 77.1272 59.1351C75.8412 59.1346 74.5551 59.1346 73.2691 59.1346C73.1212 59.1346 73.0657 59.0806 73.1005 58.9218C73.3722 57.6831 73.6413 56.4439 73.9041 55.2032C74.1031 54.2635 74.2872 53.3203 74.4871 52.3809C74.701 51.3752 74.9471 50.376 75.1364 49.3657C75.2292 48.8708 75.371 48.3858 75.4331 47.8875C75.4598 47.673 75.55 47.5586 75.7254 47.4728C77.2039 46.7447 78.6818 46.0153 80.2723 45.2307C79.656 48.1514 79.0578 50.9872 78.4595 53.8226C78.4802 53.8379 78.5015 53.8528 78.5221 53.868C78.9587 53.5334 79.3975 53.202 79.8312 52.8634C80.9357 52.001 82.0377 51.1351 83.1402 50.2706C83.2112 50.2152 83.272 50.152 83.3772 50.1526C84.2336 50.156 85.0903 50.1546 86.0377 50.1546C85.3757 50.6991 84.7835 51.1882 84.1896 51.675C83.4854 52.2523 82.7824 52.8301 82.0736 53.4019C81.9432 53.507 81.9211 53.5854 82.0098 53.7416C82.8082 55.1472 83.5969 56.5584 84.3866 57.9689C84.5592 58.2773 84.7158 58.5952 84.897 58.8985C85.0165 59.0992 84.9332 59.1369 84.7502 59.1366C83.3493 59.1357 81.9486 59.1334 80.5477 59.1392C80.3475 59.14 80.2803 59.0286 80.2025 58.8727C79.5859 57.6392 78.9601 56.4105 78.336 55.1808C78.3125 55.1322 78.278 55.0894 78.2088 54.984Z" fill="#818AAD"/>
<path fill-rule="evenodd" clip-rule="evenodd" d="M93.6842 17.6204C92.4815 18.5079 91.2049 19.2072 89.8979 19.8594C88.4995 20.5573 87.0664 21.1727 85.6201 21.7606C84.4671 22.229 83.2947 22.6458 82.1224 23.0631C80.5845 23.6104 79.0242 24.0872 77.4549 24.5338C76.324 24.8557 75.1798 25.1337 74.0385 25.4198C73.5072 25.553 72.9667 25.6498 72.4351 25.7819C72.2076 25.8385 72.153 25.767 72.1536 25.5516C72.1562 23.8859 72.1565 22.2201 72.143 20.5547C72.1413 20.3077 72.2688 20.2399 72.4592 20.1897C73.398 19.9413 74.3357 19.6885 75.2754 19.4424C76.743 19.0578 78.2134 18.6831 79.6795 18.2933C81.1244 17.9091 82.5653 17.5087 84.0087 17.119C84.9458 16.8663 85.8867 16.6282 86.8206 16.3648C87.0644 16.2962 87.0883 16.3769 87.0814 16.584C87.0532 17.4679 87.0469 18.3528 87.009 19.2362C86.9969 19.5205 87.0874 19.5725 87.3416 19.5087C89.1788 19.0484 90.9858 18.4855 92.7873 17.9036C93.086 17.8071 93.3853 17.7146 93.6842 17.6204Z" fill="#818AAD"/>
<path fill-rule="evenodd" clip-rule="evenodd" d="M71.6252 38.641C71.6249 40.1686 71.6269 41.6961 71.6237 43.2237C71.6229 43.6646 71.6105 43.6669 71.2217 43.4759C69.0918 42.4291 66.9617 41.3837 64.8316 40.3383C62.7868 39.3348 60.7417 38.3317 58.6969 37.3288C58.6765 37.3187 58.6515 37.315 58.634 37.3015C58.3422 37.0841 57.8143 37.0749 57.7253 36.7538C57.5788 36.2242 57.6322 35.6398 57.6018 35.0783C57.5929 34.9118 57.7138 34.9353 57.8137 34.9399C58.0889 34.952 58.364 34.9793 58.6391 34.9818C60.7408 35.0008 62.8362 34.9181 64.9281 34.6823C65.8385 34.5798 66.7509 34.4784 67.657 34.3506C68.8799 34.1783 70.1056 34.0034 71.311 33.7228C71.5752 33.6613 71.6295 33.7469 71.6283 33.9899C71.6217 35.5401 71.6252 37.0904 71.6252 38.641Z" fill="#818AAD"/>
<path fill-rule="evenodd" clip-rule="evenodd" d="M136.587 50.2795C137.184 50.2793 137.781 50.2882 138.378 50.275C138.638 50.2692 138.741 50.2994 138.67 50.6124C138.272 52.3746 137.897 54.142 137.52 55.9091C137.468 56.1547 137.438 56.4068 137.42 56.6575C137.399 56.9485 137.405 57.2713 137.687 57.4264C138.009 57.6036 138.355 57.5168 138.669 57.3396C139.183 57.0493 139.357 56.5662 139.465 56.0177C139.691 54.8626 139.95 53.7135 140.198 52.5625C140.343 51.893 140.5 51.2264 140.633 50.555C140.671 50.3625 140.739 50.2755 140.943 50.2764C142.183 50.2818 143.423 50.2824 144.663 50.2761C144.883 50.2747 144.954 50.3522 144.907 50.563C144.73 51.3548 144.554 52.1472 144.381 52.9398C144.084 54.2902 143.786 55.6403 143.496 56.9921C143.354 57.6515 143.225 58.3132 143.099 58.9755C143.059 59.188 142.973 59.2773 142.737 59.2736C141.795 59.2587 140.853 59.2633 139.912 59.271C139.709 59.2727 139.61 59.221 139.551 59.0074C139.47 58.711 139.408 58.4091 139.304 58.1162C139.213 57.8583 139.139 57.9295 139.009 58.0611C138.069 59.014 136.919 59.4718 135.589 59.4393C134.665 59.4169 133.86 59.1044 133.372 58.2506C133.089 57.7555 133.019 57.2069 133.129 56.6558C133.378 55.4131 133.653 54.1753 133.92 52.9364C134.091 52.1429 134.281 51.3534 134.432 50.5564C134.474 50.3335 134.551 50.2724 134.761 50.2755C135.369 50.2856 135.978 50.2795 136.587 50.2795Z" fill="#818AAD"/>
<path fill-rule="evenodd" clip-rule="evenodd" d="M114.271 50.2792C114.868 50.2795 115.465 50.2893 116.062 50.2746C116.319 50.2686 116.375 50.3522 116.322 50.5951C116.08 51.7006 115.849 52.8083 115.616 53.9157C115.444 54.7322 115.273 55.5487 115.106 56.3657C115.085 56.4662 115.088 56.5714 115.082 56.6742C115.063 56.9717 115.076 57.2905 115.365 57.435C115.69 57.5969 116.02 57.4953 116.344 57.3229C116.944 57.0042 117.025 56.4272 117.146 55.8583C117.45 54.4395 117.759 53.0219 118.065 51.6038C118.142 51.2459 118.232 50.8898 118.291 50.5285C118.321 50.341 118.4 50.2772 118.582 50.2778C119.834 50.2818 121.085 50.2827 122.337 50.2761C122.575 50.2749 122.594 50.3703 122.55 50.5739C122.209 52.1601 121.89 53.7511 121.539 55.3347C121.278 56.5065 121.013 57.6773 120.792 58.8574C120.736 59.1524 120.627 59.2937 120.275 59.2796C119.381 59.2443 118.484 59.2629 117.589 59.2718C117.39 59.2739 117.276 59.2371 117.23 59.0171C117.168 58.7279 117.05 58.451 116.98 58.1636C116.917 57.9062 116.833 57.887 116.647 58.0725C115.533 59.1811 114.186 59.6461 112.642 59.3681C111.557 59.1728 110.771 58.3557 110.786 57.1633C110.796 56.3135 111.037 55.5145 111.2 54.6983C111.465 53.376 111.77 52.0616 112.035 50.7393C112.105 50.3864 112.234 50.241 112.618 50.2686C113.166 50.3085 113.719 50.2789 114.271 50.2792Z" fill="#818AAD"/>
<path fill-rule="evenodd" clip-rule="evenodd" d="M36.8164 59.2799C35.8081 59.3009 34.6139 59.1909 33.4505 58.831C32.7383 58.6102 32.738 58.6153 32.8911 57.9008C32.9775 57.4976 33.0662 57.0944 33.1389 56.6886C33.167 56.5318 33.236 56.4798 33.3896 56.4806C34.1938 56.4858 34.9979 56.4861 35.8018 56.4812C35.9689 56.4803 36.0278 56.5458 36.0103 56.7072C36.0002 56.798 36.0077 56.891 36.0111 56.9826C36.0338 57.5608 36.3242 57.8945 36.8388 57.935C37.4672 57.9847 37.9859 57.6395 38.0884 57.1033C38.1628 56.715 37.9807 56.4057 37.5235 56.1475C36.9181 55.8057 36.2346 55.6923 35.5818 55.4898C34.8718 55.2695 34.3178 54.8706 33.9996 54.1782C33.5522 53.2035 33.8236 51.9053 34.6248 51.1831C35.2437 50.625 35.977 50.3269 36.7822 50.1417C38.0557 49.849 39.3311 49.8674 40.6111 50.04C41.2556 50.127 41.884 50.2922 42.4888 50.54C42.6867 50.6213 42.7252 50.7448 42.6752 50.9435C42.5413 51.4748 42.4124 52.0076 42.3047 52.5444C42.2734 52.7003 42.2194 52.7678 42.0678 52.7678C41.2866 52.7669 40.5057 52.7649 39.7245 52.7692C39.5574 52.7701 39.5298 52.6957 39.5683 52.5547C39.6341 52.3129 39.5758 52.0742 39.5333 51.8384C39.4681 51.4771 39.2378 51.2962 38.8865 51.31C38.4287 51.3281 37.9658 51.7299 37.8736 52.1891C37.7785 52.6621 37.9603 52.9886 38.4408 53.2365C38.9066 53.4769 39.4244 53.5343 39.9207 53.665C40.5999 53.8442 41.2679 54.049 41.7852 54.5493C42.4497 55.1929 42.4954 56.0188 42.336 56.8526C42.1206 57.9804 41.286 58.5427 40.2829 58.8911C39.2266 59.2575 38.1226 59.2834 36.8164 59.2799Z" fill="#818AAD"/>
<path fill-rule="evenodd" clip-rule="evenodd" d="M68.5861 56.1894C69.1062 55.1437 69.6183 54.1147 70.1295 53.0857C70.5807 52.1776 71.035 51.2709 71.4776 50.3585C71.5542 50.2005 71.6441 50.1454 71.8173 50.1488C72.3796 50.1595 72.9425 50.1618 73.5049 50.1488C73.7656 50.1428 73.7625 50.2206 73.6556 50.4191C73.014 51.6135 72.3791 52.8117 71.7464 54.0107C70.954 55.5128 70.1447 57.0067 69.3891 58.5272C69.1599 58.9881 68.9149 59.1739 68.3848 59.1506C67.2618 59.1015 66.1352 59.1274 65.0102 59.142C64.7357 59.1458 64.6622 59.0352 64.6254 58.7888C64.4873 57.8611 64.3247 56.9367 64.1774 56.0099C63.9761 54.7439 63.7825 53.4766 63.5812 52.2106C63.4913 51.6463 63.4028 51.0811 63.2894 50.5213C63.2331 50.243 63.2765 50.1417 63.5915 50.1457C64.854 50.1629 66.1171 50.1572 67.3799 50.1483C67.5861 50.1468 67.6774 50.1916 67.7058 50.4148C67.8075 51.21 67.9376 52.001 68.0467 52.795C68.1826 53.7818 68.3058 54.7701 68.4399 55.7569C68.4594 55.8993 68.4795 56.0481 68.5861 56.1894Z" fill="#818AAD"/>
<path fill-rule="evenodd" clip-rule="evenodd" d="M47.7393 59.2836C46.8711 59.2742 46.2352 59.3112 45.6284 59.0924C44.7226 58.7655 44.4469 58.1889 44.3863 57.3135C44.332 56.5283 44.5494 55.7678 44.7076 55.0053C44.9328 53.92 45.1565 52.8341 45.3897 51.7505C45.4291 51.5685 45.3639 51.526 45.2031 51.5277C44.8472 51.5317 44.4908 51.5182 44.135 51.532C43.8932 51.5415 43.7481 51.5104 43.8598 51.2164C43.9161 51.0682 43.9719 50.9073 43.971 50.7528C43.9684 50.2178 44.2924 50.0578 44.7513 49.9648C46.1471 49.6819 47.2229 48.8835 48.0761 47.7772C48.3234 47.4564 48.5759 47.2919 48.9917 47.3286C49.4133 47.3662 49.8412 47.3499 50.2657 47.3324C50.5512 47.3206 50.5871 47.4277 50.5288 47.6804C50.3596 48.4151 50.2275 49.158 50.0492 49.8898C49.9886 50.1377 50.0652 50.1606 50.2689 50.1555C50.6477 50.146 51.0271 50.1612 51.4056 50.1494C51.5868 50.1437 51.6227 50.2164 51.5891 50.3729C51.5219 50.6856 51.4544 50.9984 51.3973 51.3126C51.3665 51.4823 51.2755 51.5346 51.1101 51.5308C50.7427 51.5219 50.3743 51.5415 50.0078 51.5237C49.7623 51.5116 49.6574 51.6138 49.6112 51.8424C49.3019 53.3666 48.963 54.8853 48.6824 56.4143C48.5331 57.2273 48.4004 57.6659 49.6304 57.6771C50.0543 57.6811 50.0558 57.698 49.9619 58.1133C49.9136 58.3256 49.8283 58.5364 49.8211 58.7495C49.8088 59.1214 49.6192 59.1923 49.2895 59.1983C48.693 59.2098 48.0994 59.3014 47.7393 59.2836Z" fill="#818AAD"/>
<path fill-rule="evenodd" clip-rule="evenodd" d="M126.179 50.2796C126.661 50.2801 127.143 50.2839 127.625 50.2781C127.795 50.2761 127.889 50.3028 127.918 50.511C127.972 50.895 128.071 51.2727 128.159 51.6515C128.176 51.7241 128.175 51.8235 128.273 51.8476C128.387 51.8755 128.391 51.7586 128.434 51.7023C128.893 51.1087 129.395 50.5587 130.122 50.3011C131.069 49.9665 132.015 49.9062 132.938 50.4074C133.09 50.4895 133.125 50.5825 133.091 50.7391C132.812 52.0352 132.534 53.3313 132.263 54.6291C132.23 54.7868 132.155 54.8367 132.006 54.8359C131.398 54.8324 130.789 54.8301 130.181 54.8379C129.997 54.8402 129.953 54.7589 129.94 54.5912C129.901 54.1133 129.917 53.6297 129.766 53.163C129.612 52.6905 129.433 52.5246 129.034 52.5395C128.576 52.5564 128.2 52.8568 128.113 53.2664C127.807 54.696 127.497 56.1248 127.19 57.5545C127.082 58.0579 126.966 58.5599 126.874 59.0665C126.845 59.2302 126.78 59.2707 126.629 59.2702C125.355 59.2664 124.081 59.2653 122.807 59.2713C122.62 59.2722 122.573 59.2251 122.615 59.0347C122.952 57.5059 123.284 55.976 123.607 54.4444C123.878 53.1593 124.137 51.872 124.395 50.5846C124.438 50.3706 124.535 50.2698 124.766 50.2761C125.237 50.2882 125.708 50.2793 126.179 50.2796Z" fill="#818AAD"/>
<path fill-rule="evenodd" clip-rule="evenodd" d="M105.12 11.4018C105.057 11.3366 104.991 11.4015 104.933 11.4245C104.011 11.7898 103.066 12.0913 102.126 12.4061C101.174 12.7252 100.214 13.0164 99.2449 13.2783C98.4637 13.4894 97.6828 13.6988 96.8925 13.878C96.2021 14.0348 95.5119 14.1893 94.8158 14.3148C94.7262 14.3309 94.6168 14.3151 94.5691 14.4076C94.5137 14.5153 94.6225 14.5701 94.6802 14.6336C95.1656 15.1669 95.653 15.6991 96.1415 16.2298C96.2483 16.3455 96.3546 16.4475 96.1794 16.5977C95.8149 16.9093 95.4689 17.243 95.0955 17.5426C94.42 18.0836 93.6811 18.5343 92.953 18.9992C92.1681 19.4332 91.397 19.8961 90.5943 20.2942C89.5748 20.7996 88.5495 21.2962 87.4946 21.7278C86.536 22.1202 85.5819 22.5231 84.6049 22.8706C83.8889 23.1256 83.1844 23.4131 82.4748 23.6859C82.1419 23.7985 81.8108 23.918 81.4756 24.0225C79.9535 24.4967 78.4345 24.9812 76.8952 25.3985C75.6726 25.7296 74.4474 26.0504 73.2136 26.3387C72.9405 26.4028 72.641 26.3896 72.4003 26.5717C71.6579 26.6297 70.9483 26.864 70.2171 26.9823C69.2911 27.1323 68.3695 27.3072 67.4413 27.4479C66.2073 27.6346 64.9718 27.7905 63.7296 27.9111C63.1277 27.9694 62.5168 27.947 61.9235 28.0906C60.0541 28.0964 58.1836 28.1676 56.3218 27.9054C55.3134 27.7635 54.3215 27.5642 53.3519 27.2494C52.4423 26.9542 51.6149 26.5073 50.8467 25.9436C50.8102 25.9002 50.7786 25.8511 50.7364 25.8143C49.6612 24.8818 49.1554 23.6925 49.1255 22.2813C49.0997 21.0561 49.4337 19.9096 49.8533 18.7772C50.0733 18.1839 50.38 17.629 50.5991 17.034C50.3817 17.3002 50.1816 17.5753 49.9883 17.855C49.1953 19.0012 48.4699 20.1888 47.8852 21.455C47.3472 22.6199 46.9239 23.8175 46.7303 25.1021C46.5833 26.0783 46.6201 27.0294 46.8883 27.9574C47.3162 29.4364 48.2732 30.5326 49.5414 31.3813C50.2266 31.8399 50.9642 32.1958 51.7235 32.4953C52.2103 32.6872 52.714 32.867 53.2445 32.9281C53.4955 33.1498 53.8243 33.1073 54.1175 33.1731C55.3933 33.4597 56.6799 33.678 57.9932 33.6892C59.4777 33.8615 60.9683 33.7679 62.4562 33.7768C62.9551 33.7797 63.4574 33.7438 63.9557 33.6883C64.0648 33.6857 64.1736 33.6832 64.2828 33.6809C64.8911 33.7147 65.4976 33.6464 66.0961 33.5752C67.624 33.3925 69.1533 33.2191 70.6711 32.9479C72.0166 32.7078 73.3656 32.4945 74.6918 32.1587C75.4067 32.0786 76.0882 31.8514 76.7829 31.6829C77.6364 31.4758 78.4928 31.277 79.3355 31.0315C80.5698 30.6716 81.7959 30.2828 83.0196 29.8882C83.9294 29.5947 84.8398 29.2994 85.7166 28.9126C86.2959 28.7029 86.8867 28.52 87.4521 28.2785C89.0576 27.5921 90.6656 26.9114 92.2144 26.1004C93.36 25.5001 94.4927 24.8775 95.5751 24.1673C95.688 24.1765 95.7713 24.105 95.8551 24.0512C97.2994 23.1291 98.69 22.1322 99.9568 20.976C100.207 20.7477 100.337 20.7893 100.54 20.9984C101.033 21.5047 101.542 21.9935 102.04 22.4952C102.106 22.563 102.171 22.6451 102.262 22.6279C102.383 22.6052 102.336 22.4754 102.354 22.3947C102.437 22.0392 102.499 21.6785 102.583 21.3232C102.827 20.291 103.04 19.2517 103.272 18.2169C103.625 16.646 104.036 15.0931 104.503 13.5537C104.702 12.8995 104.906 12.2473 105.108 11.5939C105.127 11.5302 105.179 11.4624 105.12 11.4018ZM52.1753 28.3999C52.1888 28.4298 52.2002 28.4597 52.21 28.4898C52.1862 28.4631 52.1755 28.4327 52.1753 28.3999Z" fill="#818AAD"/>
<path fill-rule="evenodd" clip-rule="evenodd" d="M97.178 68.7392C97.5421 68.0844 97.9054 67.4288 98.2707 66.7745C98.4654 66.4256 98.6645 66.0792 98.8583 65.7297C98.9893 65.4942 99.2084 65.5396 99.4069 65.5695C99.5614 65.5924 99.4973 65.7346 99.4813 65.8245C99.3928 66.307 99.3009 66.7886 99.2001 67.2688C99.0775 67.8495 98.9212 68.4242 98.8264 69.0095C98.7831 69.2792 98.6323 69.2524 98.4669 69.2355C98.2104 69.2097 98.3537 69.0195 98.3747 68.921C98.543 68.1298 98.7274 67.342 98.8494 66.5253C98.5935 66.9744 98.3385 67.4242 98.0818 67.8731C97.8563 68.2674 97.6131 68.6528 97.41 69.0583C97.3038 69.2702 97.1467 69.2358 96.9789 69.2398C96.7722 69.2447 96.8213 69.0787 96.8032 68.9696C96.6682 68.1508 96.5099 67.336 96.4321 66.4288C96.2038 66.7567 96.2469 67.0781 96.1682 67.3607C96.0151 67.9104 95.8908 68.4713 95.8052 69.035C95.7604 69.3308 95.5737 69.2519 95.435 69.2303C95.225 69.1979 95.3586 69.0405 95.3796 68.9383C95.582 67.9305 95.7894 66.9239 95.9941 65.9167C96.0412 65.6841 96.1142 65.527 96.4166 65.5442C96.7216 65.562 96.6986 65.7676 96.7205 65.948C96.8319 66.8768 97.0444 67.7898 97.178 68.7392Z" fill="#818AAD"/>
<path fill-rule="evenodd" clip-rule="evenodd" d="M66.5407 68.3512C66.9462 67.9066 67.3058 67.5184 67.659 67.124C68.0769 66.6573 68.4913 66.1875 68.9023 65.7151C69.0002 65.6022 69.1053 65.5456 69.2581 65.5534C69.4121 65.5608 69.4589 65.6151 69.425 65.7682C69.1812 66.8727 68.9345 67.9764 68.7076 69.0844C68.6496 69.3676 68.458 69.2326 68.3359 69.228C68.1415 69.2208 68.2722 69.0899 68.2903 69.0046C68.4583 68.205 68.6254 67.4058 68.7168 66.568C68.3687 66.9537 68.0203 67.3391 67.672 67.7246C67.2529 68.1881 66.8247 68.6439 66.4195 69.1189C66.2641 69.301 66.0711 69.2723 65.9229 69.216C65.7762 69.16 65.9103 68.9954 65.9339 68.8834C66.1498 67.8555 66.3736 66.8291 66.5884 65.8009C66.6197 65.6513 66.6518 65.5387 66.842 65.5542C67.0051 65.5677 67.0852 65.5784 67.0335 65.7981C66.8512 66.5758 66.7018 67.3613 66.5416 68.1444C66.5338 68.1835 66.5407 68.2263 66.5407 68.3512Z" fill="#818AAD"/>
<path fill-rule="evenodd" clip-rule="evenodd" d="M32.3925 68.3455C33.205 67.4414 33.9565 66.6045 34.7078 65.7676C34.7308 65.7421 34.7515 65.7145 34.7733 65.6878C34.8905 65.5425 35.0631 65.5069 35.2076 65.5749C35.3414 65.6381 35.2667 65.8104 35.2446 65.9221C35.1504 66.4046 35.0352 66.8831 34.9287 67.363C34.8075 67.9095 34.6757 68.4541 34.5731 69.004C34.5335 69.2168 34.4339 69.2651 34.2469 69.2401C33.9847 69.2051 34.1349 69.0201 34.153 68.9248C34.2768 68.2737 34.4189 67.6264 34.5596 66.9787C34.5866 66.8544 34.6105 66.7335 34.5746 66.5514C34.1363 67.033 33.7239 67.4833 33.3144 67.9362C32.9703 68.3168 32.6148 68.6887 32.2928 69.0873C32.1441 69.2717 31.9608 69.2792 31.8037 69.2217C31.6472 69.1646 31.7446 68.9724 31.7687 68.855C31.9778 67.8363 32.2026 66.8205 32.4192 65.8032C32.4594 65.614 32.5596 65.5189 32.7555 65.558C33.0189 65.6105 32.8695 65.8058 32.848 65.9155C32.7081 66.6318 32.5456 67.344 32.3936 68.058C32.3807 68.1215 32.3925 68.1901 32.3925 68.3455Z" fill="#818AAD"/>
<path fill-rule="evenodd" clip-rule="evenodd" d="M42.7381 68.3526C43.029 68.13 43.1775 67.9155 43.3483 67.7205C43.9276 67.0602 44.5144 66.4069 45.1042 65.7561C45.2002 65.6501 45.3024 65.5401 45.4793 65.5516C45.6229 65.5608 45.7002 65.5955 45.6657 65.7544C45.4288 66.8489 45.1829 67.9413 44.9638 69.0393C44.9144 69.2869 44.7674 69.2564 44.62 69.2343C44.3903 69.1998 44.5393 69.0402 44.5583 68.9474C44.7016 68.2429 44.8558 67.5404 45.0089 66.8377C45.0307 66.738 45.0629 66.6409 45.0192 66.5062C44.4512 67.1329 43.8952 67.7449 43.3403 68.3586C43.118 68.6045 42.8917 68.8474 42.6806 69.1028C42.5689 69.2377 42.4351 69.24 42.2831 69.2429C42.1134 69.2464 42.0939 69.17 42.1252 69.0292C42.363 67.9589 42.5976 66.8882 42.8325 65.817C42.8593 65.6955 42.857 65.5585 43.0396 65.5548C43.2197 65.551 43.3492 65.5433 43.2863 65.8104C43.0956 66.6194 42.9334 67.435 42.7381 68.3526Z" fill="#818AAD"/>
<path fill-rule="evenodd" clip-rule="evenodd" d="M112.486 68.3564C112.952 67.9572 113.251 67.5387 113.598 67.168C114.025 66.711 114.429 66.232 114.847 65.7659C114.937 65.6654 115.023 65.5531 115.184 65.5545C115.341 65.5554 115.45 65.5614 115.4 65.7831C115.162 66.8658 114.928 67.9494 114.716 69.0376C114.663 69.3136 114.487 69.257 114.34 69.2297C114.139 69.1915 114.29 69.0517 114.308 68.9632C114.466 68.1591 114.631 67.3561 114.813 66.4563C114.36 66.9523 113.97 67.3785 113.581 67.8055C113.198 68.2263 112.805 68.6378 112.442 69.0749C112.317 69.2246 112.191 69.2366 112.028 69.2432C111.865 69.2495 111.827 69.1826 111.859 69.0387C112.103 67.9463 112.354 66.8552 112.582 65.7593C112.634 65.5126 112.786 65.5456 112.937 65.5651C113.165 65.595 113.035 65.7475 113.013 65.8532C112.846 66.6559 112.676 67.4575 112.486 68.3564Z" fill="#818AAD"/>
<path fill-rule="evenodd" clip-rule="evenodd" d="M77.7921 69.2401C77.4021 69.2401 77.0118 69.2352 76.6218 69.2424C76.4652 69.2453 76.3978 69.226 76.4397 69.0353C76.6646 68.01 76.8828 66.983 77.0847 65.9529C77.1419 65.6616 77.2401 65.5295 77.5704 65.5456C78.2229 65.5769 78.8783 65.5531 79.5322 65.5568C79.6342 65.5574 79.799 65.5123 79.7611 65.7065C79.7361 65.8328 79.7648 66.0114 79.5236 66.0051C78.9618 65.9905 78.3992 66.0097 77.8372 65.9962C77.6433 65.9916 77.5618 66.0502 77.5029 66.2392C77.2249 67.1324 77.2395 67.1602 78.1585 67.1608C78.4684 67.1608 78.7792 67.1476 79.0873 67.168C79.1901 67.1749 79.3943 67.0471 79.3958 67.2797C79.3969 67.4822 79.2602 67.5583 79.0466 67.5491C78.6341 67.5316 78.2206 67.5439 77.8076 67.5439C77.693 67.5439 77.5773 67.5534 77.4638 67.5419C77.27 67.5227 77.1996 67.6286 77.1669 67.7955C77.1143 68.064 77.0652 68.334 76.9945 68.5979C76.9429 68.7906 77.0063 68.8392 77.1907 68.8372C77.7872 68.8303 78.3837 68.8314 78.9805 68.8383C79.0859 68.8394 79.2522 68.7674 79.2444 68.9934C79.2381 69.1861 79.1485 69.2481 78.9624 69.243C78.5727 69.2332 78.1824 69.2401 77.7921 69.2401Z" fill="#818AAD"/>
<path fill-rule="evenodd" clip-rule="evenodd" d="M88.3803 69.2404C88.013 69.2404 87.6448 69.2266 87.2784 69.2456C87.0483 69.2573 87.0047 69.1798 87.0506 68.9707C87.2591 68.0221 87.4452 67.0686 87.6655 66.1229C87.7991 65.5494 87.8203 65.5545 88.4096 65.5545C88.972 65.5545 89.5346 65.5517 90.0972 65.5568C90.2086 65.558 90.3795 65.4968 90.3697 65.709C90.3617 65.8822 90.3094 66.0115 90.0831 66.0063C89.5323 65.9936 88.9809 66.0086 88.43 65.9988C88.2405 65.9954 88.1486 66.0433 88.1003 66.2467C87.8832 67.1622 87.8757 67.1605 88.8048 67.1605C89.1032 67.1605 89.4022 67.1505 89.6997 67.1663C89.8043 67.1717 89.9987 67.0574 89.9872 67.3214C89.9777 67.5405 89.8373 67.5456 89.679 67.5454C89.1968 67.5445 88.7129 67.5724 88.2333 67.5362C87.887 67.5097 87.7508 67.6393 87.7367 67.9609C87.7322 68.0637 87.7184 68.1671 87.698 68.2679C87.5848 68.8349 87.584 68.8346 88.1707 68.8346C88.6184 68.8346 89.0662 68.8274 89.5136 68.84C89.6259 68.8432 89.8209 68.7444 89.833 68.9701C89.8433 69.1709 89.7419 69.2608 89.5162 69.2473C89.1391 69.2243 88.7592 69.2404 88.3803 69.2404Z" fill="#818AAD"/>
<path fill-rule="evenodd" clip-rule="evenodd" d="M23.6144 65.5548C23.9125 65.5548 24.2109 65.5614 24.5087 65.5525C24.7083 65.5465 24.8043 65.5749 24.7465 65.8207C24.582 66.5203 24.4481 67.2268 24.2928 67.9285C24.2089 68.3067 24.1417 68.6884 24.0501 69.066C23.9846 69.3343 23.8126 69.2369 23.6836 69.2326C23.4633 69.2257 23.5639 69.0416 23.5843 68.946C23.7793 68.0453 23.9786 67.145 24.1968 66.2498C24.2517 66.0252 24.179 65.9939 23.9889 65.9991C23.6681 66.0074 23.3465 66.012 23.0257 65.9977C22.8183 65.9885 22.7563 66.0795 22.7169 66.2691C22.5575 67.039 22.3921 67.8078 22.2051 68.5718C22.0707 69.1197 21.7726 69.3234 21.2738 69.2573C21.1951 69.247 21.0615 69.2817 21.0917 69.1289C21.1135 69.0184 21.0868 68.8515 21.2881 68.8733C21.5816 68.9052 21.6968 68.7136 21.7669 68.4807C21.9768 67.7806 22.0874 67.0577 22.2433 66.3449C22.2873 66.1444 22.3284 65.9434 22.3757 65.7438C22.4096 65.6016 22.4981 65.5462 22.6512 65.5514C22.9717 65.5628 23.2933 65.5548 23.6144 65.5548Z" fill="#818AAD"/>
<path fill-rule="evenodd" clip-rule="evenodd" d="M59.6256 65.5548C59.9355 65.5548 60.2454 65.5608 60.555 65.5528C60.7463 65.5476 60.8227 65.5901 60.7733 65.8093C60.5314 66.8782 60.2925 67.948 60.0817 69.0233C60.0289 69.2926 59.8706 69.2524 59.7124 69.2352C59.4685 69.2091 59.5975 69.0158 59.617 68.917C59.7951 68.0218 59.98 67.1275 60.1871 66.2383C60.2351 66.0324 60.1857 65.9939 60.0047 66.0003C59.8215 66.0066 59.6377 66.0014 59.4542 66.0014C58.7339 66.0014 58.7287 66.0218 58.6205 66.7438C58.5191 67.4201 58.3832 68.0916 58.1506 68.7384C57.9941 69.1737 57.7362 69.3225 57.2738 69.2582C57.1793 69.245 57.0814 69.2516 57.1104 69.1108C57.1316 69.0092 57.0874 68.8426 57.2692 68.8685C57.6509 68.9225 57.7546 68.6516 57.8175 68.3851C58.0116 67.5635 58.1948 66.7383 58.3499 65.9083C58.4002 65.6401 58.4852 65.5272 58.7658 65.5496C59.0504 65.5723 59.3387 65.5548 59.6256 65.5548Z" fill="#818AAD"/>
<path fill-rule="evenodd" clip-rule="evenodd" d="M117.927 69.2033C118.094 68.7607 118.095 68.2837 118.236 67.8368C118.308 67.6088 118.266 67.5008 117.993 67.5123C117.545 67.5307 117.097 67.5287 116.649 67.5123C116.429 67.5043 116.345 67.5873 116.309 67.7938C116.237 68.209 116.124 68.6183 116.064 69.0347C116.023 69.3156 115.833 69.2484 115.682 69.2326C115.465 69.2099 115.58 69.0551 115.603 68.9477C115.813 67.9411 116.025 66.935 116.237 65.929C116.254 65.8506 116.274 65.7728 116.294 65.6952C116.354 65.4735 116.531 65.547 116.661 65.5726C116.815 65.603 116.736 65.713 116.712 65.8147C116.63 66.17 116.569 66.5304 116.493 66.8877C116.453 67.0755 116.532 67.1372 116.71 67.1352C117.204 67.1303 117.698 67.13 118.192 67.1338C118.33 67.1349 118.391 67.0913 118.416 66.9439C118.478 66.5717 118.578 66.2061 118.637 65.8337C118.674 65.5959 118.797 65.5123 119.012 65.5582C119.26 65.6114 119.124 65.7845 119.099 65.9095C118.896 66.8931 118.684 67.875 118.483 68.8592C118.398 69.2777 118.406 69.2794 117.927 69.2033Z" fill="#818AAD"/>
<path fill-rule="evenodd" clip-rule="evenodd" d="M71.2452 67.5175C70.3156 67.5181 70.3159 67.5181 70.1395 68.4417C70.1007 68.6442 70.0505 68.8446 70.0183 69.0483C69.9804 69.2901 69.7992 69.2533 69.6478 69.2346C69.4256 69.2076 69.5462 69.0477 69.5671 68.9454C69.7822 67.9058 70.0123 66.8693 70.2148 65.8271C70.2584 65.6019 70.3503 65.533 70.5548 65.5557C70.8268 65.5858 70.6909 65.7852 70.6737 65.8977C70.6232 66.224 70.5519 66.5488 70.464 66.867C70.4095 67.0635 70.4399 67.1404 70.6568 67.1364C71.139 67.1275 71.6214 67.1292 72.1036 67.1361C72.3093 67.1393 72.3819 67.0362 72.4138 66.8498C72.475 66.4902 72.5583 66.135 72.6229 65.7757C72.6568 65.5867 72.7642 65.5364 72.9397 65.5543C73.1775 65.5784 73.0933 65.732 73.0677 65.8584C72.8498 66.9336 72.6255 68.0075 72.4138 69.0839C72.3656 69.3303 72.1895 69.2246 72.0637 69.2349C71.8567 69.2519 71.9276 69.087 71.946 68.994C72.0235 68.602 72.1102 68.2108 72.2042 67.8222C72.2553 67.6106 72.228 67.494 71.9689 67.5132C71.7286 67.5316 71.4865 67.5175 71.2452 67.5175Z" fill="#818AAD"/>
<path fill-rule="evenodd" clip-rule="evenodd" d="M83.2815 69.2148C83.5282 68.0565 83.7787 66.9192 84.0073 65.7774C84.0544 65.5424 84.1922 65.5416 84.3551 65.5591C84.5702 65.5821 84.476 65.7564 84.4593 65.854C84.3996 66.209 84.2864 66.5525 84.2333 66.9112C84.2057 67.0967 84.258 67.1352 84.4188 67.1344C84.9128 67.1315 85.4068 67.1283 85.9007 67.1364C86.1018 67.1398 86.1503 67.0221 86.1805 66.8609C86.2462 66.512 86.3235 66.1651 86.3855 65.8153C86.4234 65.603 86.54 65.5195 86.7462 65.5574C86.984 65.601 86.8654 65.7713 86.8427 65.8839C86.6305 66.9356 86.4002 67.9842 86.1971 69.0373C86.1489 69.2883 85.9944 69.2424 85.8436 69.2366C85.6066 69.2283 85.7209 69.0476 85.7379 68.9546C85.8065 68.5729 85.8958 68.1947 85.9829 67.8164C86.0314 67.6051 85.9944 67.5005 85.7379 67.5114C85.2792 67.531 84.8192 67.5249 84.3596 67.5132C84.1761 67.5083 84.098 67.5669 84.0638 67.751C83.9926 68.1323 83.8918 68.5083 83.8108 68.888C83.7316 69.2584 83.7359 69.2593 83.2815 69.2148Z" fill="#818AAD"/>
<path fill-rule="evenodd" clip-rule="evenodd" d="M47.3349 67.3828C47.9624 67.8507 48.0391 68.581 48.3498 69.193C47.8806 69.2815 47.8785 69.2823 47.7094 68.9021C47.5793 68.6094 47.4598 68.3125 47.326 68.0224C47.2789 67.9204 47.2151 67.8199 47.137 67.7404C47.0264 67.6272 46.9015 67.4842 46.7269 67.5379C46.558 67.5899 46.5879 67.7725 46.5586 67.9144C46.4825 68.2829 46.3748 68.6462 46.3194 69.0175C46.276 69.3053 46.0799 69.2642 45.9167 69.2303C45.7257 69.1907 45.8392 69.0345 45.8622 68.9294C46.0893 67.8805 46.3317 66.8346 46.5422 65.7823C46.5942 65.5221 46.7461 65.5321 46.9113 65.5617C47.11 65.5976 47.0144 65.7553 46.9926 65.8667C46.9248 66.2134 46.8481 66.5583 46.778 66.9044C46.7602 66.9911 46.7077 67.1022 46.7998 67.1591C46.9007 67.2211 47.0262 67.193 47.1255 67.1301C47.4466 66.927 47.6327 66.6094 47.8039 66.2866C47.9908 65.9339 48.2091 65.6212 48.6365 65.5577C48.7559 65.5396 48.9458 65.4793 48.9799 65.6706C49.0107 65.8417 48.9403 65.9457 48.7111 65.9598C48.345 65.9822 48.2591 66.3509 48.1046 66.5999C47.9084 66.9173 47.7097 67.2134 47.3349 67.3828Z" fill="#818AAD"/>
<path fill-rule="evenodd" clip-rule="evenodd" d="M110.882 67.3791C111.518 67.8348 111.491 68.5904 110.86 69.039C110.384 69.3776 109.869 69.3515 109.359 69.1826C109.028 69.0724 108.851 68.7737 108.74 68.4483C108.696 68.3193 108.695 68.2317 108.865 68.1711C109.045 68.1074 109.065 68.1789 109.121 68.3179C109.344 68.8822 109.9 69.0778 110.45 68.8021C110.761 68.6462 110.919 68.3587 110.867 68.0482C110.806 67.6798 110.523 67.5933 110.218 67.5479C110.085 67.5281 109.947 67.5445 109.814 67.5445C109.787 67.2323 109.895 67.1051 110.199 67.1281C110.466 67.1482 110.721 67.0755 110.927 66.8822C111.11 66.711 111.137 66.4934 111.063 66.2805C110.992 66.0778 110.827 65.9414 110.6 65.9213C110.198 65.8854 109.845 66.0249 109.683 66.3885C109.53 66.7314 109.359 66.6892 109.115 66.5465C109.315 65.8569 109.966 65.4859 110.567 65.5269C110.999 65.5568 111.454 65.8561 111.548 66.2059C111.669 66.6562 111.497 67.0028 111.019 67.2774C110.979 67.2998 110.945 67.3314 110.882 67.3791Z" fill="#818AAD"/>
<path fill-rule="evenodd" clip-rule="evenodd" d="M35.6576 67.7099C35.6113 66.8566 36.122 65.8968 37.0232 65.5918C37.7642 65.3408 38.6958 65.7262 38.8368 66.4049C38.8572 66.504 38.9399 66.6507 38.7472 66.6708C38.6364 66.6823 38.5155 66.7334 38.4276 66.5657C38.0404 65.8259 37.3787 65.6989 36.7236 66.2222C36.2228 66.622 35.968 67.6504 36.1702 68.23C36.3302 68.6886 36.6536 68.9115 37.0858 68.9264C37.514 68.9411 37.8704 68.7288 38.0982 68.3363C38.1921 68.1746 38.228 67.9284 38.5289 68.0066C38.6674 68.0422 38.6886 68.0873 38.6545 68.2156C38.4876 68.8394 37.6185 69.3951 36.9637 69.2897C36.0045 69.1346 35.6576 68.7151 35.6576 67.7099Z" fill="#818AAD"/>
<path fill-rule="evenodd" clip-rule="evenodd" d="M40.9106 65.5539C41.3007 65.5539 41.6904 65.5548 42.0804 65.5533C42.2016 65.5528 42.3182 65.5473 42.2978 65.7265C42.2826 65.8618 42.3035 66.0103 42.0904 66.0031C41.8501 65.995 41.6071 66.0203 41.3684 65.9971C41.1441 65.9752 41.041 66.049 40.9974 66.2702C40.832 67.1096 40.6637 67.9485 40.475 68.7828C40.4305 68.9799 40.4747 69.2923 40.0913 69.2464C39.9448 69.2289 39.9129 69.1674 39.9379 69.0505C40.1114 68.2375 40.265 67.4192 40.4715 66.6148C40.6203 66.0353 40.6235 66.0028 40.0379 66.0025C39.9118 66.0025 39.784 66.014 39.6602 65.9979C39.5677 65.9861 39.3986 66.0786 39.4098 65.8741C39.4187 65.7136 39.4376 65.5482 39.6726 65.5522C40.085 65.5594 40.4979 65.5542 40.9106 65.5539Z" fill="#818AAD"/>
<path fill-rule="evenodd" clip-rule="evenodd" d="M93.1423 66.0023C92.5472 66.0026 92.5599 66.0051 92.4418 66.5792C92.2807 67.3624 92.09 68.1387 91.9571 68.9276C91.9364 69.0514 91.9441 69.2582 91.6877 69.2481C91.4749 69.2398 91.4108 69.2028 91.4608 68.9727C91.6598 68.0577 91.833 67.1373 92.0289 66.2217C92.0671 66.043 92.022 65.9954 91.8528 66.0005C91.6233 66.0077 91.393 66.0112 91.1644 65.9974C91.0757 65.9922 90.9008 66.0838 90.9246 65.8696C90.9415 65.7174 90.9312 65.5451 91.1814 65.5508C91.7437 65.5634 92.3066 65.5545 92.8692 65.5542C93.0875 65.5542 93.3057 65.5528 93.5237 65.5548C93.6567 65.556 93.8037 65.5155 93.7876 65.7515C93.7747 65.942 93.7164 66.0229 93.5217 66.0046C93.3959 65.9922 93.2687 66.002 93.1423 66.0023Z" fill="#818AAD"/>
<path fill-rule="evenodd" clip-rule="evenodd" d="M75.1867 65.5534C75.5879 65.5528 75.9894 65.5531 76.3906 65.5528C76.4988 65.5525 76.6175 65.5534 76.591 65.7073C76.5704 65.8279 76.612 66.006 76.3929 66.0025C76.1982 65.9994 76.0032 66.0028 75.8081 66.0028C75.3274 66.0028 75.3366 66.0134 75.2398 66.5094C75.0735 67.361 74.8684 68.2047 74.7108 69.058C74.6602 69.3308 74.4891 69.2398 74.3567 69.2346C74.1301 69.2263 74.2398 69.0646 74.2622 68.9563C74.4489 68.0522 74.6292 67.1464 74.8343 66.2464C74.8874 66.0132 74.8018 65.9945 74.6194 66.0011C74.3906 66.0088 74.1602 66.012 73.9319 65.9971C73.8561 65.9919 73.6907 66.085 73.7119 65.8928C73.728 65.7484 73.6953 65.5496 73.948 65.5522C74.361 65.5571 74.7737 65.5536 75.1867 65.5534Z" fill="#818AAD"/>
<path fill-rule="evenodd" clip-rule="evenodd" d="M105.018 65.5539C105.305 65.5539 105.591 65.5522 105.878 65.5548C105.998 65.5556 106.147 65.518 106.131 65.7282C106.118 65.8914 106.088 66.0111 105.874 66.006C105.404 65.9939 104.935 66.008 104.465 65.9996C104.292 65.9965 104.19 66.035 104.15 66.2248C103.961 67.1504 103.747 68.0712 103.572 68.9994C103.525 69.2489 103.397 69.2573 103.216 69.2392C102.959 69.213 103.094 69.0246 103.114 68.9261C103.326 67.8756 103.555 66.8282 103.772 65.7788C103.807 65.6099 103.893 65.5502 104.055 65.553C104.376 65.5579 104.697 65.5542 105.018 65.5539Z" fill="#818AAD"/>
<path fill-rule="evenodd" clip-rule="evenodd" d="M30.9671 66.0029C30.7836 66.0031 30.5964 66.0267 30.4174 65.9977C30.0854 65.944 30.0004 66.114 29.9453 66.3986C29.7764 67.2705 29.5751 68.1367 29.4031 69.008C29.3666 69.1936 29.2991 69.251 29.115 69.2467C28.9226 69.2418 28.8904 69.191 28.9318 69.0014C29.1532 67.9876 29.366 66.9718 29.5628 65.9532C29.6208 65.6533 29.7385 65.529 30.0613 65.5454C30.6104 65.5735 31.1619 65.5488 31.7124 65.5571C31.8167 65.5588 32.0039 65.4744 31.9941 65.6898C31.9864 65.8618 31.9404 66.0284 31.6891 66.0069C31.4502 65.9868 31.2081 66.0026 30.9671 66.0029Z" fill="#818AAD"/>
<path fill-rule="evenodd" clip-rule="evenodd" d="M94.3054 68.1522C94.1685 68.1522 94.0315 68.1573 93.8948 68.1507C93.7905 68.1456 93.6268 68.1881 93.6481 68.0109C93.6644 67.8733 93.6616 67.686 93.9146 67.7056C94.2207 67.7288 94.5303 67.7119 94.8382 67.7107C94.9467 67.7105 95.053 67.707 95.0274 67.8673C95.0088 67.9853 95.0386 68.1387 94.8528 68.1458C94.6705 68.1527 94.4878 68.1476 94.3057 68.1476C94.3054 68.1487 94.3054 68.1504 94.3054 68.1522Z" fill="#818AAD"/>
<path fill-rule="evenodd" clip-rule="evenodd" d="M57.9926 33.6892C59.3269 33.7687 60.6627 33.7469 61.9984 33.7504C62.6512 33.7518 63.2997 33.6108 63.9551 33.6883C63.6696 33.7857 63.3709 33.7957 63.0754 33.8029C61.6397 33.8377 60.204 33.838 58.7684 33.8052C58.505 33.7992 58.2437 33.7782 57.9926 33.6892Z" fill="#818AAD"/>
<path fill-rule="evenodd" clip-rule="evenodd" d="M57.1454 65.8346C57.1954 65.6111 57.142 65.5482 56.9214 65.5522C56.3824 65.562 55.8427 65.5554 55.3034 65.5554C54.8134 65.5554 54.8129 65.5554 54.7164 66.0402C54.569 66.7794 54.4082 67.5152 54.092 68.2048C53.9938 68.4193 53.918 68.7177 53.698 68.7734C53.374 68.8555 53.335 69.0497 53.2942 69.3087C53.2571 69.5445 53.1776 69.774 53.1167 70.0063C53.2545 70.0063 53.3924 70.0063 53.5302 70.0063C53.6888 69.9262 53.6905 69.7671 53.7186 69.6238C53.7511 69.4581 53.8304 69.3533 54.0139 69.3518C54.6661 69.3472 55.3183 69.3475 55.9708 69.3515C56.1543 69.353 56.2144 69.4397 56.1675 69.616C56.1316 69.7507 56.1136 69.8877 56.2184 70.0063C56.3562 70.0063 56.4941 70.0063 56.6319 70.0063C56.5739 69.6861 56.7517 69.4064 56.7899 69.1025C56.8025 69.0014 56.8654 68.8745 56.7155 68.8512C56.4559 68.8107 56.5581 68.6413 56.5837 68.5144C56.7646 67.6198 56.9467 66.7249 57.1454 65.8346ZM56.0937 68.587C56.0532 68.8064 55.9642 68.8443 55.7807 68.8369C55.5751 68.8288 55.3686 68.8349 55.1624 68.8349C54.9447 68.8349 54.7261 68.8225 54.5099 68.838C54.1928 68.8604 54.3019 68.6723 54.3732 68.548C54.7238 67.936 54.8737 67.255 55.0633 66.589C55.2293 66.0054 55.2149 66.0011 55.8393 66.0011C55.9309 66.0011 56.0225 66.0011 56.1141 66.0011C56.6561 66.0017 56.6592 66.0023 56.5458 66.5207C56.3947 67.2094 56.2221 67.894 56.0937 68.587Z" fill="#818AAD"/>
<path fill-rule="evenodd" clip-rule="evenodd" d="M20.7224 49.4409C20.548 48.4386 20.1997 47.5293 19.399 46.845C18.5928 46.1563 17.6115 45.9142 16.6051 45.8875C14.4943 45.8315 12.3811 45.861 10.2688 45.8513C10.1028 45.8504 10.0186 45.9078 9.98417 46.0741C9.7616 47.1474 9.53156 48.2195 9.30582 49.2924C8.91064 51.1721 8.52006 53.0527 8.12115 54.9315C7.85319 56.194 7.57261 57.4536 7.3015 58.7158C7.2116 59.1337 7.21763 59.1357 7.63234 59.1357C8.71162 59.136 9.7906 59.1357 10.8699 59.1357C10.8699 59.1343 10.8699 59.1328 10.8699 59.1314C11.7194 59.1314 12.5692 59.1389 13.4184 59.1294C14.6304 59.1162 15.8171 58.9421 16.9093 58.391C19.2588 57.2061 20.3588 55.1736 20.7198 52.6598C20.8737 51.5874 20.909 50.5144 20.7224 49.4409ZM16.4455 48.9455C16.3737 50.1353 16.2246 51.3143 15.9994 52.4872C15.809 53.4768 15.5738 54.4507 15.2025 55.387C14.9162 56.109 14.5546 56.7862 13.9495 57.3066C13.4207 57.7609 12.7903 57.661 12.1775 57.6538C12.0422 57.6521 12.0827 57.5225 12.1011 57.4367C12.3489 56.2744 12.5982 55.1124 12.8472 53.9504C13.1559 52.5084 13.4632 51.0664 13.7734 49.625C13.9245 48.9225 14.0902 48.2229 14.2309 47.5184C14.2711 47.3168 14.3578 47.2496 14.5523 47.2591C14.8846 47.2755 15.22 47.2534 15.5494 47.2895C16.0575 47.3455 16.3998 47.7123 16.442 48.2226C16.4618 48.4624 16.4455 48.7045 16.4455 48.9455Z" fill="#818AAD"/>
<path fill-rule="evenodd" clip-rule="evenodd" d="M32.4574 53.3235C32.4183 52.8195 32.3227 52.3238 32.1153 51.8562C31.5987 50.6902 30.5826 50.225 29.4281 50.0524C27.7707 49.8048 26.1167 49.8209 24.5099 50.4142C23.389 50.8281 22.5541 51.5639 21.98 52.5992C21.3614 53.7149 21.2212 54.9194 21.4073 56.1604C21.623 57.5998 22.401 58.5797 23.8298 59.0062C24.6104 59.2394 25.4076 59.2799 26.2121 59.2802C26.9473 59.2796 27.6799 59.2515 28.4002 59.0846C29.7483 58.7724 30.9117 58.1719 31.6578 56.9473C32.3371 55.8333 32.5573 54.6104 32.4574 53.3235ZM28.2299 52.7261C28.1423 54.0762 28.0119 55.4197 27.4832 56.686C27.3425 57.0228 27.1618 57.3416 26.8936 57.5964C26.6555 57.8224 26.3706 57.9376 26.0429 57.8345C25.7141 57.7311 25.6236 57.4378 25.5561 57.144C25.4171 56.5378 25.5087 55.9283 25.5868 55.3284C25.7052 54.4217 25.8709 53.5188 26.2445 52.6742C26.424 52.2683 26.6139 51.8608 26.9711 51.5705C27.2342 51.3568 27.536 51.2428 27.8637 51.3812C28.1736 51.5119 28.1997 51.8218 28.2259 52.1067C28.2451 52.3114 28.2299 52.5196 28.2299 52.7261Z" fill="#818AAD"/>
<path fill-rule="evenodd" clip-rule="evenodd" d="M95.0094 50.4708C94.3715 50.1483 93.6753 49.9978 92.9634 49.9596C91.76 49.8947 90.5616 49.8847 89.3683 50.14C88.6586 50.2916 87.9852 50.526 87.322 50.8045C87.2129 50.8505 87.0874 50.9031 87.057 51.0478C86.9559 51.5297 86.8545 52.011 86.7531 52.4927C86.7103 52.696 86.7738 52.777 86.9992 52.7738C87.8258 52.7615 88.6526 52.7638 89.4791 52.7721C89.6917 52.7744 89.7615 52.6954 89.8175 52.4884C90.0527 51.6139 90.5782 51.25 91.4548 51.3123C91.9596 51.3482 92.2285 51.6018 92.2744 52.1078C92.3117 52.5208 92.2681 52.9301 92.2035 53.3402C92.169 53.5605 92.0728 53.6259 91.866 53.6285C91.2922 53.6348 90.7187 53.657 90.1449 53.6705C89.1072 53.6954 88.0877 53.8422 87.1265 54.2425C86.2201 54.6199 85.544 55.219 85.3602 56.2581C85.127 57.5763 85.7192 58.7116 86.9438 59.128C87.6882 59.3813 88.461 59.3402 89.2115 59.1159C89.9542 58.8936 90.6193 58.5235 91.1615 57.9577C91.3818 57.7279 91.474 57.7621 91.5286 58.0803C91.5768 58.36 91.7046 58.6248 91.7672 58.9031C91.8092 59.0904 91.9034 59.1403 92.078 59.1378C92.5484 59.1309 93.0191 59.1355 93.4898 59.1355C93.9493 59.1358 94.4086 59.1254 94.8675 59.1401C95.0972 59.1475 95.2069 59.0953 95.2578 58.8414C95.4806 57.7328 95.7354 56.6303 95.9703 55.5234C96.163 54.6156 96.3569 53.7078 96.3379 52.7704C96.3178 51.7569 95.9419 50.9424 95.0094 50.4708ZM91.858 54.8672C91.7388 55.3905 91.6348 55.9175 91.5059 56.4387C91.3565 57.0401 90.287 57.5662 89.8203 57.2839C89.3646 57.0085 89.1517 56.4356 89.368 55.8606C89.7184 54.9287 90.4527 54.634 91.4123 54.6081C91.4562 54.6081 91.5492 54.617 91.6394 54.6064C91.8511 54.582 91.9011 54.6768 91.858 54.8672Z" fill="#818AAD"/>
<path fill-rule="evenodd" clip-rule="evenodd" d="M62.0708 52.5018C62.0139 51.872 61.8103 51.3042 61.3175 50.8637C60.756 50.362 60.0676 50.1641 59.3583 50.0406C58.2887 49.8545 57.2063 49.8838 56.1311 49.9748C55.1012 50.0624 54.1109 50.3398 53.1621 50.7548C52.9854 50.8324 52.8504 50.9183 52.7953 51.1532C52.6933 51.5877 52.6325 52.0311 52.5127 52.4599C52.4403 52.7192 52.5242 52.7767 52.7695 52.7732C53.5615 52.7623 54.3539 52.7572 55.1457 52.7752C55.4157 52.7813 55.5297 52.6879 55.5949 52.4329C55.8123 51.582 56.4702 51.1698 57.3272 51.3241C57.6305 51.3786 57.8496 51.5297 57.9611 51.8318C58.1687 52.395 58.0099 52.9395 57.8944 53.4878C57.8608 53.6463 57.7325 53.6228 57.6207 53.6253C57.0354 53.6414 56.4501 53.6546 55.8651 53.6713C54.851 53.7009 53.8539 53.8402 52.911 54.2273C51.8852 54.6483 51.1592 55.3304 51.079 56.5191C51.0164 57.445 51.2488 58.2558 52.0463 58.8046C52.9386 59.4183 53.9291 59.3824 54.9194 59.1222C55.6698 58.9246 56.3269 58.5412 56.8755 57.9783C57.1176 57.7299 57.1925 57.7543 57.2907 58.0878C57.3648 58.3399 57.4234 58.5967 57.4878 58.8517C57.5392 59.0556 57.6486 59.1507 57.8781 59.1418C58.3367 59.1234 58.7965 59.1363 59.2557 59.136C59.692 59.136 60.1291 59.1191 60.5642 59.142C60.8479 59.157 60.9668 59.0642 61.0237 58.779C61.2626 57.5797 61.5251 56.3853 61.781 55.1894C61.9697 54.3031 62.1532 53.4151 62.0708 52.5018ZM57.5535 55.1687C57.3976 55.6452 57.4016 56.1593 57.1684 56.6193C56.947 57.0559 56.0064 57.5763 55.5297 57.269C55.2273 57.074 55.0742 56.8379 55.0481 56.4979C54.9737 55.5289 55.6994 54.7299 56.7428 54.6314C56.8683 54.6196 56.9946 54.6173 57.0662 54.6133C57.6905 54.5949 57.7293 54.6317 57.5535 55.1687Z" fill="#818AAD"/>
<path fill-rule="evenodd" clip-rule="evenodd" d="M125.971 67.1864C126.286 66.9698 126.414 66.6605 126.361 66.2949C126.311 65.9394 126.028 65.7231 125.623 65.6315C125.181 65.5324 124.735 65.568 124.29 65.552C124.088 65.5445 123.997 65.6327 123.959 65.8173C123.737 66.8917 123.512 67.9661 123.285 69.0399C123.253 69.1893 123.294 69.2476 123.454 69.2421C123.741 69.2326 124.028 69.2395 124.375 69.2395C124.809 69.2033 125.318 69.338 125.78 69.0101C126.348 68.6063 126.423 67.9118 125.903 67.4546C125.723 67.2972 125.871 67.255 125.971 67.1864ZM124.187 66.9503C124.211 66.828 124.26 66.7114 124.289 66.5899C124.432 66.0003 124.431 66 125.027 66.0037C125.153 66.0037 125.278 66.0083 125.404 66.0028C125.634 65.9928 125.831 66.0758 125.887 66.2984C125.948 66.5416 125.951 66.7955 125.693 66.9713C125.243 67.2774 124.742 67.1355 124.259 67.1476C124.159 67.1502 124.172 67.0232 124.187 66.9503ZM125.266 68.7866C125.019 68.8544 124.765 68.8352 124.513 68.8363C123.805 68.8366 123.805 68.8366 123.947 68.141C124.07 67.5436 124.07 67.5434 124.683 67.5436C124.856 67.5439 125.029 67.5319 125.2 67.5497C125.571 67.5884 125.805 67.7969 125.815 68.0767C125.824 68.3713 125.568 68.7039 125.266 68.7866Z" fill="#818AAD"/>
<path fill-rule="evenodd" clip-rule="evenodd" d="M64.0117 65.5511C63.4284 65.568 62.8457 65.543 62.2638 65.6364C61.6572 65.734 61.3301 66.023 61.2713 66.5847C61.2178 67.0942 61.4128 67.3607 62.051 67.5965C61.4754 68.004 61.1325 68.5718 60.6831 69.0411C60.5676 69.1614 60.5745 69.2364 60.6567 69.2343C60.8847 69.2295 61.1259 69.3113 61.3115 69.062C61.5694 68.716 61.8678 68.3998 62.1435 68.0663C62.3896 67.7691 62.6716 67.5959 63.0872 67.6218C63.3577 67.6384 63.4272 67.6964 63.3531 67.9566C63.2592 68.2863 63.1866 68.6226 63.1211 68.9592C63.1021 69.0574 62.9941 69.2295 63.2288 69.2375C63.3824 69.2424 63.5286 69.2777 63.5783 69.0299C63.7891 67.9767 64.0234 66.9285 64.2604 65.8808C64.3135 65.647 64.2825 65.543 64.0117 65.5511ZM63.607 66.7099C63.5079 67.2326 63.5079 67.2332 62.9847 67.2326C62.7563 67.2323 62.5266 67.2432 62.2997 67.2226C61.916 67.1875 61.7167 66.998 61.7121 66.6941C61.7069 66.3722 61.9444 66.0818 62.2865 66.0321C62.5226 65.998 62.7644 66.0031 63.0036 65.9908C63.7411 66.0011 63.7411 66.0011 63.607 66.7099Z" fill="#818AAD"/>
<path fill-rule="evenodd" clip-rule="evenodd" d="M27.0392 65.5301C26.8896 65.5413 26.7124 65.537 26.5314 65.5999C25.3686 66.0049 25.0104 67.1447 25.2 68.1447C25.3439 68.9047 26.0642 69.3435 26.8267 69.2895C27.9036 69.2131 28.6302 68.1944 28.6219 67.1473C28.6144 66.1803 28.0133 65.5241 27.0392 65.5301ZM27.4378 68.672C27.0877 68.9288 26.6796 69.0144 26.2448 68.8159C25.7882 68.6071 25.6167 68.214 25.6104 67.7702C25.6026 67.2297 25.7233 66.7073 26.1475 66.3073C26.5409 65.9368 27.0653 65.8133 27.5019 66.004C27.9283 66.1901 28.1437 66.5726 28.1469 67.2676C28.1285 67.7579 27.9393 68.3044 27.4378 68.672Z" fill="#818AAD"/>
<path fill-rule="evenodd" clip-rule="evenodd" d="M121.347 65.5338C121.236 65.5436 121.061 65.5459 120.879 65.6071C119.819 65.9632 119.426 66.9709 119.528 67.958C119.657 69.2027 120.919 69.5867 121.851 69.0982C122.707 68.6493 122.99 67.8839 122.951 66.9459C122.918 66.1361 122.228 65.487 121.347 65.5338ZM121.54 68.811C120.907 69.1039 120.176 68.7923 120.019 68.1263C119.854 67.431 119.991 66.7891 120.546 66.2831C120.933 65.9296 121.376 65.7957 121.869 66.0134C122.361 66.2303 122.496 66.6674 122.511 67.2251C122.436 67.8607 122.239 68.487 121.54 68.811Z" fill="#818AAD"/>
<path fill-rule="evenodd" clip-rule="evenodd" d="M82.4754 65.6306C81.965 65.5051 81.4472 65.5936 80.936 65.549C80.6267 65.5218 80.5382 65.682 80.4891 65.9319C80.293 66.9296 80.0916 67.9259 79.8966 68.9236C79.8765 69.0281 79.7462 69.1818 79.94 69.2291C80.0888 69.2653 80.2597 69.3004 80.3289 69.0396C80.3786 68.8529 80.4064 68.6616 80.4498 68.475C80.6207 67.7383 80.6109 67.736 81.3665 67.7194C81.5845 67.7194 81.8039 67.7375 82.0199 67.7159C82.7166 67.647 83.204 67.0801 83.1554 66.4141C83.1238 65.9818 82.8941 65.7334 82.4754 65.6306ZM82.1727 67.2639C81.8668 67.3739 81.5443 67.371 81.2235 67.3696C80.6198 67.3667 80.6192 67.3684 80.7867 66.7897C80.8088 66.7139 80.851 66.6438 80.8685 66.5677C81.0084 65.9557 81.0072 65.9557 81.6261 65.9571C81.7519 65.9571 81.8794 65.9451 82.0035 65.9597C82.2947 65.9933 82.6227 65.9841 82.6813 66.3853C82.7361 66.759 82.5187 67.1395 82.1727 67.2639Z" fill="#818AAD"/>
<path fill-rule="evenodd" clip-rule="evenodd" d="M51.7048 68.9026C51.5483 67.9227 51.38 66.9445 51.2111 65.9664C51.1844 65.8116 51.2591 65.5947 51.0047 65.5577C50.762 65.5221 50.5799 65.5738 50.4466 65.8268C50.1181 66.4497 49.7539 67.0537 49.4084 67.668C49.1244 68.1726 48.8464 68.6806 48.5566 69.2042C48.9524 69.3415 49.1459 69.1511 49.2513 68.8575C49.4423 68.3251 49.7858 68.0971 50.3579 68.2004C50.6026 68.2447 50.9242 68.1347 51.0905 68.2573C51.2333 68.363 51.2045 68.7004 51.2519 68.9351C51.2542 68.9463 51.2617 68.9563 51.2631 68.9675C51.2907 69.1571 51.3611 69.2803 51.592 69.2427C51.8619 69.199 51.7229 69.0155 51.7048 68.9026ZM50.787 67.8512C50.7077 67.8423 50.6264 67.8501 50.546 67.8501C49.7924 67.8506 49.7933 67.8512 50.1589 67.2059C50.3697 66.834 50.577 66.4601 50.8007 66.0611C50.886 66.5904 50.9639 67.0821 51.0457 67.5732C51.0808 67.7832 51.0041 67.8765 50.787 67.8512Z" fill="#818AAD"/>
<path fill-rule="evenodd" clip-rule="evenodd" d="M102.522 68.9799C102.356 67.9538 102.183 66.9288 102.005 65.9049C101.98 65.759 102.005 65.5646 101.762 65.5545C101.546 65.5453 101.364 65.5534 101.261 65.8035C101.171 66.0238 101.026 66.2211 100.908 66.4299C100.386 67.3506 99.8638 68.2714 99.3242 69.224C99.8316 69.2542 99.8601 69.2659 100.037 68.8374C100.243 68.3415 100.546 68.1531 101.101 68.1916C101.941 68.249 101.959 68.2048 102.051 69.0213C102.081 69.28 102.223 69.2338 102.377 69.2415C102.606 69.2522 102.538 69.0804 102.522 68.9799ZM101.675 67.8492C101.401 67.8515 101.127 67.8463 100.854 67.8512C100.652 67.855 100.653 67.7731 100.735 67.6243C101.003 67.139 101.264 66.6496 101.528 66.162C101.558 66.1602 101.587 66.1588 101.616 66.1574C101.689 66.6809 101.764 67.2045 101.835 67.7286C101.85 67.8475 101.755 67.8486 101.675 67.8492Z" fill="#818AAD"/>
<path fill-rule="evenodd" clip-rule="evenodd" d="M108.33 68.9759C108.176 67.971 108.01 66.9681 107.848 65.9646C107.822 65.8038 107.881 65.5944 107.634 65.5591C107.391 65.5244 107.207 65.5775 107.075 65.8334C106.783 66.3989 106.451 66.9437 106.14 67.4991C105.823 68.0634 105.511 68.6301 105.193 69.2025C105.553 69.3142 105.747 69.1947 105.867 68.8914C106.048 68.4348 106.286 68.0698 106.89 68.1979C107.154 68.2536 107.491 68.1229 107.698 68.2429C107.92 68.3707 107.837 68.7395 107.895 69.0017C107.897 69.0129 107.902 69.0238 107.903 69.035C107.913 69.2846 108.097 69.2513 108.252 69.2366C108.462 69.2168 108.342 69.0548 108.33 68.9759ZM107.486 67.8526C107.292 67.8446 107.097 67.8509 106.903 67.8509C106.438 67.8506 106.438 67.8506 106.658 67.4546C106.909 67.0031 107.16 66.5514 107.454 66.0218C107.55 66.6117 107.557 67.1237 107.682 67.6186C107.719 67.7642 107.662 67.8601 107.486 67.8526Z" fill="#818AAD"/>
</svg>
