<svg width="152" height="80" viewBox="0 0 152 80" fill="none" xmlns="http://www.w3.org/2000/svg">
<path fill-rule="evenodd" clip-rule="evenodd" d="M146.363 23.245C146.363 23.245 143.746 22.9312 140.654 22.9312C137.642 22.9312 135.105 23.245 135.105 23.245V33.0508H146.363V23.245Z" fill="#818AAD"/>
<path fill-rule="evenodd" clip-rule="evenodd" d="M146.363 46.3867H135.105V56.3493C135.105 56.3493 138.276 56.663 140.813 56.663C143.35 56.663 146.363 56.2709 146.363 56.2709V46.3867Z" fill="#818AAD"/>
<path fill-rule="evenodd" clip-rule="evenodd" d="M128.365 23.2455H114.49L104.818 35.2477H100.299V23.2455H88.3278V56.4282H100.299V43.9553H104.66L114.411 56.4282H129.237L114.729 38.7778L128.365 23.2455Z" fill="#818AAD"/>
<path fill-rule="evenodd" clip-rule="evenodd" d="M43.4546 23.2455H5.6375V56.4282H17.7676V32.659H31.3246V56.4282H43.4546V23.2455Z" fill="#818AAD"/>
<path fill-rule="evenodd" clip-rule="evenodd" d="M49.3215 32.0314L47.5773 23.2455C47.5773 23.2455 58.9145 22.3826 65.9705 22.3826C73.0266 22.3826 81.5097 23.2455 81.5097 23.2455C81.5097 23.2455 84.126 29.9918 84.126 39.4839C84.126 48.9758 81.4304 56.4282 81.4304 56.4282C81.4304 56.4282 73.3438 57.2911 65.8913 57.2911C58.4388 57.2911 47.5773 56.4282 47.5773 56.4282L49.3215 47.6422C49.3215 47.6422 56.9325 48.1914 63.4336 48.1914C69.9346 48.1914 72.4716 47.6422 72.4716 47.6422C72.4716 47.6422 72.7888 45.9949 72.9474 44.1121H57.4082V35.64H73.0266C72.868 33.4435 72.5509 32.1099 72.5509 32.1099C72.5509 32.1099 67.239 31.5608 62.72 31.5608C58.1218 31.4823 49.3215 32.0314 49.3215 32.0314Z" fill="#818AAD"/>
</svg>
