<svg width="152" height="80" viewBox="0 0 152 80" fill="none" xmlns="http://www.w3.org/2000/svg">
<path d="M45.6028 35.7665C50.3475 35.7665 53.4176 38.4558 53.4176 42.4396C53.4176 46.4487 50.3475 49.1127 45.6028 49.1127H42.6088V53.5275H39.8683V35.7665H45.6028ZM45.7803 46.5497C48.4443 46.5497 50.8296 45.3572 50.8296 42.4396C50.8296 39.6233 48.4443 38.3545 45.7803 38.3545H42.6088V46.55H45.7803V46.5497Z" fill="#818AAD"/>
<path d="M55.7012 38.1259C55.7012 37.365 56.3611 36.7812 57.2236 36.7812C58.0612 36.7812 58.7205 37.365 58.7205 38.1259C58.7205 38.8871 58.0612 39.4962 57.2236 39.4962C56.3611 39.4964 55.7012 38.8871 55.7012 38.1259ZM55.9295 40.8414H58.4672V53.5278H55.9295V40.8414Z" fill="#818AAD"/>
<path d="M72.5994 43.0231L71.077 44.6724C70.0367 43.5813 68.9206 43.1241 67.6009 43.1241C65.495 43.1241 63.6429 44.7735 63.6429 47.1837C63.6429 49.5943 65.495 51.243 67.6009 51.243C68.9206 51.243 70.0367 50.7612 71.077 49.6956L72.5994 51.3447C71.4069 52.7657 69.606 53.6785 67.6009 53.6785C63.9981 53.6785 61.1055 50.7862 61.1055 47.1834C61.1055 43.5807 63.9984 40.688 67.6009 40.688C69.6057 40.6886 71.4069 41.6023 72.5994 43.0231Z" fill="#818AAD"/>
<path d="M81.8608 50.2292C80.8966 48.732 80.4397 48.2247 78.9423 48.2247H77.5215V53.5278H74.9843V35.7662H77.5215V45.7633H78.7396C80.262 45.7633 80.693 45.2559 81.6575 43.7335L83.5606 40.8409H86.3772L83.7886 44.7991C83.0785 45.8394 82.4184 46.677 81.7333 46.9555C82.5456 47.2096 83.2307 48.0469 83.9667 49.1889L86.8085 53.5278H83.9919L81.8608 50.2292Z" fill="#818AAD"/>
<path d="M94.7499 35.7665C99.0381 35.7665 102.463 37.9232 102.463 42.1349C102.463 46.3214 99.0381 48.5037 94.7499 48.5037H90.487V53.5278H89.2693V35.7665H94.7499ZM94.8007 47.3617C98.2768 47.3617 101.271 45.8396 101.271 42.1349C101.271 38.4561 98.2768 36.9081 94.8007 36.9081H90.487V47.3617H94.8007Z" fill="#818AAD"/>
<path d="M116.952 47.1843C116.952 50.7874 114.034 53.6797 110.431 53.6797C106.828 53.6797 103.936 50.7871 103.936 47.1843C103.936 43.5816 106.828 40.6637 110.431 40.6637C114.034 40.6634 116.952 43.5816 116.952 47.1843ZM105.103 47.1843C105.103 50.2544 107.513 52.5889 110.456 52.5889C113.375 52.5889 115.81 50.2547 115.81 47.1843C115.81 44.114 113.375 41.7548 110.456 41.7548C107.513 41.7545 105.103 44.114 105.103 47.1843Z" fill="#818AAD"/>
<path d="M119.844 38.3292C119.844 37.9229 120.174 37.5933 120.606 37.5933C121.037 37.5933 121.367 37.9229 121.367 38.3292C121.367 38.71 121.037 39.0396 120.606 39.0396C120.174 39.0396 119.844 38.71 119.844 38.3292ZM120.047 40.8414H121.189V53.5278H120.047V40.8414Z" fill="#818AAD"/>
<path d="M136.743 46.6261V53.5275H135.575V46.677C135.575 43.3275 133.799 41.7545 131.085 41.7545C128.04 41.7545 126.036 43.9365 126.036 47.5648V53.5275H124.894V40.8411H125.781L125.858 44.1651C126.872 41.6276 129.257 40.6634 131.211 40.6634C134.586 40.6634 136.743 42.7948 136.743 46.6261Z" fill="#818AAD"/>
<path d="M142.477 53.5275H141.336V41.9323H139.382V40.8414H141.336V36.5782H142.477V40.8414H144.431V41.9323H142.477V53.5275Z" fill="#818AAD"/>
<path d="M23.2545 40.0106C23.2545 41.4202 22.1108 42.5671 20.6971 42.5671C19.2845 42.5671 18.1382 41.4202 18.1382 40.0106C18.1382 38.5957 19.2845 37.4508 20.6971 37.4508C22.1108 37.4508 23.2545 38.5954 23.2545 40.0106Z" fill="#818AAD"/>
<path d="M20.7447 53.5275C16.9992 53.5275 13.8084 52.2108 11.1748 49.5761C8.54162 46.944 7.22485 43.7549 7.22485 40.0094C7.22485 36.3288 8.54162 33.1547 11.1748 30.488C13.8087 27.8225 16.9992 26.4904 20.7447 26.4904C24.4239 26.4904 27.5815 27.8225 30.2174 30.4877C32.8483 33.1547 34.1674 36.3285 34.1674 40.0094V53.5278H20.7447V53.5275ZM20.7447 33.249C18.8401 33.249 17.2369 33.9153 15.9357 35.2486C14.6342 36.5821 13.9849 38.1682 13.9849 40.0094C13.9849 41.9129 14.6342 43.5158 15.9357 44.817C17.2369 46.1185 18.8401 46.768 20.7447 46.768C22.583 46.768 24.1706 46.1185 25.5027 44.817C26.8373 43.5155 27.5022 41.9126 27.5022 40.0094C27.5022 38.1682 26.8373 36.5821 25.5027 35.2486C24.1706 33.9151 22.583 33.249 20.7447 33.249Z" fill="#818AAD"/>
</svg>
