<svg width="152" height="80" viewBox="0 0 152 80" fill="none" xmlns="http://www.w3.org/2000/svg">
<path d="M21.7274 4.79639H27.9456C31.5729 4.79639 33.2385 6.79511 32.4613 9.68216C31.6099 12.9393 28.3898 14.6049 24.9845 14.6049H22.4306L21.3202 18.8245H17.952L21.7274 4.79639ZM25.8359 11.8659C27.5015 11.8659 28.7229 10.9406 29.056 9.71917C29.4262 8.34967 28.5748 7.60941 26.9092 7.60941H24.3183L23.1709 11.903H25.8359V11.8659Z" fill="#818AAD"/>
<path d="M33.2385 11.7919C34.3119 7.79447 38.6055 4.53729 43.3062 4.53729C48.0069 4.53729 50.5238 7.75746 49.4504 11.7919C48.377 15.7894 44.0835 19.0465 39.3827 19.0465C34.682 19.0465 32.1651 15.8264 33.2385 11.7919ZM45.9341 11.7919C46.5634 9.38605 45.1939 7.38733 42.4919 7.38733C39.7899 7.38733 37.384 9.34904 36.7548 11.7919C36.1256 14.1978 37.4951 16.1965 40.197 16.1965C42.899 16.1965 45.3049 14.2348 45.9341 11.7919Z" fill="#818AAD"/>
<path d="M53.3368 4.79639H56.446L61.2577 13.4205L63.5895 4.79639H66.8837L63.1084 18.7875H60.2583L55.2615 9.90424L52.8927 18.7875H49.5615L53.3368 4.79639Z" fill="#818AAD"/>
<path d="M72.0286 13.2725L68.4383 4.79639H72.3617L74.5085 10.4224L79.7274 4.79639H83.5398L75.3968 13.1984L73.9163 18.7875H70.5481L72.0286 13.2725Z" fill="#818AAD"/>
<path d="M16.7305 23.4882H28.2047L27.4644 26.2272H19.3215L18.5442 29.0772H25.7248L24.9845 31.8162H17.8039L17.0266 34.7772H25.3177L24.5774 37.5162H12.9552L16.7305 23.4882Z" fill="#818AAD"/>
<path d="M32.9795 30.3727L29.7223 23.4882H33.6457L35.6074 28.0408L40.049 23.4882H43.8614L36.9399 30.3356L40.3451 37.5162H36.4217L34.2749 32.7045L29.5372 37.5162H25.7248L32.9795 30.3727Z" fill="#818AAD"/>
<path d="M45.9711 23.4882H52.1894C55.8167 23.4882 57.4823 25.4869 56.705 28.3739C55.8537 31.6311 52.6336 33.2967 49.2283 33.2967H46.6744L45.564 37.5162H42.1958L45.9711 23.4882ZM50.0796 30.5577C51.7452 30.5577 52.9667 29.6324 53.2998 28.4109C53.6699 27.0414 52.8186 26.3012 51.153 26.3012H48.5621L47.4147 30.5947H50.0796V30.5577Z" fill="#818AAD"/>
<path d="M59.8512 23.4882H66.8097C68.7344 23.4882 70.1039 24.0063 70.8812 24.8947C71.5104 25.672 71.6955 26.7824 71.3253 28.1518C70.7331 30.4097 68.9935 31.8532 66.8837 32.4824L69.2526 37.4792H65.3292L63.2564 33.0376H60.6655L59.444 37.5162H56.0758L59.8512 23.4882ZM64.774 30.2986C66.4025 30.2986 67.55 29.4843 67.8831 28.2629C68.2532 26.9304 67.4019 26.2642 65.7733 26.2642H62.4421L61.3687 30.2986H64.774Z" fill="#818AAD"/>
<path d="M74.9897 23.4882H86.5008L85.7606 26.2272H77.5806L76.8033 29.0772H84.0209L83.2807 31.8162H76.0631L75.2858 34.7772H83.5768L82.8365 37.5162H71.2143L74.9897 23.4882Z" fill="#818AAD"/>
<path d="M84.6502 35.4805L87.2041 33.2967C88.3145 34.3331 89.573 34.9993 91.3126 34.9993C92.6821 34.9993 93.6444 34.4811 93.8665 33.6298C94.0886 32.8526 93.6444 32.4454 91.2756 31.8532C88.3885 31.1499 86.6119 30.3356 87.3892 27.5226C88.0554 24.9687 90.7574 23.3031 93.8665 23.3031C96.0873 23.3031 97.827 23.9323 99.0484 25.0797L96.6795 27.4116C95.5691 26.5603 94.3847 26.0421 93.0892 26.0421C91.7938 26.0421 90.9795 26.5973 90.7944 27.3005C90.5353 28.2259 91.1275 28.522 93.6074 29.1512C96.4945 29.8915 97.975 30.9279 97.3088 33.4078C96.5685 36.1838 93.8295 37.7383 90.5353 37.7383C88.2405 37.7383 86.0937 36.961 84.6502 35.4805Z" fill="#818AAD"/>
<path d="M97.7529 35.4805L100.307 33.2967C101.417 34.3331 102.676 34.9993 104.415 34.9993C105.785 34.9993 106.747 34.4811 106.969 33.6298C107.191 32.8526 106.747 32.4454 104.378 31.8532C101.491 31.1499 99.7146 30.3356 100.492 27.5226C101.158 24.9687 103.86 23.3031 106.969 23.3031C109.19 23.3031 110.93 23.9323 112.151 25.0797L109.782 27.4116C108.672 26.5603 107.487 26.0421 106.192 26.0421C104.897 26.0421 104.082 26.5973 103.897 27.3005C103.638 28.2259 104.23 28.522 106.71 29.1512C109.597 29.8915 111.078 30.9279 110.412 33.4078C109.671 36.1838 106.932 37.7383 103.638 37.7383C101.306 37.7383 99.1965 36.961 97.7529 35.4805Z" fill="#818AAD"/>
<path d="M76.5812 46.8436L74.0643 56.208H116.889L104.785 68.3114L111.411 74.8998L139.43 46.8436H76.5812Z" fill="#818AAD"/>
</svg>
