<svg width="152" height="80" viewBox="0 0 152 80" fill="none" xmlns="http://www.w3.org/2000/svg">
<path d="M55.7697 39.5962H56.7677C57.9411 39.6549 59.1171 39.5479 60.2609 39.279C60.8656 39.0759 61.4085 38.7233 61.8398 38.2533C62.2434 37.8297 62.5277 37.3068 62.6657 36.7375C62.7495 36.4383 62.7341 36.1199 62.6199 35.8304C62.5 35.5847 62.2885 35.3952 62.03 35.3043C61.3756 35.1566 60.7038 35.1018 60.0339 35.1412H57.7019L55.7697 39.5962ZM52.0677 48.2433H48.8285L55.5434 32.4913H61.8953C62.8204 32.4333 63.7476 32.5693 64.6173 32.8904C65.2059 33.1444 65.6676 33.6254 65.8964 34.2237C66.1498 34.9355 66.1814 35.7079 65.9874 36.4384C65.801 37.263 65.4729 38.0495 65.0164 38.7613C64.6057 39.4447 64.088 40.0572 63.4832 40.5756C62.981 40.9985 62.4181 41.3441 61.8134 41.6013C61.1055 41.865 60.3679 42.0423 59.6174 42.1274C58.6613 42.2177 57.7013 42.2538 56.7413 42.2364H54.6363L52.0677 48.2433Z" fill="#818AAD"/>
<path d="M69.0995 42.0004C68.8383 42.9224 68.9802 43.9114 69.4895 44.7231C70.0369 45.482 70.944 45.8952 71.8757 45.8114C72.8511 45.7734 73.795 45.4588 74.5977 44.9043C75.6344 44.2202 76.5132 43.3234 77.1747 42.2725C77.8974 41.2352 78.4203 40.0721 78.7175 38.8432C79.0283 37.8613 78.8993 36.7923 78.3636 35.9123C77.7949 35.1998 76.9013 34.8265 75.9955 34.9232C74.2908 34.9838 72.7003 35.7943 71.6487 37.1372C70.3902 38.5131 69.5114 40.192 69.0988 42.0101M65.8687 42.0733C66.1053 41.052 66.4612 40.0624 66.93 39.1249C67.554 37.7936 68.3838 36.5686 69.3889 35.4951C70.3606 34.4938 71.5114 33.6841 72.7828 33.109C74.06 32.5087 75.4552 32.1993 76.8659 32.2018C78.5183 32.069 80.1308 32.7454 81.1939 34.0161C82.1655 35.4274 82.4396 37.2049 81.938 38.8432C81.535 40.5891 80.7755 42.2325 79.7059 43.6703C78.6705 45.1628 77.312 46.4033 75.7318 47.2995C74.2502 48.1215 72.581 48.547 70.886 48.5335C69.6481 48.6018 68.4238 48.2511 67.4109 47.5354C66.6018 46.9307 66.0428 46.0487 65.841 45.0584C65.634 44.0739 65.634 43.0571 65.841 42.0726" fill="#818AAD"/>
<path d="M82.2197 43.1713L85.3318 43.0082C85.139 43.6574 85.1648 44.3524 85.4047 44.9855C85.7554 45.5419 86.569 45.8205 87.845 45.8205C88.6941 45.8753 89.5412 45.676 90.2762 45.2486C90.7804 44.9398 91.1428 44.444 91.2839 43.8695C91.3865 43.4414 91.2511 42.9907 90.93 42.6896C90.3246 42.2164 89.6554 41.8283 88.9429 41.5375C88.1112 41.1616 87.3131 40.7155 86.5568 40.2042C86.0784 39.8599 85.7193 39.3744 85.5317 38.8161C85.3312 38.1707 85.3157 37.4828 85.4859 36.8291C85.7786 35.497 86.5503 34.3178 87.6548 33.5164C88.9616 32.5867 90.5432 32.1232 92.1466 32.2012C93.997 32.2012 95.3335 32.6338 96.1568 33.4984C97.0008 34.4403 97.3386 35.7311 97.0639 36.9651L93.9338 37.1011C94.0582 36.4873 93.8983 35.8504 93.4979 35.3681C92.9628 34.9123 92.2646 34.6963 91.5657 34.7692C90.8623 34.7215 90.1602 34.8859 89.5516 35.2405C89.1273 35.5158 88.8275 35.9458 88.7166 36.4384C88.6044 36.8368 88.7115 37.2643 88.9977 37.5634C89.6212 38.0721 90.3149 38.488 91.0577 38.7974C92.1795 39.2403 93.2098 39.8857 94.0975 40.7026C94.6823 41.5027 94.8545 42.533 94.5598 43.4794C94.2181 44.9275 93.3516 46.1983 92.1285 47.0454C90.7063 48.0654 88.9874 48.5883 87.2376 48.5335C86.0752 48.5747 84.9185 48.342 83.8631 47.8526C83.0546 47.491 82.4402 46.8011 82.1752 45.9565C81.9341 45.0442 81.9341 44.0842 82.1752 43.1713" fill="#818AAD"/>
<path d="M102.155 48.2434H98.9156L104.532 35.1321H99.9143L101.021 32.4913H113.425L112.327 35.1321H107.772L102.155 48.2434Z" fill="#818AAD"/>
<path d="M108.443 45.2673H111.501L110.258 48.2433H107.2L108.443 45.2673Z" fill="#818AAD"/>
<path d="M113.207 48.2434L119.949 32.4913H123.188L120.321 39.1875L129.068 32.4913H133.405L124.994 38.6704L128.079 48.2434H124.404L122.172 40.7394L118.497 43.4343L116.437 48.2434H113.207Z" fill="#818AAD"/>
<path d="M128.768 48.2433L129.821 45.7573L141.253 35.1328H133.877L135.011 32.4919H146.371L145.373 34.9232L133.849 45.6302H135.547H138.395H142.116L140.99 48.2704L128.768 48.2433Z" fill="#818AAD"/>
<path d="M49.1457 32.3914C45.1265 32.6544 41.1066 32.9175 35.5806 33.2082C30.0547 33.499 23.1135 33.8252 17.8687 33.6989C13.7637 33.5822 9.67415 33.1457 5.6375 32.392C6.90181 33.6054 8.39436 34.5551 10.0294 35.1869C13.0989 36.1991 16.329 36.6363 19.5566 36.4751C24.7589 36.2842 29.9444 35.7659 35.0823 34.9239C40.2536 34.1702 44.6546 33.2811 49.1457 32.3914Z" fill="#818AAD"/>
<path d="M48.1206 35.3133C42.2046 36.3294 36.3247 37.3455 32.2597 38.0354C28.1946 38.7252 26.0806 38.9425 23.9846 39.0966C22.0484 39.2391 20.1046 39.2391 18.1685 39.0966C16.7268 38.9515 15.2955 38.7123 13.8855 38.3803C15.6269 39.2178 17.4515 39.869 19.3296 40.3222C22.0813 40.9141 24.8904 41.1913 27.7046 41.1475C30.5872 41.0462 33.4614 40.7851 36.3156 40.3674L41.0976 39.7774C40.4039 40.6858 39.881 41.7129 39.5548 42.8083C39.3252 43.8953 39.3936 45.0242 39.7546 46.0745C40.046 46.8224 40.5051 47.4929 41.0976 48.0345C41.469 46.3433 41.988 44.689 42.6495 43.0888C43.3954 41.486 44.3077 39.965 45.3715 38.5524C46.2193 37.4151 47.1277 36.3249 48.0935 35.2863" fill="#818AAD"/>
</svg>
