<svg width="152" height="80" viewBox="0 0 152 80" fill="none" xmlns="http://www.w3.org/2000/svg">
<path d="M5.63748 30.5135C5.63748 37.6478 11.2474 42.9804 18.6587 42.9804C21.2926 42.9804 23.5743 42.4103 25.5521 41.0086V36.3511C23.6185 37.5985 21.0438 38.4054 18.6157 38.4054C13.9183 38.4054 10.4111 35.117 10.4111 30.5135C10.4111 25.91 13.9183 22.6219 18.6157 22.6219C21.0438 22.6219 23.6182 23.4288 25.5521 24.6762V20.0187C23.5739 18.617 21.2926 18.0469 18.6587 18.0469C11.2474 18.0469 5.63748 23.3798 5.63748 30.5135ZM117.327 24.1365C112.022 24.1365 107.719 28.3656 107.719 33.5584C107.719 38.7516 112.022 42.9804 117.327 42.9804C122.63 42.9804 126.934 38.7516 126.934 33.5584C126.934 28.3656 122.631 24.1365 117.327 24.1365ZM117.327 39.1228C114.248 39.1228 111.8 36.6375 111.8 33.5584C111.8 30.48 114.248 27.9944 117.327 27.9944C120.405 27.9944 122.854 30.48 122.854 33.5584C122.854 36.6379 120.406 39.1228 117.327 39.1228ZM142.224 24.5077L134.248 36.23V24.5077H130.231V42.6101H134.312L142.282 30.9249V42.6101H146.362V24.5077H142.224ZM43.867 33.0766C44.8687 32.4827 45.8331 31.1105 45.8331 29.5896C45.8331 26.6594 43.6077 24.5077 40.5659 24.5077H30.38V42.6095H40.9735C44.0153 42.6095 46.3156 40.4208 46.3156 37.4167C46.3153 35.3766 45.091 33.7444 43.867 33.0766ZM34.4602 28.069H39.9351C40.9732 28.069 41.7523 28.8105 41.7523 29.8122C41.7523 30.8136 40.9732 31.556 39.9351 31.556H34.4602V28.069ZM40.1947 39.0488H34.4602V35.117H40.1947C41.382 35.117 42.2345 35.9694 42.2345 37.0827C42.2345 38.1954 41.382 39.0488 40.1947 39.0488ZM49.9389 30.7396C49.9389 33.5995 51.7627 35.9324 54.4033 36.6796L49.457 42.6098H54.7245L59.4579 36.9341H61.7216V42.6098H65.8018V24.5077H56.2448C52.6471 24.508 49.9389 27.2156 49.9389 30.7396ZM61.7219 28.0687V33.3732H56.8013C55.1697 33.3732 54.0194 32.1488 54.0194 30.7392C54.0194 29.2557 55.1697 28.0684 56.8013 28.0684H61.7219V28.0687ZM100.342 31.704H92.3713V24.5077H88.2905V42.6101H92.3713V35.2653H100.342V42.6101H104.422V24.5077H100.342V31.704ZM81.4746 32.983C82.4684 32.545 83.7057 31.2461 83.7057 29.1346C83.7057 26.2379 80.4956 24.1368 76.5451 24.1368C73.9545 24.1368 71.8736 24.7388 70.3028 25.5122V29.3938C71.817 28.6568 73.6715 27.9947 75.9557 27.9947C77.9323 27.9947 79.6419 28.4351 79.6419 29.8609C79.6419 30.8328 78.5583 31.543 76.6238 31.543H73.5103V35.1043H76.6238C78.5235 35.1043 80.0157 35.596 80.0157 36.8782C80.0157 38.315 78.3079 39.1228 75.6016 39.1228C73.3756 39.1228 71.4278 38.3848 69.8351 37.5504V41.555C71.4148 42.3885 73.4189 42.9807 76.1568 42.9807C80.9295 42.9807 84.1901 40.6453 84.1901 37.2494C84.1901 35.0831 82.7492 33.5844 81.4746 32.983Z" fill="#818AAD"/>
<path d="M137.959 23.5288C141.095 23.5288 143.487 21.5896 143.746 18.7444L140.477 18.3365C140.477 19.5665 139.362 20.5107 137.959 20.5107C136.557 20.5107 135.441 19.5665 135.441 18.3365L132.173 18.7444C132.432 21.5896 134.824 23.5288 137.959 23.5288ZM6.6392 49.0466C7.58051 48.2726 8.67328 47.9235 9.97853 47.9235C13.2268 47.9235 15.6855 50.2612 15.6855 53.388C15.6855 56.5149 13.2268 58.8522 9.97853 58.8522C8.67296 58.8522 7.5802 58.5031 6.6392 57.729L6.39636 55.8164C7.35254 56.6208 8.56672 57.2127 9.97853 57.2127C11.9668 57.2127 13.6062 55.9985 13.8794 54.1769H8.79438V52.5374H13.8642C13.5607 50.7465 11.9516 49.5624 9.97853 49.5624C8.56672 49.5624 7.35254 50.1543 6.39636 50.9587L6.6392 49.0466ZM17.2782 51.2932H18.9477V54.1469L21.6496 51.2932H23.8355L20.6931 54.6325L24.3059 58.7004H22.0897L19.5399 55.8467L18.9477 56.4842V58.7004H17.2782V51.2932ZM30.8626 53.6153C30.301 53.1448 29.3752 52.7199 28.4797 52.7199C27.0527 52.7199 26.0055 53.7064 26.0055 54.9968C26.0055 56.2869 27.0527 57.2737 28.4797 57.2737C29.3752 57.2737 30.301 56.8488 30.8626 56.3779L30.6349 58.2147C29.9823 58.6549 29.3752 58.8522 28.4797 58.8522C26.2028 58.8522 24.336 57.1523 24.336 54.9968C24.336 52.8413 26.2028 51.1414 28.4797 51.1414C29.3752 51.1414 29.9823 51.3387 30.6349 51.7789L30.8626 53.6153ZM39.5744 58.7004H37.9045V52.7502H34.1251V58.7004H32.4556V51.2932H39.5747V58.7004H39.5744ZM43.4436 61.9183H41.7741V51.2932H43.4436V52.5381C43.899 51.764 44.7188 51.1414 45.9634 51.1414C47.9975 51.1414 49.6673 52.872 49.6673 54.9968C49.6673 57.1216 47.9975 58.8522 45.9634 58.8522C44.7188 58.8522 43.8993 58.1995 43.4436 57.4255V61.9183ZM45.7206 57.2737C46.0197 57.2741 46.3159 57.2155 46.5923 57.1012C46.8688 56.987 47.1199 56.8193 47.3314 56.6077C47.5429 56.3962 47.7106 56.145 47.8248 55.8686C47.939 55.5922 47.9976 55.2959 47.9972 54.9968C47.9976 54.6977 47.939 54.4015 47.8247 54.125C47.7105 53.8486 47.5428 53.5975 47.3313 53.386C47.1198 53.1744 46.8687 53.0067 46.5923 52.8924C46.3159 52.7781 46.0197 52.7195 45.7206 52.7199C45.4214 52.7195 45.1252 52.7781 44.8487 52.8924C44.5723 53.0066 44.3211 53.1743 44.1096 53.3858C43.8981 53.5974 43.7304 53.8485 43.6161 54.125C43.5018 54.4014 43.4432 54.6977 43.4436 54.9968C43.4433 55.2959 43.5019 55.5922 43.6162 55.8686C43.7305 56.145 43.8982 56.3962 44.1097 56.6077C44.3212 56.8192 44.5724 56.9869 44.8488 57.1012C45.1252 57.2155 45.4214 57.2741 45.7206 57.2737ZM57.1342 58.1995C56.4816 58.6397 55.7835 58.8522 54.8421 58.8522C52.6259 58.8522 50.6529 57.3041 50.6529 55.0575C50.6529 52.9023 52.3983 51.1414 54.4324 51.1414C56.4513 51.1414 58.2574 52.8568 58.2574 54.9968V55.5432H52.3682C52.6108 56.6056 53.6583 57.2737 54.8421 57.2737C55.7835 57.2737 56.8 56.8336 57.3619 56.3631L57.1342 58.1995ZM52.5048 54.1165H56.4209C56.1022 53.2969 55.3281 52.7202 54.463 52.7202C53.5979 52.7202 52.8387 53.2966 52.5048 54.1165ZM65.6939 53.6153C65.1324 53.1448 64.2066 52.7199 63.3111 52.7199C61.8841 52.7199 60.8369 53.7064 60.8369 54.9968C60.8369 56.2869 61.8844 57.2737 63.3111 57.2737C64.2066 57.2737 65.1324 56.8488 65.6939 56.3779L65.4663 58.2147C64.8137 58.6549 64.2066 58.8522 63.3111 58.8522C61.0342 58.8522 59.1674 57.1523 59.1674 54.9968C59.1674 52.8413 61.0342 51.1414 63.3111 51.1414C64.2066 51.1414 64.8137 51.3387 65.4663 51.7789L65.6939 53.6153ZM73.2067 53.6153C72.6452 53.1448 71.7194 52.7199 70.8239 52.7199C69.3969 52.7199 68.3497 53.7064 68.3497 54.9968C68.3497 56.2869 69.3972 57.2737 70.8239 57.2737C71.7194 57.2737 72.6452 56.8488 73.2067 56.3779L72.9791 58.2147C72.3264 58.6549 71.7194 58.8522 70.8239 58.8522C68.547 58.8522 66.6802 57.1523 66.6802 54.9968C66.6802 52.8413 68.547 51.1414 70.8239 51.1414C71.7194 51.1414 72.3264 51.3387 72.9791 51.7789L73.2067 53.6153Z" fill="#818AAD"/>
</svg>
