<svg width="152" height="80" viewBox="0 0 152 80" fill="none" xmlns="http://www.w3.org/2000/svg">
<path d="M19.1007 53.4169C26.5363 53.4169 32.564 47.3892 32.564 39.9537C32.564 32.5181 26.5363 26.4904 19.1007 26.4904C11.6652 26.4904 5.63748 32.5181 5.63748 39.9537C5.63748 47.3892 11.6652 53.4169 19.1007 53.4169Z" fill="#818AAD"/>
<path d="M21.0829 34.0157H19.7186C17.3846 34.0157 16.2176 35.1827 16.2176 36.9332C16.2176 38.8811 16.9985 39.8507 18.7489 41.0177L20.1133 41.9873L16.2176 48.0196H13.1028L16.8011 42.5708C14.6645 41.0177 13.4889 39.6533 13.4889 37.122C13.4889 34.0072 15.6255 31.8705 19.7186 31.8705H23.803V48.0282H21.0829V34.0157Z" fill="white"/>
<path d="M42.226 53.8288V49.6671H52.2484V53.8288H55.4919V46.9642H53.6213V29.7082H42.0029L41.7197 37.92C41.5738 42.6566 41.2049 45.4454 40.2867 46.9642H38.991V53.8288H42.226ZM44.7573 38.3834L44.9547 32.4111H50.1546V46.9727H43.5474C44.1567 45.5912 44.6114 43.12 44.7573 38.3834Z" fill="#818AAD"/>
<path d="M62.8714 34.9339C59.113 34.9339 56.4958 37.6025 56.4958 42.4593C56.4958 47.2817 59.113 49.9503 62.8714 49.9503C66.6298 49.9503 69.2469 47.2817 69.2469 42.4249C69.2469 37.6025 66.6383 34.9339 62.8714 34.9339ZM62.8714 47.2559C60.975 47.2559 60.0311 45.7886 60.0311 42.4593C60.0311 39.0956 60.975 37.6368 62.8714 37.6368C64.7677 37.6368 65.7116 39.1042 65.7116 42.4335C65.7202 45.7886 64.7677 47.2559 62.8714 47.2559Z" fill="#818AAD"/>
<path d="M77.7505 49.9503C79.3293 49.9503 80.4534 49.6671 81.2858 49.0579V46.2691C80.4277 46.8698 79.3894 47.2473 77.9564 47.2473C75.5195 47.2473 74.5069 45.351 74.5069 42.3649C74.5069 39.2329 75.7426 37.6283 77.9821 37.6283C79.3036 37.6283 80.5993 38.0916 81.2858 38.5207V35.6204C80.565 35.2171 79.3036 34.9339 77.6132 34.9339C73.2455 34.9339 70.9802 38.0659 70.9802 42.4593C70.9716 47.2817 73.1855 49.9503 77.7505 49.9503Z" fill="#818AAD"/>
<path d="M94.0282 37.9201V35.2171H82.5729V37.9201H86.5973V49.6672H90.0124V37.9201H94.0282Z" fill="#818AAD"/>
<path d="M105.981 39.8164C105.981 36.3154 104.196 34.994 100.584 34.994C98.3186 34.994 96.5338 35.7147 95.5041 36.3154V39.1556C96.4223 38.4692 98.4302 37.7227 100.189 37.7227C101.828 37.7227 102.575 38.2976 102.575 39.8507V40.6573H102.026C96.7998 40.6573 94.4744 42.382 94.4744 45.3081C94.4744 48.2341 96.2507 49.8731 98.8935 49.8731C100.901 49.8731 101.768 49.2123 102.429 48.5259H102.575C102.6 48.9034 102.721 49.3839 102.832 49.6757H106.161C106.05 48.5001 105.99 47.3246 105.99 46.1404V39.8164H105.981ZM102.566 46.2176C102.137 46.8526 101.33 47.3675 100.121 47.3675C98.6876 47.3675 97.9668 46.5094 97.9668 45.2137C97.9668 43.5233 99.1424 42.914 102.077 42.914H102.566V46.2176Z" fill="#818AAD"/>
<path d="M114.416 49.6671C117.806 49.6671 119.814 48.2341 119.814 45.4711C119.814 43.5748 118.664 42.485 116.742 42.1418C118.295 41.7127 119.273 40.623 119.273 38.8982C119.273 36.427 117.634 35.2256 114.476 35.2256H108.736V49.6671H114.416ZM113.987 37.8085C115.223 37.8085 115.909 38.3233 115.909 39.4131C115.909 40.417 115.163 41.0177 113.867 41.0177H112.142V37.7999H113.987V37.8085ZM114.047 43.5233C115.515 43.5233 116.287 44.0381 116.287 45.248C116.287 46.5695 115.429 47.0843 114.047 47.0843H112.151V43.5233H114.047Z" fill="#818AAD"/>
<path d="M130.582 49.6671H134.461L128.978 41.8843L133.8 35.2256H130.351L125.528 41.8843V35.2256H122.113V49.6671H125.528V42.5708L130.582 49.6671Z" fill="#818AAD"/>
<path d="M146.088 39.8164C146.088 36.3154 144.312 34.994 140.691 34.994C138.425 34.994 136.64 35.7147 135.611 36.3154V39.1556C136.529 38.4692 138.537 37.7227 140.296 37.7227C141.935 37.7227 142.681 38.2976 142.681 39.8507V40.6573H142.132C136.906 40.6573 134.581 42.382 134.581 45.3081C134.581 48.2341 136.357 49.8731 139 49.8731C141.008 49.8731 141.875 49.2123 142.535 48.5259H142.681C142.707 48.9034 142.827 49.3839 142.939 49.6757H146.268C146.157 48.5001 146.096 47.3246 146.096 46.1404V39.8164H146.088ZM142.673 46.2176C142.244 46.8526 141.437 47.3675 140.227 47.3675C138.794 47.3675 138.073 46.5094 138.073 45.2137C138.073 43.5233 139.249 42.914 142.184 42.914H142.673V46.2176Z" fill="#818AAD"/>
</svg>
