<svg width="152" height="80" viewBox="0 0 152 80" fill="none" xmlns="http://www.w3.org/2000/svg">
<path d="M31.4235 69.7914C20.6048 69.7914 10.8435 63.6906 6.0442 54.2547C5.06808 52.3838 5.96286 50.1054 7.99646 49.4554C9.62334 48.886 11.4129 49.6181 12.145 51.1645C15.8055 58.3219 23.2078 63.0399 31.4235 63.0399C38.4191 63.0399 44.7639 59.7048 48.7498 54.3361C50.0513 52.6279 51.8408 49.8622 51.8408 45.3882L58.023 51.8144C58.023 51.8144 57.6976 52.7092 57.0469 53.9294C56.3961 55.0682 56.1521 55.5562 55.7453 56.207C50.702 64.4227 41.5102 69.7914 31.4235 69.7914Z" fill="#818AAD"/>
<path d="M40.534 31.7225C38.3378 30.2583 35.328 29.5262 31.6676 29.5262H27.6817V23.9134H39.2325C40.9408 23.9134 42.405 22.6119 42.405 20.9037C42.405 19.1955 40.9408 17.8127 39.2325 17.8127H24.5906C22.8824 17.8127 21.4182 19.1955 21.4182 20.9851V32.4546C21.4182 34.1628 22.8011 35.627 24.5906 35.627H31.8302C36.7109 35.627 38.2564 37.8233 38.2564 40.1822C38.2564 42.4599 37.0363 46.039 31.9116 46.039C27.6817 46.039 25.16 43.192 24.672 42.7039C23.1264 41.321 21.5809 41.4024 20.5234 42.2972C19.2219 43.436 19.3846 45.1442 20.1981 46.3644C21.1742 47.8286 24.916 52.3025 31.9929 52.3025C36.0601 52.3025 39.5579 50.8383 41.9982 48.2353C44.1945 45.8771 45.252 42.7852 45.008 39.6942C44.7639 36.2777 43.2184 33.512 40.534 31.7225ZM121.065 29.2821C119.519 28.7127 118.135 28.306 116.997 27.9806C115.695 27.5739 114.719 27.1672 114.638 27.1672C113.093 26.5978 111.873 25.2963 112.523 23.9134C113.174 22.6119 115.614 22.0425 120.576 24.2388C122.04 24.8896 123.423 24.3202 123.912 23.7508C124.969 22.4493 124.562 20.253 122.529 19.1955C121.146 18.3007 118.706 17.1619 113.744 17.5686C109.838 17.894 106.829 20.5783 106.26 23.9948C105.691 27.2485 107.398 29.6075 109.838 31.0717C111.547 32.0478 115.126 33.1053 116.508 33.512C118.298 34.0001 119.681 34.4068 119.925 35.627C120.006 36.2777 119.681 37.0912 118.867 37.7419C117.485 38.8807 114.475 39.0434 110.733 36.6844C110.001 36.2777 108.293 34.8949 106.666 36.3591C105.364 37.4979 105.69 39.4501 107.317 40.9143C108.781 42.2166 112.035 43.68 115.451 43.8435C118.949 44.0054 121.47 42.8674 122.772 41.8913C124.562 40.5898 125.7 38.3935 125.944 36.3599C126.352 32.6172 123.912 30.3396 121.065 29.2821ZM144.736 37.5792C144.004 37.3352 143.109 37.4979 142.458 37.5792C141.645 37.7419 140.424 37.8233 139.286 37.4979C137.415 36.9285 136.601 36.115 136.601 34.4068V23.5067H141.075C142.783 23.5067 144.166 22.2052 144.166 20.5783C144.166 18.9515 142.783 17.65 141.075 17.65H136.601V13.3387C136.601 11.5492 135.137 10.1663 133.429 10.1663C131.639 10.1663 130.256 11.6305 130.256 13.3387V17.5686H128.792C127.083 17.5686 125.7 18.8701 125.7 20.497C125.7 22.1239 127.083 23.4254 128.792 23.4254H130.256V34.4882C130.256 39.6942 134.405 43.9241 139.692 43.9241C144.98 43.9241 146.362 42.0531 146.362 40.2636C146.281 38.9621 145.793 37.9859 144.736 37.5792ZM92.1061 37.9046C88.4456 37.9046 85.5172 35.3016 85.5172 30.665C85.5172 26.0284 88.527 23.4254 92.1061 23.4254C95.7666 23.4254 98.6958 26.0284 98.6958 30.665C98.7763 35.3016 95.7666 37.9046 92.1061 37.9046ZM92.1061 17.5686C85.0292 17.5686 79.2538 23.4254 79.2538 30.665C79.2538 37.9046 85.0292 43.7614 92.1061 43.7614C99.183 43.7614 104.958 37.9046 104.958 30.665C104.958 23.5067 99.183 17.5686 92.1061 17.5686ZM64.8559 37.9046C60.7073 37.9046 57.8603 35.0576 57.8603 30.665C57.8603 25.947 61.3581 23.4254 64.8559 23.4254C68.5164 23.4254 71.4447 26.8418 71.4447 30.665C71.4447 34.5695 68.5164 37.9046 64.8559 37.9046ZM65.2626 17.5686C62.7409 17.5686 59.6499 19.0328 58.023 21.3104C57.9416 19.1142 56.8028 17.65 55.0946 17.65C53.305 17.65 51.9222 19.1142 51.9222 20.8224V50.3502C51.9222 52.139 53.3864 53.5218 55.0946 53.5218C56.8028 53.5218 58.267 52.0576 58.267 50.3502V40.7516C59.4872 42.3785 62.4969 43.9241 65.5066 43.9241C72.5836 43.9241 77.6269 37.9859 77.6269 30.7463C77.7082 23.5067 72.5836 17.5686 65.2626 17.5686Z" fill="#818AAD"/>
</svg>
