<svg width="152" height="80" viewBox="0 0 152 80" fill="none" xmlns="http://www.w3.org/2000/svg">
<path d="M11.1512 25.3646V34.622C18.5867 27.2471 19.0312 25.3646 29.4159 25.3646L15.8383 39.1993L24.8725 39.2234L19.4061 44.8219H5.78746C5.78746 35.1343 4.2307 32.0646 11.1512 25.3646Z" fill="#818AAD"/>
<path d="M38.8572 44.8264V35.569C31.4601 42.9054 30.9022 44.8264 20.5933 44.8264L34.1701 30.9916L25.1359 30.9667L30.6032 25.3691H44.2227C44.2219 35.0567 45.7777 38.1255 38.8572 44.8264Z" fill="#818AAD"/>
<path d="M51.0227 42.9314V25.411H63.8434C64.6959 25.411 65.4707 25.5074 66.1678 25.7002C66.8667 25.893 67.4657 26.1787 67.9646 26.5562C68.4627 26.9338 68.8474 27.4078 69.1214 27.9782C69.3946 28.5486 69.5312 29.2037 69.5312 29.9428C69.5312 30.5052 69.4669 30.9952 69.3384 31.4121C69.209 31.8307 69.0322 32.1878 68.8073 32.485C68.5832 32.7823 68.3217 33.0313 68.0245 33.2321C67.7272 33.4339 67.4184 33.5829 67.097 33.6784C67.9004 33.9355 68.56 34.4024 69.0742 35.0763C69.5874 35.7511 69.8445 36.6027 69.8445 37.6301C69.8445 38.4334 69.7133 39.1618 69.4473 39.8117C69.1822 40.4624 68.8037 41.0202 68.3137 41.4871C67.8236 41.9521 67.2291 42.3101 66.5302 42.5591C65.8313 42.8082 65.0574 42.9322 64.2058 42.9322H51.0218V42.9314H51.0227ZM56.3008 35.3164V32.7376H63.8693C64.7369 32.7376 65.3787 32.577 65.7973 32.2556C66.2151 31.9343 66.4231 31.388 66.4231 30.6168C66.4231 30.1517 66.3347 29.7777 66.158 29.4965C65.9822 29.2154 65.7295 28.9984 65.3984 28.8458C65.069 28.6932 64.6745 28.5932 64.2174 28.5441C63.7595 28.4959 63.2498 28.4718 62.6875 28.4718H54.0835V39.8946H62.9526C63.4989 39.8946 64.005 39.8545 64.4709 39.7741C64.936 39.6938 65.3385 39.5626 65.6759 39.3778C66.0134 39.1931 66.2749 38.9547 66.4588 38.6664C66.6436 38.3781 66.7373 38.0157 66.7373 37.5819C66.7373 36.8588 66.5123 36.3001 66.0624 35.9065C65.6126 35.5146 64.9538 35.3164 64.0853 35.3164H56.3008ZM72.5206 42.9314V37.7988C72.5206 36.0957 72.9794 34.8264 73.8943 33.9909C74.8101 33.1545 76.1518 32.7376 77.9182 32.7376H84.2576C84.9324 32.7376 85.4689 32.5529 85.8724 32.1833C86.2758 31.8138 86.4758 31.2916 86.4758 30.6168C86.4758 29.9419 86.2785 29.4153 85.8867 29.0377C85.493 28.6593 84.9485 28.47 84.2603 28.47H72.6678V25.4092H84.2603C85.127 25.4092 85.8938 25.5342 86.5615 25.7823C87.2274 26.0305 87.7906 26.3733 88.2476 26.8062C88.7064 27.2391 89.051 27.7568 89.2849 28.3602C89.5187 28.9636 89.6339 29.617 89.6339 30.324C89.6339 31.0479 89.5098 31.7147 89.2607 32.3244C89.0135 32.9349 88.6591 33.4607 88.2003 33.9025C87.7433 34.3444 87.1854 34.6907 86.5266 34.9388C85.8679 35.1879 85.1199 35.312 84.2844 35.312H77.9227C76.2508 35.312 75.4153 36.068 75.4153 37.5774V39.867H89.3456V42.9278H72.5215V42.9314H72.5206ZM100.404 42.9314C99.1822 42.9314 98.0539 42.7028 97.0167 42.244C95.9813 41.7843 95.0815 41.1586 94.3183 40.3651C93.556 39.5698 92.9616 38.6253 92.5349 37.5328C92.1091 36.4402 91.8966 35.2593 91.8966 33.99C91.8966 32.7046 92.1091 31.5317 92.5349 30.4712C92.9625 29.4108 93.5569 28.5066 94.3183 27.7595C95.0815 27.0124 95.9813 26.4349 97.0167 26.0252C98.0539 25.6154 99.1822 25.411 100.404 25.411H109.899V28.4718H100.404C99.616 28.4718 98.8894 28.6128 98.2235 28.8949C97.5559 29.1752 96.9819 29.5652 96.499 30.0642C96.0179 30.5632 95.6394 31.1577 95.3653 31.8477C95.0913 32.5386 94.9556 33.3018 94.9556 34.1373C94.9556 34.9558 95.0913 35.719 95.3653 36.4259C95.6394 37.1329 96.0161 37.7399 96.499 38.2451C96.9819 38.7512 97.5559 39.1493 98.2235 39.4385C98.8894 39.7277 99.6187 39.8724 100.404 39.8724H109.899V42.9331L100.404 42.9314Z" fill="#818AAD"/>
<path d="M125.159 25.8136L125.154 25.8118C125.066 25.777 124.974 25.743 124.874 25.71C124.762 25.6743 124.661 25.644 124.574 25.6216C124.035 25.4824 123.412 25.4137 122.705 25.4137H122.163V25.411C119.347 25.411 116.531 25.3985 113.725 25.411L113.723 36.0849C113.723 36.1358 113.721 36.1885 113.721 36.2412V42.9411H114.938C114.938 40.8783 114.941 38.8199 114.941 36.7598C114.952 36.3563 115.018 36.076 115.369 35.727V35.7252C115.651 35.444 116.046 35.3012 116.551 35.3003V35.2985H116.554H122.705H122.714V35.3003C123.077 35.3003 123.419 35.2798 123.737 35.2387L123.891 35.2164C124.151 35.1771 124.392 35.1236 124.609 35.0602C124.662 35.0442 124.71 35.0299 124.754 35.0147H124.756C124.772 35.0093 124.825 34.9897 124.909 34.9585C125.331 34.8022 125.734 34.5818 126.095 34.3193H126.096V34.3175C126.147 34.2827 126.186 34.2542 126.206 34.2372C126.246 34.206 126.283 34.1783 126.311 34.1542C126.483 34.0114 126.64 33.8587 126.781 33.6963L126.783 33.6945L126.865 33.5945L126.947 33.4945C127.077 33.3258 127.194 33.1429 127.301 32.9527L127.302 32.9509L127.361 32.8411L127.416 32.7287C127.509 32.5377 127.586 32.3323 127.653 32.1145L127.655 32.1101V32.1083C127.69 31.9932 127.714 31.9039 127.732 31.8414C127.75 31.7718 127.77 31.6834 127.792 31.5745C127.892 31.1202 127.941 30.6658 127.941 30.2124V30.2061H127.942C127.942 29.8767 127.917 29.5528 127.866 29.235C127.859 29.1948 127.85 29.143 127.838 29.0823C127.787 28.8199 127.721 28.562 127.635 28.312V28.3111C127.613 28.2433 127.592 28.1879 127.576 28.1433C127.556 28.0915 127.533 28.038 127.509 27.98C127.386 27.7041 127.238 27.4488 127.062 27.2132L127.013 27.1489L127.01 27.1454V27.1444L127.008 27.1409L127.006 27.1382H127.004C126.975 27.1007 126.945 27.0632 126.913 27.0266L126.911 27.0231C126.894 27.0034 126.873 26.9776 126.847 26.9499V26.9508L126.8 26.9025L126.761 26.8642L126.76 26.8624L126.742 26.8454L126.729 26.8284C126.705 26.8035 126.682 26.7794 126.658 26.7571C126.62 26.7187 126.59 26.6901 126.572 26.674H126.57C126.412 26.5303 126.241 26.3974 126.06 26.2804L126.053 26.2786L126.051 26.2777L126.053 26.2768C126.021 26.2581 125.987 26.2348 125.943 26.2081H125.945C125.921 26.1938 125.884 26.1724 125.826 26.1412C125.622 26.018 125.399 25.91 125.159 25.8136ZM114.941 26.633H122.851H122.858V26.6348C123.402 26.6348 123.951 26.7062 124.464 26.899H124.466C124.55 26.9311 124.623 26.9597 124.678 26.9864C124.737 27.0132 124.806 27.0472 124.881 27.0873C125.224 27.2721 125.521 27.5113 125.768 27.8041L125.77 27.8059C125.854 27.9032 125.934 28.0094 126.009 28.1192C126.088 28.2299 126.155 28.3406 126.214 28.4495C126.533 29.0279 126.694 29.675 126.694 30.3864H126.692C126.692 31.5004 126.315 32.3797 125.569 33.2098C124.842 33.9132 123.838 34.2292 122.829 34.2292H122.821H115.705H115.696V34.2265C115.439 34.2265 115.189 34.2479 114.939 34.2854V26.6339H114.941V26.633ZM134.647 37.2087V25.411H133.43V37.2382C133.42 38.7209 133.787 40.3954 134.888 41.4576C134.932 41.5005 134.963 41.529 134.987 41.5513V41.5495C136.171 42.6046 137.809 42.9125 139.344 42.9447H139.595H139.602H146.362V41.7272H139.805H139.789V41.7254C139.566 41.7254 139.359 41.7174 139.171 41.7066C139.077 41.6995 139.01 41.6959 138.973 41.6924C138.787 41.6754 138.6 41.6522 138.415 41.6227C138.359 41.6138 138.307 41.604 138.257 41.5969C137.981 41.5442 137.728 41.4799 137.498 41.4031V41.4014H137.496C137.44 41.3826 137.399 41.3674 137.364 41.354L137.234 41.3023C137.011 41.213 136.802 41.1113 136.604 40.9979L136.601 40.9961L136.599 40.997C136.575 40.981 136.535 40.9586 136.484 40.9265H136.482C135.179 40.1258 134.647 38.6789 134.647 37.2087Z" fill="#818AAD"/>
<path d="M54.7887 54.5247C54.7887 54.5809 54.7789 54.6247 54.7619 54.6559C54.7432 54.6872 54.6985 54.7041 54.6253 54.7041H52.4616C52.1974 54.7041 51.9778 54.6658 51.8037 54.5908C51.6315 54.5158 51.4914 54.4167 51.3878 54.2899C51.2843 54.1659 51.2111 54.0213 51.17 53.8552C51.129 53.6892 51.1075 53.5152 51.1075 53.334V50.6266C51.1075 50.4454 51.1316 50.2714 51.1825 50.1053C51.2316 49.9375 51.311 49.7911 51.4199 49.6644C51.5288 49.5385 51.669 49.4377 51.8403 49.3609C52.0117 49.2859 52.2197 49.2493 52.4634 49.2493H54.5959C54.6691 49.2493 54.7137 49.2654 54.7324 49.2948C54.7512 49.3261 54.7592 49.3716 54.7592 49.4269V49.8018C54.7592 49.8679 54.7494 49.9134 54.7324 49.9366C54.7137 49.9589 54.6691 49.9714 54.5959 49.9714H52.4634C52.2661 49.9714 52.1251 50.0134 52.0394 50.1018C51.9528 50.1874 51.91 50.3231 51.91 50.5097V51.4666H54.3379C54.4058 51.4666 54.4486 51.4791 54.4673 51.505C54.4852 51.53 54.495 51.5781 54.495 51.6451V51.9709C54.495 52.028 54.4852 52.0718 54.4673 52.103C54.4486 52.1342 54.4067 52.1504 54.3379 52.1504H51.91V53.4419C51.91 53.5973 51.9528 53.7231 52.0394 53.8222C52.1251 53.9213 52.2661 53.9704 52.4634 53.9704H54.6271C54.7003 53.9704 54.745 53.9847 54.7637 54.0106C54.7816 54.0364 54.7904 54.082 54.7904 54.1498L54.7887 54.5247ZM55.6134 52.8975C55.5563 52.8975 55.5206 52.8868 55.5081 52.8662C55.4947 52.8475 55.4885 52.81 55.4885 52.7582V52.1673C55.4885 52.12 55.4956 52.0852 55.5081 52.062C55.5215 52.0397 55.5563 52.0272 55.6134 52.0272H57.4264C57.4826 52.0272 57.5192 52.0397 57.5308 52.062C57.5451 52.0852 57.5505 52.12 57.5505 52.1673V52.7582C57.5505 52.8118 57.5442 52.8484 57.5308 52.8662C57.5183 52.8868 57.4826 52.8975 57.4264 52.8975H55.6134ZM60.8594 54.0346C61.0879 54.0346 61.3021 54.0088 61.5012 53.9552C61.7011 53.9043 61.8868 53.8419 62.0582 53.7687C62.126 53.7437 62.1733 53.7436 62.2019 53.7651C62.2305 53.7874 62.2501 53.8151 62.259 53.8383L62.4241 54.2132C62.4598 54.2846 62.4714 54.3346 62.4589 54.356C62.4447 54.3801 62.4214 54.4051 62.3849 54.431C62.1358 54.5809 61.8627 54.6782 61.5637 54.722C61.2655 54.7657 60.9844 54.788 60.7193 54.788C60.3506 54.788 60.0212 54.7327 59.732 54.6229C59.441 54.5149 59.1938 54.3488 58.992 54.1257C58.7903 53.9025 58.6359 53.6187 58.5279 53.2768C58.4198 52.9349 58.3681 52.527 58.3681 52.0548C58.3681 51.6192 58.4252 51.2247 58.5431 50.873C58.66 50.5195 58.8224 50.2187 59.0331 49.9661C59.2419 49.7135 59.4972 49.5198 59.7954 49.3823C60.0935 49.2458 60.422 49.1779 60.7808 49.1779C60.9986 49.1779 61.228 49.1966 61.469 49.2341C61.7109 49.2725 61.9644 49.3609 62.2287 49.4957C62.259 49.5109 62.2822 49.5323 62.2938 49.5599C62.3081 49.5894 62.2974 49.6313 62.2679 49.6903L62.0725 50.0946C62.0528 50.1312 62.0332 50.1545 62.0153 50.1696C61.9966 50.1821 61.9636 50.1785 61.9181 50.1562C61.7574 50.0884 61.5833 50.0339 61.3967 49.992C61.2102 49.95 61.0156 49.9295 60.813 49.9295C60.5282 49.9295 60.2827 49.9902 60.0783 50.1125C59.873 50.2348 59.7061 50.3963 59.5758 50.5954C59.4455 50.7962 59.3499 51.0229 59.2884 51.2773C59.2259 51.5317 59.1955 51.7897 59.1955 52.0548C59.1955 52.32 59.2214 52.5708 59.2732 52.8109C59.325 53.0501 59.4142 53.2607 59.5419 53.4419C59.6695 53.6222 59.8391 53.7669 60.0516 53.8713C60.2622 53.9811 60.5327 54.0346 60.8594 54.0346ZM67.77 51.9566C67.77 52.8689 67.5692 53.5714 67.1702 54.0578C66.7712 54.5461 66.1821 54.7898 65.4037 54.7898C64.6414 54.7898 64.0639 54.5541 63.672 54.0855C63.2811 53.6169 63.0856 52.9171 63.0856 51.9879C63.0856 51.5353 63.1445 51.1354 63.2632 50.7837C63.3837 50.4329 63.547 50.1402 63.7586 49.9027C63.9684 49.6626 64.2165 49.4814 64.5022 49.3573C64.786 49.2332 65.0967 49.1708 65.4287 49.1708C65.8125 49.1708 66.1499 49.2333 66.44 49.3609C66.731 49.4886 66.9747 49.6733 67.172 49.9134C67.3693 50.1553 67.5183 50.4472 67.6183 50.7891C67.7183 51.131 67.77 51.5201 67.77 51.9566ZM66.9524 51.9879C66.9524 51.7165 66.9319 51.455 66.8899 51.2006C66.8488 50.9471 66.773 50.7239 66.6641 50.5311C66.5552 50.3392 66.4034 50.1857 66.2088 50.0687C66.0133 49.9518 65.7617 49.8929 65.4493 49.8929C65.185 49.8929 64.9547 49.9483 64.761 50.0581C64.5656 50.1661 64.4058 50.3142 64.2781 50.5008C64.1496 50.6891 64.055 50.906 63.9898 51.1586C63.9247 51.4095 63.8925 51.6745 63.8925 51.9566C63.8925 52.2726 63.9166 52.5618 63.9666 52.8216C64.0166 53.0795 64.0987 53.3027 64.2156 53.4857C64.3317 53.6705 64.4879 53.8133 64.6825 53.9133C64.8771 54.0141 65.1189 54.065 65.409 54.065C65.7045 54.065 65.9509 54.007 66.1481 53.89C66.3454 53.7722 66.5034 53.6187 66.623 53.4268C66.7418 53.2349 66.8265 53.0135 66.8756 52.7645C66.9283 52.5172 66.9524 52.2575 66.9524 51.9879ZM73.2106 50.6891H73.1642L72.7196 51.8486L71.9734 53.7231C71.9207 53.8588 71.868 53.9499 71.8127 53.9981C71.7583 54.0454 71.6636 54.0668 71.5297 54.0668H71.2334C71.0986 54.0668 71.004 54.0454 70.9496 53.9981C70.8951 53.9499 70.8415 53.8606 70.7898 53.7231L70.0346 51.8816L69.599 50.7837H69.5526V54.5426C69.5526 54.6158 69.5383 54.6613 69.5133 54.6782C69.4874 54.697 69.441 54.7059 69.3732 54.7059H68.9608C68.9045 54.7059 68.86 54.6961 68.8287 54.6782C68.7975 54.6604 68.7823 54.6158 68.7823 54.5426V49.6786C68.7823 49.5456 68.8108 49.4394 68.8679 49.3627C68.9251 49.2877 69.0366 49.2511 69.2027 49.2511H69.4446C69.5642 49.2511 69.6571 49.2708 69.724 49.3118C69.7918 49.3538 69.8543 49.443 69.9106 49.5858L70.9147 52.1227L71.3664 53.3045H71.3977L71.8413 52.145L72.8526 49.5858C72.9098 49.4448 72.9731 49.3537 73.0392 49.3109C73.107 49.2707 73.2007 49.2511 73.3194 49.2511H73.5605C73.7274 49.2511 73.839 49.2877 73.8952 49.3627C73.9523 49.4394 73.9818 49.5439 73.9818 49.6786V54.5426C73.9818 54.6158 73.9684 54.6613 73.9434 54.6782C73.9175 54.697 73.8702 54.705 73.8033 54.705H73.3909C73.3337 54.705 73.2891 54.6961 73.2587 54.6782C73.2275 54.6595 73.2123 54.6158 73.2123 54.5426L73.2106 50.6891ZM79.5758 50.6891H79.5285L79.084 51.8486L78.3378 53.7231C78.2851 53.8588 78.2333 53.9499 78.1771 53.9981C78.1226 54.0454 78.0271 54.0668 77.8932 54.0668H77.5987C77.463 54.0668 77.3684 54.0454 77.3148 53.9981C77.2604 53.9499 77.2068 53.8606 77.1541 53.7231L76.3999 51.8816L75.9643 50.7837H75.9179V54.5426C75.9179 54.6158 75.9036 54.6613 75.8786 54.6782C75.8527 54.697 75.8063 54.7059 75.7385 54.7059H75.3261C75.2699 54.7059 75.2252 54.6961 75.194 54.6782C75.1627 54.6604 75.1476 54.6158 75.1476 54.5426V49.6786C75.1476 49.5456 75.1761 49.4394 75.2333 49.3627C75.2904 49.2877 75.402 49.2511 75.568 49.2511H75.8099C75.9295 49.2511 76.0214 49.2708 76.0893 49.3118C76.1571 49.3538 76.2196 49.443 76.2758 49.5858L77.2791 52.1227L77.7308 53.3045H77.762L78.2066 52.145L79.2179 49.5858C79.275 49.4448 79.3384 49.3537 79.4044 49.3109C79.4723 49.2707 79.5669 49.2511 79.6847 49.2511H79.9257C80.0935 49.2511 80.2051 49.2877 80.2604 49.3627C80.3176 49.4394 80.3479 49.5439 80.3479 49.6786V54.5426C80.3479 54.6158 80.3337 54.6613 80.3078 54.6782C80.2837 54.697 80.2364 54.705 80.1685 54.705H79.757C79.6999 54.705 79.6544 54.6961 79.6249 54.6782C79.5937 54.6595 79.5776 54.6158 79.5776 54.5426V50.6891H79.5758ZM85.1949 54.5247C85.1949 54.5809 85.1859 54.6247 85.1672 54.6559C85.1493 54.6872 85.1047 54.7041 85.0315 54.7041H82.8678C82.6027 54.7041 82.3849 54.6658 82.2108 54.5908C82.0385 54.5158 81.8984 54.4167 81.794 54.2899C81.6913 54.1659 81.6181 54.0213 81.5762 53.8552C81.536 53.6883 81.5155 53.5152 81.5155 53.334V50.6266C81.5155 50.4454 81.5396 50.2714 81.5887 50.1053C81.6378 49.9375 81.7181 49.7911 81.8261 49.6644C81.9359 49.5385 82.0752 49.4377 82.2484 49.3609C82.4188 49.2859 82.6268 49.2493 82.8705 49.2493H85.003C85.0762 49.2493 85.1217 49.2654 85.1386 49.2948C85.1574 49.3261 85.1645 49.3716 85.1645 49.4269V49.8018C85.1645 49.8679 85.1556 49.9134 85.1386 49.9366C85.1199 49.9589 85.0762 49.9714 85.003 49.9714H82.8705C82.6714 49.9714 82.5304 50.0134 82.4447 50.1018C82.359 50.1874 82.3171 50.3231 82.3171 50.5097V51.4666H84.7441C84.8119 51.4666 84.8557 51.4791 84.8735 51.505C84.8923 51.53 84.9012 51.5781 84.9012 51.6451V51.9709C84.9012 52.028 84.8905 52.0718 84.8735 52.103C84.8557 52.1334 84.8146 52.1504 84.7441 52.1504H82.3171V53.4419C82.3171 53.5973 82.359 53.7231 82.4447 53.8222C82.5304 53.9213 82.6714 53.9704 82.8705 53.9704H85.0342C85.1074 53.9704 85.1529 53.9847 85.1699 54.0106C85.1868 54.0364 85.1958 54.082 85.1958 54.1498V54.5247H85.1949ZM86.0893 49.6599C86.0893 49.5099 86.1223 49.402 86.1866 49.3377C86.2508 49.2734 86.357 49.2413 86.5088 49.2413H88.2976C88.5467 49.2413 88.7734 49.2797 88.9814 49.3547C89.1858 49.4296 89.3616 49.5359 89.5098 49.6724C89.6579 49.8099 89.7731 49.9741 89.857 50.166C89.9409 50.3606 89.9829 50.5686 89.9829 50.7971C89.9829 51.1105 89.9044 51.3773 89.7473 51.6058C89.5919 51.8343 89.3848 51.9995 89.1269 52.1057V52.1441C89.2349 52.1744 89.3241 52.2155 89.3955 52.2646C89.4651 52.3155 89.525 52.3726 89.5732 52.4369C89.6241 52.5002 89.6642 52.5717 89.6954 52.6484C89.7249 52.727 89.7544 52.8136 89.7811 52.9064L90.2328 54.5488C90.2435 54.5729 90.2453 54.606 90.2364 54.6443C90.2275 54.6845 90.1908 54.7032 90.123 54.7032H89.541C89.5152 54.7032 89.4848 54.697 89.4535 54.6863C89.4241 54.6756 89.3991 54.6443 89.3839 54.5934L88.9885 53.1242C88.9046 52.8332 88.7743 52.6395 88.5949 52.5404C88.4172 52.4422 88.2012 52.3922 87.9459 52.3922H86.9176V54.5399C86.9176 54.6131 86.9051 54.6586 86.8793 54.6756C86.8552 54.6943 86.8061 54.7032 86.74 54.7032H86.2731C86.2169 54.7032 86.1723 54.6934 86.141 54.6756C86.1116 54.6568 86.0955 54.6131 86.0955 54.5399V49.6599H86.0893ZM89.1715 50.8275C89.1715 50.7436 89.159 50.6543 89.1367 50.5552C89.1126 50.4561 89.067 50.3633 88.9974 50.2776C88.926 50.191 88.8296 50.1196 88.7046 50.0634C88.5806 50.0072 88.4172 49.9777 88.2146 49.9777H86.923V51.6986H88.1539C88.3405 51.6986 88.4976 51.6745 88.6225 51.629C88.752 51.5817 88.8546 51.5175 88.9385 51.4371C89.0224 51.3568 89.0813 51.2649 89.1179 51.1578C89.1545 51.0506 89.1715 50.9409 89.1715 50.8275ZM93.3507 54.0346C93.5793 54.0346 93.7935 54.0088 93.9943 53.9552C94.1934 53.9043 94.3799 53.8419 94.5504 53.7687C94.6165 53.7437 94.6655 53.7436 94.6932 53.7651C94.7227 53.7874 94.7423 53.8151 94.7522 53.8383L94.9146 54.2132C94.9512 54.2846 94.9637 54.3346 94.9512 54.356C94.9369 54.3801 94.9128 54.4051 94.8762 54.431C94.629 54.5809 94.3532 54.6782 94.055 54.722C93.7569 54.7657 93.4766 54.788 93.2115 54.788C92.8437 54.788 92.5144 54.7327 92.2234 54.6229C91.9342 54.5149 91.686 54.3488 91.4843 54.1257C91.2834 53.9025 91.129 53.6187 91.0219 53.2768C90.9139 52.9349 90.8612 52.527 90.8612 52.0548C90.8612 51.6192 90.9184 51.2247 91.0353 50.873C91.1522 50.5195 91.3155 50.2187 91.5253 49.9661C91.736 49.7135 91.9904 49.5198 92.2885 49.3823C92.5849 49.2458 92.9143 49.1779 93.274 49.1779C93.4918 49.1779 93.7203 49.1966 93.9622 49.2341C94.2032 49.2725 94.4558 49.3609 94.7209 49.4957C94.7521 49.5109 94.7754 49.5323 94.787 49.5599C94.7995 49.5894 94.7905 49.6313 94.7593 49.6903L94.5638 50.0946C94.5451 50.1312 94.5254 50.1545 94.5067 50.1696C94.4888 50.1821 94.4558 50.1785 94.4112 50.1562C94.2487 50.0884 94.0764 50.0339 93.8899 49.992C93.7015 49.95 93.5061 49.9295 93.3061 49.9295C93.0205 49.9295 92.7759 49.9902 92.5706 50.1125C92.3662 50.2348 92.1975 50.3963 92.068 50.5954C91.9377 50.7962 91.8431 51.0229 91.7806 51.2773C91.7181 51.5317 91.6878 51.7897 91.6878 52.0548C91.6878 52.32 91.7119 52.5708 91.7663 52.8109C91.8172 53.0501 91.9056 53.2607 92.035 53.4419C92.1609 53.6222 92.3314 53.7669 92.5438 53.8713C92.7545 53.9811 93.0249 54.0346 93.3507 54.0346ZM99.4143 54.5247C99.4143 54.5809 99.4036 54.6247 99.3866 54.6559C99.3696 54.6872 99.3241 54.7041 99.2509 54.7041H97.0872C96.8239 54.7041 96.6044 54.6658 96.4303 54.5908C96.2562 54.5158 96.1178 54.4167 96.0134 54.2899C95.9107 54.1659 95.8376 54.0213 95.7956 53.8552C95.7537 53.6892 95.7349 53.5152 95.7349 53.334V50.6266C95.7349 50.4454 95.759 50.2714 95.8081 50.1053C95.859 49.9375 95.9376 49.7911 96.0473 49.6644C96.1553 49.5385 96.2946 49.4377 96.4678 49.3609C96.6383 49.2859 96.8462 49.2493 97.0899 49.2493H99.2224C99.2956 49.2493 99.3411 49.2654 99.3581 49.2948C99.3759 49.3261 99.3857 49.3716 99.3857 49.4269V49.8018C99.3857 49.8679 99.375 49.9134 99.3581 49.9366C99.3393 49.9589 99.2956 49.9714 99.2224 49.9714H97.0899C96.8926 49.9714 96.7516 50.0134 96.6641 50.1018C96.5784 50.1874 96.5347 50.3231 96.5347 50.5097V51.4666H98.9635C99.0313 51.4666 99.0733 51.4791 99.0929 51.505C99.1117 51.53 99.1188 51.5781 99.1188 51.6451V51.9709C99.1188 52.028 99.1099 52.0718 99.0929 52.103C99.076 52.1342 99.0322 52.1504 98.9635 52.1504H96.5347V53.4419C96.5347 53.5973 96.5784 53.7231 96.6641 53.8222C96.7516 53.9213 96.8926 53.9704 97.0899 53.9704H99.2536C99.3268 53.9704 99.3724 53.9847 99.3893 54.0106C99.4063 54.0364 99.4152 54.082 99.4152 54.1498V54.5247H99.4143Z" fill="#818AAD"/>
</svg>
