<svg width="152" height="80" viewBox="0 0 152 80" fill="none" xmlns="http://www.w3.org/2000/svg">
<path d="M146.363 34.1499L146.142 34.7211C145.923 35.2931 145.77 35.6268 145.561 36.0886C145.429 36.3744 145.273 36.7102 145.064 37.1956L140.587 48.2629C139.804 50.2322 138.245 51.3628 136.316 51.3628C135.647 51.3628 134.864 51.1615 134.422 50.9782L134.016 50.8076L134.199 50.4079C134.82 49.0807 135.221 48.6525 136.523 48.547C137.013 48.5083 137.551 47.933 137.928 47.0357L138.117 46.5764L134.068 37.1906C133.85 36.6888 133.686 36.2988 133.522 35.9083C133.367 35.544 133.215 35.183 133.02 34.7379L132.765 34.1499H134.765C135.915 34.1499 136.427 34.5059 136.874 35.6272C136.874 35.6272 139.1 41.1453 139.266 41.5508C139.428 41.9555 139.625 42.9255 139.625 42.9255L139.727 42.9209C139.727 42.9209 139.871 42.0551 140.047 41.5504C140.218 41.0457 142.206 35.6406 142.206 35.6406C142.621 34.537 143.19 34.1495 144.369 34.1495H146.363V34.1499Z" fill="#818AAD"/>
<path d="M121.412 34.0028C120.057 34.0028 118.387 35.1669 118.016 36.6538C118.013 36.6387 118.013 35.9327 118.013 35.7654C118.013 34.9799 117.544 34.1503 116.052 34.1503H114.939V47.0478H118.095V41.6966C118.095 40.9023 118.18 40.2332 118.36 39.6478C118.833 38.1101 120.003 37.1136 121.339 37.1136C121.664 37.1136 121.932 37.1725 121.932 37.1725L122.454 37.2939V34.1129L122.096 34.0595C122.082 34.0587 121.751 34.0028 121.412 34.0028Z" fill="#818AAD"/>
<path d="M130.568 34.0028C129.211 34.0028 127.546 35.1669 127.173 36.6538C127.173 36.6387 127.173 35.9327 127.173 35.7654C127.173 34.9799 126.704 34.1503 125.209 34.1503H124.094V47.0478H127.251V41.6966C127.251 40.9023 127.337 40.2332 127.517 39.6478C127.991 38.1101 129.159 37.1136 130.495 37.1136C130.822 37.1136 131.092 37.1725 131.092 37.1725L131.612 37.2939V34.1129L131.254 34.0595C131.235 34.0587 130.908 34.0028 130.568 34.0028Z" fill="#818AAD"/>
<path d="M64.2267 34.2996C60.293 34.2996 57.3272 37.1855 57.3272 41.0108C57.3272 44.8659 60.293 47.7716 64.2267 47.7716C68.1108 47.7716 71.1548 44.8011 71.1548 41.0108C71.1548 37.1855 68.1772 34.2996 64.2267 34.2996ZM64.2267 44.9255C62.1169 44.9255 60.5275 43.2403 60.5275 41.0112C60.5275 38.8086 62.1174 37.1443 64.2267 37.1443C66.3503 37.1443 67.9494 38.8086 67.9494 41.0112C67.9494 43.2403 66.3503 44.9255 64.2267 44.9255Z" fill="#818AAD"/>
<path d="M49.9255 34.2995C48.1402 34.2995 46.9193 35.0224 46.2048 35.6339H46.1132C46.1132 35.6339 46.2048 34.9287 46.2048 34.2075C46.2048 33.4884 46.2048 31.7687 46.2048 31.7687C46.2048 30.4545 45.5656 29.8182 44.254 29.8182H43.0486V41.1179C43.2062 45.2243 45.7678 47.7707 49.7359 47.7707C53.396 47.7707 56.1563 44.8751 56.1563 41.0351C56.1571 37.1956 53.4771 34.2995 49.9255 34.2995ZM49.401 44.9448C47.3711 44.9448 46.08 42.9839 46.08 41.0788C46.08 38.195 47.9313 37.1674 49.4489 37.1674C51.185 37.1674 52.9799 38.6236 52.9799 41.0553C52.9795 43.4928 51.1577 44.9448 49.401 44.9448Z" fill="#818AAD"/>
<path d="M92.5736 34.2995C90.7917 34.2995 89.5678 35.0224 88.8521 35.6339H88.7626C88.7626 35.6339 88.8521 34.9287 88.8521 34.2075C88.8521 33.4884 88.8521 31.7687 88.8521 31.7687C88.8521 30.4545 88.2167 29.8182 86.9042 29.8182H85.6976V41.1179C85.8561 45.2243 88.4197 47.7707 92.3832 47.7707C96.0458 47.7707 98.807 44.8751 98.807 41.0351C98.807 37.1956 96.1261 34.2995 92.5736 34.2995ZM92.0499 44.9448C90.0209 44.9448 88.7273 42.9839 88.7273 41.0788C88.7273 38.195 90.579 37.1674 92.0983 37.1674C93.8344 37.1674 95.6302 38.6236 95.6302 41.0553C95.6302 43.4928 93.8096 44.9448 92.0499 44.9448Z" fill="#818AAD"/>
<path d="M82.2506 44.6578L79.6849 40.598L81.8682 37.3372C82.2653 36.7421 82.5751 36.3172 82.9075 35.8663C83.1454 35.5423 83.3891 35.2149 83.6585 34.8211L84.12 34.1617H81.7404C80.4023 34.1617 79.9026 34.4496 79.1869 35.6347C79.1869 35.6347 78.2274 37.2191 78.0925 37.4423C77.9669 37.6608 77.6369 38.3984 77.6256 38.4177H77.542C77.542 38.4177 77.2432 37.736 77.0633 37.4423C76.8885 37.1493 75.9584 35.6284 75.9584 35.6284C75.2019 34.4496 74.6985 34.1621 73.4082 34.1621H71.0363L71.5179 34.8261C72.0924 35.6351 72.4198 36.1096 72.9132 36.8249L75.4574 40.5989L73.2977 44.1539C72.9006 44.7423 72.5912 45.1747 72.2567 45.6202C72.0176 45.9497 71.7763 46.2741 71.5032 46.6642L71.0442 47.3257H73.4238C74.7619 47.3257 75.2641 47.0403 75.9777 45.8577C75.9777 45.8577 76.938 44.2737 77.0708 44.0493C77.1982 43.8303 77.5298 43.0915 77.5411 43.0755H77.6248C77.6248 43.0755 77.921 43.7542 78.1001 44.0493C78.2783 44.3418 79.2083 45.8631 79.2083 45.8631C79.9652 47.0403 80.4674 47.3252 81.7555 47.3252H84.1284L83.6467 46.6637C83.0731 45.8572 82.744 45.3811 82.2506 44.6578Z" fill="#818AAD"/>
<path d="M110.834 43.8101C110.474 43.8101 110.145 43.9598 109.823 44.1064L109.776 44.1249C109.107 44.4326 108.29 44.8087 107.327 44.8087C105.681 44.8087 103.556 43.7984 103.368 41.5844C103.368 41.5844 112.349 41.5844 112.454 41.5844C112.513 41.1599 112.543 40.5426 112.543 40.2131C112.543 36.5833 110.133 34.1436 106.571 34.1436C102.76 34.1436 100.095 36.9165 100.095 40.8809C100.095 44.7856 103.251 47.6173 107.208 47.6173C110.422 47.6173 112.221 45.6631 112.297 45.5845L112.513 45.3739L112.381 45.1012C112.088 44.5036 111.66 43.8101 110.834 43.8101ZM106.789 36.6076C108.134 36.6076 109.548 37.4347 109.548 39.1818H103.398C103.607 37.8382 104.977 36.6076 106.789 36.6076Z" fill="#818AAD"/>
<path d="M18.4842 48.9021C19.8601 47.5316 22.0858 47.5316 23.4572 48.9021C24.8344 50.2768 24.8344 52.5025 23.4572 53.8776C22.0858 55.2523 19.8601 55.2523 18.4842 53.8776C17.1179 52.5025 17.1179 50.2768 18.4842 48.9021Z" fill="#818AAD"/>
<path d="M24.3973 42.9961C23.0243 44.3666 23.0243 46.5928 24.3973 47.9691C25.7707 49.3409 27.9973 49.3409 29.3703 47.9691C30.745 46.5928 30.745 44.3666 29.3703 42.9961C27.9973 41.6231 25.7703 41.6231 24.3973 42.9961Z" fill="#818AAD"/>
<path d="M30.3079 37.0859C28.9332 38.4568 28.9332 40.6859 30.3079 42.0577C31.6805 43.4344 33.9062 43.4344 35.2809 42.0577C36.6522 40.6859 36.6522 38.4572 35.2809 37.0859C33.9062 35.7125 31.6805 35.7125 30.3079 37.0859Z" fill="#818AAD"/>
<path d="M12.579 42.9961C11.2047 44.3666 11.2047 46.5949 12.579 47.9691C13.9532 49.3409 16.1794 49.3409 17.5541 47.9691C18.9258 46.5944 18.9258 44.3666 17.5541 42.9961C16.1794 41.6231 13.9532 41.6231 12.579 42.9961Z" fill="#818AAD"/>
<path d="M6.66967 37.0859C5.2933 38.461 5.2933 40.6859 6.66967 42.0577C8.04309 43.4344 10.2701 43.4344 11.6427 42.0577C13.0173 40.6859 13.0173 38.461 11.6427 37.0859C10.2701 35.7125 8.04309 35.7125 6.66967 37.0859Z" fill="#818AAD"/>
<path d="M18.4842 37.0859C17.1179 38.4568 17.1179 40.6859 18.4842 42.0577C19.8601 43.4344 22.0859 43.4344 23.4631 42.0577C24.8348 40.6859 24.8348 38.4572 23.4631 37.0859C22.0863 35.7125 19.8606 35.7125 18.4842 37.0859Z" fill="#818AAD"/>
<path d="M12.579 31.1766C11.2047 32.5517 11.2047 34.7753 12.579 36.1512C13.9532 37.523 16.1794 37.523 17.5541 36.1512C18.9258 34.7757 18.9258 32.5521 17.5541 31.1766C16.1794 29.8031 13.9532 29.8031 12.579 31.1766Z" fill="#818AAD"/>
<path d="M24.3973 31.1766C23.0243 32.5517 23.0243 34.7753 24.3973 36.1512C25.7707 37.523 27.9973 37.523 29.3703 36.1512C30.745 34.7757 30.745 32.5521 29.3703 31.1766C27.9973 29.8031 25.7703 29.8031 24.3973 31.1766Z" fill="#818AAD"/>
<path d="M18.4842 25.2685C19.8601 23.8955 22.0859 23.8955 23.4631 25.2685C24.8348 26.6423 24.8348 28.8672 23.4631 30.241C22.0863 31.6149 19.8606 31.6149 18.4842 30.241C17.1179 28.8672 17.1179 26.6419 18.4842 25.2685Z" fill="#818AAD"/>
<path d="M46.3834 52.7366V55.8902H45.8358V53.2379H44.391V55.8902H43.8421V52.7366H46.3834Z" fill="#818AAD"/>
<path d="M47.9632 52.7366V54.819L50.1196 52.4941V55.8902H49.5741V53.7847L47.4164 56.11V52.7366H47.9632Z" fill="#818AAD"/>
<path d="M53.6246 53.6183C53.3376 53.2539 52.9182 53.1476 52.637 53.1476C52.0516 53.1476 51.5208 53.5574 51.5208 54.3239C51.5208 55.093 52.0675 55.4952 52.6294 55.4952C52.9568 55.4952 53.3573 55.3515 53.6482 55.0001V55.6553C53.3065 55.9058 52.9409 55.9819 52.6462 55.9819C51.6653 55.9819 50.9568 55.2825 50.9568 54.3319C50.9568 53.367 51.6712 52.6601 52.6462 52.6601C53.1459 52.6601 53.4733 52.858 53.6251 52.9639L53.6246 53.6183Z" fill="#818AAD"/>
<path d="M54.4828 52.7366H55.0317V53.9453H55.5931C55.8747 53.9453 56.2689 53.9692 56.5505 54.2567C56.6732 54.3781 56.7934 54.5984 56.7934 54.9182C56.7934 55.2599 56.6501 55.4952 56.5127 55.6246C56.2399 55.8831 55.8974 55.8902 55.5856 55.8902H54.4832L54.4828 52.7366ZM55.5389 55.404C55.7221 55.404 55.8974 55.3964 56.0256 55.3208C56.0932 55.2745 56.2319 55.1611 56.2319 54.9182C56.2319 54.782 56.192 54.621 56.0331 54.5223C55.8966 54.4315 55.7217 54.4315 55.5469 54.4315H55.0308V55.404H55.5389Z" fill="#818AAD"/>
<path d="M57.9181 52.4937L59.2246 55.0611L60.501 52.4937L61.2629 55.8898H60.6977L60.2816 53.9373L59.2099 56.11L58.124 53.9373L57.7205 55.8898H57.1565L57.9181 52.4937Z" fill="#818AAD"/>
<path d="M64.346 52.7366H64.8953V55.8902H64.346V55.4498C64.1661 55.6864 63.8232 55.9827 63.2689 55.9827C62.4712 55.9827 61.7336 55.4187 61.7336 54.3104C61.7336 53.2236 62.4628 52.6613 63.2689 52.6613C63.8762 52.6613 64.2044 52.9954 64.346 53.1858V52.7366ZM62.2968 54.31C62.2968 54.9862 62.6755 55.4952 63.3294 55.4952C63.9976 55.4952 64.378 54.9404 64.378 54.3168C64.378 53.5035 63.8148 53.1476 63.3294 53.1476C62.7889 53.1476 62.2968 53.5422 62.2968 54.31Z" fill="#818AAD"/>
<path d="M68.2461 52.7366V54.819L70.4041 52.4941V55.8902H69.8574V53.7847L67.6985 56.11V52.7366H68.2461Z" fill="#818AAD"/>
<path d="M75.7465 52.7366V55.8902H75.1977V53.2379H73.7541V55.8902H73.2073V52.7366H75.7465Z" fill="#818AAD"/>
<path d="M76.5812 54.3239C76.5812 53.3678 77.2906 52.6609 78.2538 52.6609C79.2192 52.6609 79.9265 53.3678 79.9265 54.3239C79.9265 55.2826 79.2099 55.9819 78.2538 55.9819C77.2952 55.9819 76.5812 55.2826 76.5812 54.3239ZM77.1452 54.3239C77.1452 55.0997 77.6936 55.4952 78.2542 55.4952C78.8233 55.4952 79.3633 55.093 79.3633 54.3239C79.3633 53.5494 78.8313 53.1476 78.2542 53.1476C77.6776 53.1476 77.1452 53.5574 77.1452 54.3239Z" fill="#818AAD"/>
<path d="M83.2315 53.6183C82.9432 53.2539 82.5237 53.1476 82.2438 53.1476C81.6576 53.1476 81.1268 53.5574 81.1268 54.3239C81.1268 55.093 81.6744 55.4952 82.2359 55.4952C82.5624 55.4952 82.9663 55.3515 83.2554 55.0001V55.6553C82.9133 55.9058 82.5485 55.9819 82.2522 55.9819C81.2713 55.9819 80.5645 55.2825 80.5645 54.3319C80.5645 53.367 81.2785 52.6601 82.2522 52.6601C82.7528 52.6601 83.0797 52.858 83.2315 52.9639V53.6183Z" fill="#818AAD"/>
<path d="M84.0884 52.7366H84.6394V53.9453H85.1992C85.4824 53.9453 85.8779 53.9692 86.157 54.2567C86.2776 54.3781 86.4015 54.5984 86.4015 54.9182C86.4015 55.2599 86.2553 55.4952 86.12 55.6246C85.8468 55.8831 85.5043 55.8902 85.1916 55.8902H84.0884V52.7366ZM85.1458 55.404C85.3282 55.404 85.5047 55.3964 85.6325 55.3208C85.7014 55.2745 85.8384 55.1611 85.8384 54.9182C85.8384 54.782 85.7997 54.621 85.6388 54.5223C85.5034 54.4315 85.3278 54.4315 85.1546 54.4315H84.6377V55.404H85.1458ZM86.7802 52.7366H87.3287V55.8902H86.7802V52.7366Z" fill="#818AAD"/>
<path d="M90.7479 55.8898H90.1995V53.2375H89.0757V54.6584C89.0757 54.9249 89.0757 55.2741 88.8319 55.5704C88.7327 55.6919 88.497 55.9054 88.0725 55.9054C88.0208 55.9054 87.9586 55.8974 87.9061 55.8898V55.3889C87.9431 55.3977 87.9889 55.4044 88.0258 55.4044C88.2326 55.4044 88.3608 55.2968 88.4205 55.1985C88.5213 55.0476 88.5281 54.8501 88.5281 54.6593V52.737H90.7475V55.8898H90.7479Z" fill="#818AAD"/>
<path d="M92.3281 52.7366V54.0293L93.6045 52.7366H94.2727L92.906 54.1424L94.4408 55.8902H93.7259L92.4954 54.508L92.3281 54.6673V55.8902H91.7822V52.7366H92.3281Z" fill="#818AAD"/>
<path d="M95.5343 52.7366V54.819L97.6941 52.4941V55.8902H97.1465V53.7847L94.9884 56.11V52.7366H95.5343Z" fill="#818AAD"/>
</svg>
