<svg width="152" height="80" viewBox="0 0 152 80" fill="none" xmlns="http://www.w3.org/2000/svg">
<path d="M85.4387 24.7425C85.2864 24.5952 85.3818 24.4067 85.3547 24.2385C85.5273 24.3824 85.3963 24.5769 85.4387 24.7425Z" fill="#F4F4F4"/>
<path d="M68.8729 43.2388C69.1935 42.2945 69.5088 41.3594 69.8284 40.4259C71.4768 35.6114 73.1295 30.7981 74.7689 25.9805C74.8755 25.6674 75.0094 25.5605 75.3527 25.562C78.958 25.5783 82.5634 25.5682 86.1689 25.5762C87.2445 25.5787 88.3131 25.6781 89.3683 25.9028C92.0543 26.4747 93.4535 27.9144 93.9714 30.6151C94.3734 32.7104 94.1076 34.7591 93.5439 36.7795C92.2852 41.2893 90.2161 45.3924 87.1557 48.9446C84.4091 52.1326 80.9265 53.8966 76.6673 54.0295C72.9521 54.1454 69.2364 54.1392 65.5203 54.1502C65.2103 54.1512 65.1393 54.0909 65.2491 53.7755C65.7542 52.3281 66.2313 50.8708 66.7245 49.4192C67.2228 47.9527 68.3951 47.4237 69.7989 47.3109C71.8339 47.1473 73.8896 47.1124 75.9118 47.28C79.3573 47.5658 81.5981 45.8857 83.3001 43.1832C84.7274 40.9166 85.6707 38.4505 86.0468 35.7873C86.1366 35.1515 86.1268 34.5072 85.9323 33.8788C85.6673 33.023 85.0825 32.5107 84.2048 32.4724C82.8378 32.4127 81.467 32.444 80.0981 32.4277C79.8315 32.4245 79.8323 32.6233 79.7779 32.7869C78.9986 35.1277 78.2213 37.4692 77.4407 39.8097C77.2285 40.4461 76.9539 41.0548 76.6268 41.6419C76.0276 42.7178 75.1024 43.2529 73.8898 43.2678C72.2689 43.2879 70.6479 43.2731 69.0267 43.272C68.9879 43.2718 68.9491 43.2557 68.8729 43.2388Z" fill="#818AAD"/>
<path d="M113.428 52.5906C114.02 50.8502 114.604 49.1072 115.205 47.3702C117.679 40.2176 120.16 33.0674 122.627 25.9126C122.731 25.6111 122.858 25.509 123.18 25.5114C125.346 25.527 127.512 25.5262 129.677 25.5128C130.022 25.5108 130.095 25.562 129.972 25.9154C128.613 29.8091 127.272 33.7089 125.927 37.6076C125.915 37.6429 125.926 37.6862 125.926 37.7176C126.047 37.7995 126.088 37.6995 126.136 37.6438C128.322 35.0995 130.695 32.7286 132.978 30.2738C134.395 28.7499 135.83 27.242 137.253 25.7237C137.374 25.595 137.491 25.5153 137.681 25.5156C140.558 25.5212 143.434 25.5195 146.308 25.5195C146.371 25.6671 146.246 25.697 146.183 25.7541C141.7 29.8149 137.218 33.8762 132.727 37.9276C132.503 38.1295 132.514 38.289 132.605 38.538C134.024 42.4265 135.435 46.3184 136.847 50.2097C136.87 50.2739 136.88 50.3426 136.896 50.4092C136.837 50.5229 136.835 50.6151 136.986 50.6507C137.141 50.9456 137.247 51.2584 137.323 51.5818C137.284 51.6537 137.287 51.7338 137.293 51.8098C137.309 52.0222 137.373 51.7709 137.408 51.8199C137.553 52.0905 137.653 52.3778 137.725 52.6754C137.724 52.7914 137.521 52.9761 137.831 52.9872C137.927 53.118 137.974 53.2671 137.993 53.4265C137.876 53.8737 137.521 53.8776 137.161 53.8744C135.99 53.864 134.818 53.9266 133.648 53.8442C133.242 53.8157 132.892 53.9743 132.532 54.1145C132.478 54.1083 132.424 54.1021 132.37 54.0959C132.104 53.9751 131.843 53.8325 131.533 53.9217C130.968 53.7475 130.592 53.3436 130.277 52.8733C129.807 52.1708 129.525 51.3821 129.27 50.5841C128.453 48.0229 127.642 45.4598 126.828 42.8977C126.777 42.7398 126.717 42.5849 126.647 42.3847C125.562 43.2915 124.506 44.175 123.449 45.059C123.311 45.1745 123.287 45.3483 123.233 45.5037C122.558 47.4219 121.887 49.3415 121.212 51.2598C121.171 51.3764 121.112 51.4866 121.062 51.5999C121.03 51.554 121.072 51.6103 121.038 51.5661C121.029 51.5539 121.036 51.5655 121.063 51.5974C121.043 51.7743 120.993 51.9414 120.888 52.0886C120.617 52.2758 120.659 52.5708 120.63 52.8412C120.557 53.1624 120.454 53.4732 120.303 53.7667C120.017 53.9167 119.705 53.8903 119.403 53.8842C118.04 53.8578 116.677 53.9176 115.313 53.8444C114.82 53.8181 114.314 53.8393 113.814 53.8772C113.33 53.914 113.23 53.8084 113.168 53.3447C113.205 53.098 113.292 52.869 113.41 52.6508C113.479 52.71 113.462 52.7864 113.454 52.8609C113.466 52.7688 113.479 52.677 113.428 52.5906Z" fill="#818AAD"/>
<path d="M71.712 25.5716C71.3377 26.6487 70.9787 27.6864 70.6157 28.7227C70.4454 29.2095 70.2805 29.6989 70.09 30.1778C69.4698 31.7371 68.4222 32.4551 66.7431 32.4603C64.3258 32.4677 61.9079 32.4955 59.4914 32.4481C58.1043 32.4208 56.9534 32.9019 55.95 33.797C53.9786 35.5552 52.8287 37.8074 52.1301 40.3114C51.7409 41.706 51.5446 43.1252 51.8568 44.5689C52.2385 46.3329 53.3269 47.2254 55.1345 47.2407C56.7413 47.2541 58.3483 47.2389 59.955 47.2524C60.5695 47.2577 61.1763 47.3505 61.7628 47.5513C63.1427 48.0234 63.6892 48.9954 63.2781 50.3884C62.9273 51.5767 62.4969 52.7413 62.115 53.9206C62.0541 54.1084 61.957 54.1504 61.7813 54.149C58.7356 54.1227 55.688 54.16 52.6451 54.0582C50.3925 53.9828 48.3047 53.2968 46.5865 51.7534C44.7739 50.1256 43.8146 48.0514 43.8325 45.6398C43.88 39.2189 46.1926 33.7355 50.9676 29.3947C53.3055 27.2695 56.1631 26.1837 59.2733 25.7444C60.34 25.5937 61.4128 25.5663 62.4888 25.5694C65.3951 25.578 68.3015 25.572 71.2078 25.5717C71.3602 25.5716 71.5122 25.5716 71.712 25.5716Z" fill="#818AAD"/>
<path d="M97.8329 32.4622C98.2654 31.0645 98.685 29.708 99.1053 28.3517C99.1424 28.2318 99.1919 28.1154 99.2212 27.9938C99.5685 26.5483 100.576 25.8835 101.964 25.6683C102.42 25.5978 102.879 25.5707 103.341 25.571C108.427 25.5742 113.514 25.573 118.601 25.5731C118.739 25.5731 118.877 25.5731 119.058 25.5731C118.667 26.8352 118.289 28.0586 117.91 29.2816C117.836 29.5214 117.747 29.7576 117.688 30.0012C117.328 31.5037 116.274 32.1675 114.838 32.3678C114.326 32.4391 113.811 32.4645 113.293 32.464C108.304 32.4607 103.315 32.462 98.3262 32.4619C98.1752 32.4622 98.0242 32.4622 97.8329 32.4622Z" fill="#818AAD"/>
<path d="M115.443 36.4058C115.062 37.6395 114.693 38.8353 114.324 40.0308C114.237 40.3105 114.139 40.5869 114.067 40.8702C113.696 42.3197 112.688 42.9938 111.277 43.1966C110.764 43.2703 110.25 43.3001 109.734 43.3002C104.706 43.3015 99.6781 43.296 94.6504 43.3076C94.2712 43.3085 94.221 43.233 94.3371 42.8778C94.7654 41.5667 95.2022 40.2557 95.5573 38.9239C95.9667 37.3893 96.9928 36.6716 98.4919 36.4884C98.935 36.4342 99.3789 36.4019 99.8268 36.4024C104.896 36.4067 109.966 36.4054 115.036 36.4057C115.158 36.4058 115.281 36.4058 115.443 36.4058Z" fill="#818AAD"/>
<path d="M91.3692 51.1637C91.5459 50.4619 91.7531 49.7691 92.0154 49.0952C92.3643 48.1992 93.0745 47.7242 93.9658 47.477C94.5064 47.3272 95.0609 47.2512 95.6195 47.2506C100.844 47.2441 106.069 47.2471 111.294 47.2385C111.577 47.2379 111.651 47.2888 111.558 47.5789C111.096 49.0259 110.646 50.477 110.201 51.9297C109.742 53.4292 108.572 53.9212 107.171 54.0772C106.728 54.1267 106.279 54.1514 105.833 54.1516C100.832 54.1533 95.8307 54.1496 90.8295 54.1355C90.7235 54.1352 90.368 54.3278 90.5181 53.9113C90.8366 53.9574 91.1567 53.9669 91.4785 53.9674C96.1275 53.9731 100.777 53.979 105.425 53.9669C105.477 53.9669 105.533 53.9859 105.616 53.9225C104.992 53.8762 104.398 53.8619 103.812 53.9157C103.24 53.968 102.67 53.9707 102.098 53.9711C99.6966 53.973 97.2944 54.0128 94.8947 53.9531C93.709 53.9234 92.5234 53.916 91.3378 53.8937C91.0676 53.8884 90.8119 53.8336 90.5872 53.6732C90.787 52.9337 90.9957 52.1971 91.2748 51.4826C91.5229 51.4404 91.3717 51.2801 91.3692 51.1637Z" fill="#818AAD"/>
<path d="M90.5872 53.6732C90.6851 53.6942 90.7729 53.4715 90.8601 53.636C90.9636 53.8317 91.1256 53.7586 91.2633 53.7597C92.2131 53.7669 93.1653 53.7194 94.1122 53.7718C96.9973 53.9317 99.8836 53.8236 102.769 53.8336C103.657 53.8368 104.548 53.7606 105.44 53.7584C105.694 53.7577 105.868 53.8262 105.963 54.0983C105.842 54.0983 105.733 54.0983 105.624 54.0983C100.749 54.0983 95.8745 54.0996 90.9997 54.0933C90.8301 54.093 90.5869 54.2104 90.5182 53.9114C90.5201 53.8259 90.5167 53.7389 90.5872 53.6732Z" fill="#818AAD"/>
<path d="M113.168 53.3441C113.206 53.3578 113.279 53.3775 113.278 53.3843C113.2 53.8249 113.511 53.7849 113.767 53.7598C114.813 53.6572 115.859 53.802 116.903 53.7587C117.955 53.7152 119.01 53.8521 120.061 53.7094C120.137 53.6989 120.222 53.7459 120.302 53.7661C120.302 54.0964 120.122 54.163 119.818 54.1611C117.661 54.149 115.505 54.1551 113.348 54.1545C112.857 54.1544 112.855 54.1527 113.021 53.6858C113.062 53.5692 113.118 53.4579 113.168 53.3441Z" fill="#818AAD"/>
<path d="M132.532 54.1138C132.921 53.5954 133.47 53.7437 133.993 53.7514C134.897 53.7645 135.801 53.756 136.705 53.7563C136.801 53.7564 136.896 53.7465 136.991 53.7556C137.374 53.7925 137.742 53.7878 137.993 53.426C138.332 54.1546 138.332 54.1546 137.551 54.1546C136.029 54.1546 134.508 54.1556 132.986 54.1531C132.835 54.1528 132.679 54.1834 132.532 54.1138Z" fill="#818AAD"/>
<path d="M120.63 52.8406C120.634 52.5614 120.317 52.1724 120.888 52.088C120.844 52.3531 120.757 52.604 120.63 52.8406Z" fill="#818AAD"/>
<path d="M131.533 53.9211C131.889 53.6106 132.124 53.8786 132.37 54.0953C132.073 54.1238 131.794 54.0666 131.533 53.9211Z" fill="#818AAD"/>
<path d="M137.408 51.8195C137.4 51.9313 137.358 52.0268 137.28 52.1162C137.159 51.8339 137.178 51.6342 137.323 51.5815C137.398 51.6441 137.407 51.7306 137.408 51.8195Z" fill="#818AAD"/>
<path d="M137.83 52.9867C137.748 53.2452 137.612 52.9313 137.513 53.0168C137.457 52.8247 137.615 52.7643 137.725 52.6749C137.789 52.7689 137.838 52.8682 137.83 52.9867Z" fill="#818AAD"/>
<path d="M91.3692 51.1637C91.689 51.37 91.4471 51.5191 91.3011 51.7278C91.289 51.6155 91.2819 51.5491 91.2748 51.4826C91.2733 51.3666 91.2891 51.2556 91.3692 51.1637Z" fill="#818AAD"/>
<path d="M113.428 52.5905C113.521 52.7647 113.56 52.9423 113.475 53.1843C113.328 52.9817 113.467 52.805 113.41 52.6501C113.398 52.6245 113.404 52.6047 113.428 52.5905Z" fill="#818AAD"/>
<path d="M136.986 50.6504C136.976 50.7005 136.961 50.7941 136.91 50.7585C136.77 50.6609 136.779 50.5307 136.896 50.4089C136.926 50.4895 136.956 50.57 136.986 50.6504Z" fill="#818AAD"/>
<path d="M121.063 51.5967C120.964 51.5307 120.849 51.4725 120.919 51.3099C121.091 51.3508 121.031 51.4978 121.062 51.5992L121.063 51.5967Z" fill="#818AAD"/>
<path d="M91.2074 52.6693C91.1791 52.7128 91.1613 52.7402 91.1435 52.7677C91.114 52.722 91.0802 52.6784 91.0578 52.6295C91.0508 52.6142 91.0753 52.5847 91.0854 52.5616C91.1239 52.5955 91.1622 52.6295 91.2074 52.6693Z" fill="#818AAD"/>
<path d="M21.0151 55.2456C29.5284 55.2456 36.4298 48.3424 36.4298 39.8268C36.4298 31.3113 29.5284 24.4081 21.0151 24.4081C12.5018 24.4081 5.60045 31.3113 5.60045 39.8268C5.60045 48.3424 12.5018 55.2456 21.0151 55.2456Z" fill="#818AAD"/>
<path d="M11.7068 50.8277C11.7564 50.6349 11.8026 50.4418 11.7779 50.2401C11.8616 50.026 11.8862 49.8032 11.8747 49.5753C11.947 49.4612 11.8326 49.3336 11.8993 49.2188C12.3656 48.2874 13.0231 47.4873 13.6643 46.678C15.1197 44.8414 16.7834 43.2144 18.6326 41.7751C20.3475 40.4402 22.1889 39.3083 24.1175 38.313C25.9832 37.3501 27.9251 36.5666 29.899 35.8596C30.5559 35.6243 31.2142 35.3902 31.8898 35.2067C33.0387 35.1297 34.181 35.2893 35.3273 35.2863C35.3863 35.3054 35.4453 35.3244 35.5044 35.3435C35.5817 35.4535 35.6093 35.5755 35.5931 35.7084C35.5077 35.9203 35.3097 35.9711 35.123 36.0386C34.9731 36.069 26.8677 38.0108 21.9112 41.3699C21.601 41.5773 21.2792 41.7679 20.9715 41.9798C20.6986 42.1286 20.4647 42.3344 20.2082 42.5077C19.3888 43.0556 18.6258 43.6759 17.886 44.3254C17.6275 44.6031 17.2916 44.7943 17.0416 45.0819C16.838 45.2762 16.6409 45.4768 16.4443 45.6785C16.2547 45.8658 16.0615 46.0496 15.8831 46.2473C15.7905 46.3604 15.7148 46.487 15.61 46.5904C15.4965 46.7049 15.3756 46.8124 15.2765 46.9405C15.1547 47.1261 15.002 47.2855 14.8507 47.4463C14.6642 47.6895 14.4575 47.9167 14.2819 48.1681C14.1826 48.2762 14.106 48.4018 14.0169 48.5177C13.9184 48.6265 13.845 48.7538 13.7557 48.8695C13.5839 49.0756 13.4576 49.3149 13.2836 49.5187C13.182 49.6473 13.0969 49.7873 13.0099 49.9259C12.9233 50.0419 12.8464 50.1638 12.7825 50.2941C12.6667 50.4834 12.5373 50.6638 12.4223 50.8538C12.33 50.9718 12.2504 51.1041 12.0957 51.1541C11.8319 51.2051 11.7662 51.0201 11.7068 50.8277Z" fill="#FDFDFD"/>
<path d="M31.4094 32.5319C32.1915 32.5306 32.9733 32.5296 33.7554 32.5284C33.8645 32.59 33.9737 32.652 34.0826 32.7138C34.2638 33.1637 33.8792 33.1745 33.6337 33.294C33.5085 33.3243 33.3828 33.3539 33.2607 33.3968C32.7939 33.529 32.3248 33.6527 31.8647 33.8066C31.5836 33.8862 31.3106 33.9918 31.0322 34.08C30.7728 34.1554 30.5091 34.2165 30.2563 34.3142C29.7955 34.4499 29.3474 34.6219 28.8999 34.7956C28.4021 34.9433 27.9301 35.1648 27.4319 35.3106C23.7178 36.7908 20.2064 38.6277 17.1042 41.1833C15.5377 42.4735 14.1318 43.9228 12.8621 45.5055C12.7654 45.6261 12.4651 46.0178 12.4086 46.0952C12.1082 46.4585 10.6598 48.4967 10.5829 48.5788C10.4972 48.65 10.4451 48.7471 10.3829 48.8373C10.3533 48.865 10.3201 48.886 10.2831 48.9026C9.87333 48.9394 9.99325 48.6632 10.0136 48.446C9.99913 48.4272 10.0012 48.4106 10.02 48.3964C10.1337 48.0928 10.1382 47.7697 10.1863 47.4545C10.2213 47.162 10.7208 44.2622 10.7243 44.1259C10.7435 44.0049 10.8804 43.3143 10.9562 43.0967C11.053 42.6834 11.1615 42.2733 11.285 41.8674C11.358 41.6723 11.3871 41.464 11.4609 41.2691C11.8482 40.0195 12.2986 38.7939 12.8706 37.6158C12.9602 37.4314 12.9465 37.2899 12.8217 37.12C12.1059 36.1448 11.4225 35.1472 10.8153 34.0995C10.7257 33.8826 10.5843 33.6945 10.4734 33.4893C10.4143 33.3673 10.3557 33.2451 10.2894 33.1266C10.1241 32.7853 9.95319 32.4468 9.77633 32.1111C9.65733 31.7267 9.35837 31.3934 9.44445 30.9502C9.47031 30.861 9.51986 30.7893 9.59846 30.7386C9.79833 30.647 9.98384 30.7242 10.1706 30.787C10.3735 30.8807 10.5703 30.9896 10.7882 31.0486C10.9614 31.1142 11.1396 31.1644 11.3161 31.2206C11.5862 31.322 11.8651 31.395 12.14 31.4825C13.7716 31.8737 15.4242 32.1321 17.0923 32.2991C17.5499 32.3451 31.0179 32.5329 31.4094 32.5319Z" fill="#FDFDFD"/>
<path d="M11.9674 49.2321C12.0494 48.6494 12.1312 48.0668 12.213 47.4841C12.2065 47.0576 12.2276 46.6345 12.3649 46.2253C12.4415 46.1181 12.454 45.9775 12.5426 45.8762C12.5977 45.5034 12.9052 45.2907 13.118 45.0326C15.3279 42.3506 17.9632 40.1665 20.9295 38.3631C22.9512 37.1337 27.7283 35.3169 27.8967 35.3179C29.1802 35.325 30.464 35.3197 31.7478 35.3185C30.6767 35.7055 29.6019 36.0827 28.5354 36.4819C25.7093 37.5397 23.0188 38.8694 20.5075 40.5484C18.591 41.8297 16.82 43.2934 15.2566 44.9867C14.0403 46.3037 12.9008 47.6906 11.9674 49.2321Z" fill="#818AAD"/>
</svg>
