<svg width="152" height="80" viewBox="0 0 152 80" fill="none" xmlns="http://www.w3.org/2000/svg">
<path d="M15.2816 21.9872L5.6375 58.1535H14.503L24.1359 21.9872L15.2816 21.9872ZM54.266 21.9872H42.9503L28.4237 33.5182L28.4186 33.51L21.2483 39.2134L35.0292 58.1535H46.3456L32.5624 39.2106L54.266 21.9872ZM137.177 29.717C137.346 29.4803 137.262 29.1957 137.053 28.9123L131.495 21.9872H102.608L100.476 30.0396H136.43C136.713 30.0396 136.97 30.007 137.177 29.717ZM58.3684 49.439C58.0609 48.9955 57.9836 48.4271 58.1338 47.8514L62.2499 32.4322C62.4045 31.8293 62.8103 31.2135 63.402 30.7394C63.996 30.2684 64.6633 30.0396 65.2678 30.0396H95.1723L97.3211 21.9872H66.5455C63.8961 21.9872 60.9637 23.0006 58.4102 25.0384C55.8387 27.0755 54.1071 29.7503 53.3981 32.4008L49.2913 47.8529C48.583 50.4881 48.8831 53.1269 50.3497 55.1419C51.8039 57.1507 54.1544 58.1535 56.7809 58.1535H87.6731L89.827 50.0933H59.7846C59.2059 50.0933 58.6943 49.8758 58.3684 49.439ZM142.774 36.051H98.8849L96.7568 44.0893H140.691L146.363 40.5223L142.774 36.051ZM127.988 50.1011H95.1655L93.0339 58.1535H118.257L128.597 51.6401C128.91 51.4517 129.028 50.9869 128.885 50.6415C128.769 50.3629 128.572 50.1011 127.988 50.1011Z" fill="#818AAD"/>
</svg>
