<svg width="152" height="80" viewBox="0 0 152 80" fill="none" xmlns="http://www.w3.org/2000/svg">
<path d="M73.7796 5.71436H5.63763V73.8585H73.7796V5.71436Z" fill="#818AAD"/>
<path d="M144.314 5.66296H78.0923V73.9314H146.363V5.66296H144.314ZM142.266 69.8349C138.554 69.8349 85.8999 69.8349 82.1877 69.8349C82.1877 66.1234 82.1877 13.4712 82.1877 9.75929C85.8999 9.75929 138.554 9.75929 142.266 9.75929C142.266 13.471 142.266 66.123 142.266 69.8349Z" fill="#818AAD"/>
<path d="M27.1687 44.7581C26.4359 43.3968 25.3987 42.7063 24.0851 42.7063C22.8394 42.7063 21.8491 43.4007 21.1407 44.7704C20.4448 46.1165 20.0919 47.9047 20.0919 50.0861C20.0919 52.3453 20.4297 54.1699 21.096 55.5079C21.7747 56.8712 22.7801 57.563 24.0851 57.563C25.4115 57.563 26.4609 56.8388 27.2045 55.4112C27.9002 54.0732 28.2526 52.2748 28.2526 50.0656C28.2526 47.884 27.8881 46.0979 27.1687 44.7581ZM25.4294 53.8511C25.1203 54.7874 24.667 55.2616 24.0823 55.2616C23.5209 55.2616 23.0792 54.7805 22.7695 53.8312C22.4483 52.8435 22.2851 51.5901 22.2851 50.1053C22.2851 48.5825 22.4451 47.3297 22.7613 46.3798C23.0637 45.4691 23.5079 45.0081 24.0823 45.0081C24.7337 45.0081 25.1973 45.4633 25.4995 46.3988C25.7747 47.2458 25.9144 48.4789 25.9144 50.066C25.9144 51.6011 25.7514 52.8737 25.4294 53.8511ZM32.0237 34.603C32.8048 33.2544 33.2013 31.445 33.2013 29.2243C33.2013 27.0296 32.7917 25.2325 31.9835 23.883C31.1581 22.5061 29.9898 21.8079 28.5114 21.8079C27.1082 21.8079 25.9925 22.5104 25.1945 23.8962C24.4134 25.2491 24.0171 27.0484 24.0171 29.244C24.0171 31.516 24.3965 33.3509 25.1442 34.6986C25.9094 36.0785 27.0424 36.7785 28.5114 36.7785C30.0044 36.7781 31.1862 36.0464 32.0237 34.603ZM29.9902 32.9848C29.6472 33.9114 29.1652 34.3619 28.5162 34.3619C27.8943 34.3619 27.4253 33.9054 27.0819 32.9656C26.7234 31.9839 26.5416 30.7383 26.5416 29.2634C26.5416 27.7501 26.7199 26.5053 27.0722 25.5625C27.408 24.6609 27.8803 24.2227 28.516 24.2227C29.2298 24.2227 29.7374 24.6663 30.0688 25.5796C30.3755 26.4194 30.5307 27.6452 30.5307 29.2243C30.5309 30.7497 30.3491 32.0148 29.9902 32.9848ZM14.3215 43.07H11.8809V57.272H14.2192C14.2192 57.272 14.2192 53.542 14.2192 53.1444C14.6722 53.542 15.1659 53.7786 15.7066 53.7786C16.4845 53.7786 17.1325 53.3672 17.6334 52.556C18.1931 51.6449 18.4772 50.2946 18.4772 48.5421C18.4772 47.323 18.2497 46.2306 17.8011 45.2973C17.0951 43.8201 15.9244 43.07 14.3215 43.07ZM15.7621 50.8182C15.5734 51.1826 15.353 51.3667 15.1076 51.3667C14.8693 51.3667 14.6692 51.2091 14.4957 50.8832C14.312 50.5374 14.2196 50.0321 14.2196 49.3785C14.2196 49.3785 14.2196 45.4052 14.2196 45.1903C14.2677 45.1903 14.3165 45.1903 14.3165 45.1903C14.8607 45.1903 15.2757 45.4905 15.5859 46.1076C15.9049 46.7433 16.0666 47.761 16.0666 49.1333C16.0662 49.8607 15.9639 50.4278 15.7621 50.8182ZM14.5306 24.5513H17.7925C17.7925 24.8824 17.7925 36.4865 17.7925 36.4865H20.4261V22.1724H11.8975V36.4865H14.5309C14.5306 36.4865 14.5306 24.8824 14.5306 24.5513ZM60.4355 29.5C60.7213 29.5002 63.4548 29.5021 63.7226 29.5021C63.7539 29.794 64.4615 36.488 64.4615 36.488L67.1144 36.4863L65.899 26.0223C65.9001 24.6506 65.4764 23.6149 64.6408 22.9637C63.9756 22.4381 63.0647 22.172 61.9337 22.172H58.0316L57.5473 36.486H60.1808C60.1806 36.4865 60.4239 29.8132 60.4355 29.5ZM60.546 24.5513C60.7873 24.5513 61.4992 24.5513 61.4992 24.5513C62.178 24.5513 62.6453 24.7548 62.9277 25.1746C63.1547 25.5224 63.316 26.1969 63.4196 27.1209H60.4821C60.4895 26.831 60.5391 24.8278 60.546 24.5513ZM55.8089 42.5595C55.8089 42.5595 50.91 47.6749 50.5461 48.0552C50.5461 47.5492 50.5461 43.0486 50.5461 43.0486H48.2445V57.2813H50.5461C50.5461 57.2813 50.5461 51.5243 50.5461 51.4349C50.6042 51.3738 53.5511 48.2529 53.8829 47.9013C53.9012 48.4139 54.2166 57.2813 54.2166 57.2813H56.5613L55.9943 42.3655L55.8089 42.5595ZM49.7431 36.4865H52.3763C52.3763 36.4865 52.3763 24.8824 52.3763 24.5513C52.667 24.5513 54.596 24.5513 54.596 24.5513V22.1724H47.5596V24.5513C47.5596 24.5513 49.453 24.5513 49.7431 24.5513C49.7431 24.8824 49.7431 36.4865 49.7431 36.4865ZM66.9737 42.3661L66.7883 42.5595C66.7883 42.5595 61.8897 47.6744 61.5258 48.0552C61.5258 47.5488 61.5258 43.0486 61.5258 43.0486H59.2242V57.2813H61.5258C61.5258 57.2813 61.5258 51.5238 61.5258 51.4349C61.5836 51.3738 64.5305 48.2529 64.8623 47.9013C64.8806 48.4139 65.1958 57.2813 65.1958 57.2813H67.541L66.9737 42.3661ZM41.7758 29.5727C41.7758 29.8969 41.7758 36.4865 41.7758 36.4865H44.4094V22.1724H41.7758C41.7758 22.1724 41.7758 26.8401 41.7758 27.1578C41.5032 27.1578 40.3422 27.1578 40.3422 27.1578C39.751 27.1578 39.31 27.0231 39.0316 26.7579C38.83 26.5699 38.7326 26.319 38.7326 25.9888V22.172H36.0989V26.2597C36.0989 27.2003 36.4714 27.9977 37.2055 28.6295C37.9307 29.2548 38.8211 29.5727 39.8518 29.5727C39.8516 29.5727 41.4883 29.5727 41.7758 29.5727ZM33.6678 53.7613C32.9188 52.8485 32.5389 51.6497 32.5389 50.1977C32.5389 48.7088 32.9011 47.5097 33.6151 46.6345C34.3932 45.6759 35.5407 45.1903 37.0257 45.1903H37.1395V42.7063H37.0257C34.7101 42.7063 32.9225 43.4313 31.7129 44.8602C30.6129 46.1532 30.0552 47.9555 30.0552 50.2167C30.0552 52.4012 30.6608 54.198 31.8545 55.5558C33.11 56.9828 34.8621 57.708 37.0607 57.708H37.1744V55.2245H37.0607C35.6104 55.225 34.4688 54.7326 33.6678 53.7613ZM42.4894 53.7613C41.7404 52.8478 41.3605 51.6479 41.3605 50.1977C41.3605 48.7088 41.7229 47.5097 42.437 46.6345C43.2155 45.6759 44.3627 45.1903 45.8473 45.1903H45.9611V42.7063H45.8473C43.5315 42.7063 41.7441 43.4313 40.5351 44.8602C39.4348 46.1532 38.8768 47.9555 38.8768 50.2167C38.8768 52.4012 39.4822 54.198 40.6761 55.5558C41.9317 56.9828 43.6835 57.708 45.8823 57.708H45.9961V55.2245H45.8823C44.4323 55.225 43.2904 54.7326 42.4894 53.7613Z" fill="white"/>
<path d="M98.7984 27.7487C99.3035 28.8646 100.133 30.0075 102.388 31.5488C102.892 31.8951 103.45 32.6132 103.025 33.6227C102.599 34.6333 101.802 36.0682 102.28 36.6258C102.759 37.1852 104.46 37.4768 105.842 36.9191C105.842 36.9191 106.134 37.7961 106.64 38.3536C106.64 38.3536 106.401 38.8328 105.603 38.5938C105.603 38.5938 105.895 39.3107 105.497 40.0815C105.497 40.0815 104.567 39.923 104.168 39.0707C104.168 39.0707 103.795 39.7368 103.052 39.9744C103.052 39.9744 102.44 39.6567 102.573 38.4341C102.573 38.4341 102.121 39.5241 100.738 39.7091C100.738 39.7091 99.9418 38.6998 100.978 37.343C100.978 37.343 100.233 38.0091 98.8781 37.6895C98.8781 37.6895 98.6646 36.9985 99.888 36.04C99.888 36.04 98.5045 35.9884 97.9737 34.8183C97.9737 34.8183 98.5584 34.1006 99.9936 34.2607C99.9936 34.2607 98.6646 33.9674 98.373 32.3727C98.373 32.3727 99.3299 31.7615 100.846 32.7442C100.846 32.7442 100.58 32.2396 99.9416 31.7349C99.3035 31.2303 98.5327 29.8206 98.7984 27.7487Z" fill="#818AAD"/>
<path d="M104.361 43.7813C104.16 43.5145 104.01 43.2484 103.898 42.99C104.135 44.9242 104.222 46.2285 105.266 47.4811C105.266 47.4811 105.896 46.6417 105.489 44.6056C105.314 44.5551 105.118 44.4733 104.927 44.3438C104.927 44.3438 105.165 45.17 105.017 46.0038C105.017 46.0038 104.639 45.7295 104.361 43.7813Z" fill="#818AAD"/>
<path d="M102.555 43.5807C102.431 43.4234 102.19 43.0912 102.064 42.8535C101.977 43.9766 101.681 46.933 102.671 47.8581C102.671 47.8581 103.35 47.3615 103.59 43.051C103.446 43.2921 103.195 43.5485 103.071 43.688C103.071 43.688 103.237 45.0564 102.746 46.0206C102.745 46.0198 102.253 45.6472 102.555 43.5807Z" fill="#818AAD"/>
<path d="M100.195 45.8407C101.028 44.8437 101.277 41.8581 101.277 41.8581C101.392 41.7811 101.507 41.6967 101.623 41.6043C101.672 41.565 101.718 41.5259 101.762 41.4836C101.76 41.5924 101.765 41.7045 101.775 41.8171C101.655 43.6138 101.513 45.4662 100.952 46.3887C100.402 47.2918 99.3936 47.7604 99.3936 47.7604C98.4451 46.0749 99.5904 43.812 100.549 42.2404C100.667 42.1949 100.786 42.1405 100.907 42.0785C100.571 43.2894 99.9334 44.7282 100.195 45.8407Z" fill="#818AAD"/>
<path d="M97.8456 40.6567C97.84 40.8505 97.8758 41.0061 97.9009 41.0888C97.9117 41.1208 97.9238 41.1652 97.946 41.2099C97.1521 41.9902 96.5648 42.7336 95.388 44.3688C94.2093 46.0045 92.3461 46.0695 92.3461 46.0695C92.5254 44.7461 92.8857 43.699 93.8814 42.5708C94.8795 41.4419 96.1547 40.4128 97.094 39.7283C97.3347 39.8406 97.6494 39.9103 98.0481 39.8632C98.0783 39.8591 98.1077 39.8559 98.1407 39.8507C98.0135 40.0139 97.9384 40.1779 97.8959 40.3318C97.1851 40.7387 95.1262 41.7843 94.2913 43.4692C94.2915 43.4689 95.5954 43.0601 97.8456 40.6567Z" fill="#818AAD"/>
<path d="M96.3674 39.0083L96.4457 38.8689C96.4707 38.8236 96.4988 38.7819 96.5292 38.7405C95.7636 39.039 93.0334 40.0692 92.1506 40.5257C91.268 40.9844 89.9893 42.0252 89.296 44.1366C89.296 44.1366 91.1368 44.3031 92.6572 43.0447C94.1769 41.7846 95.948 40.0282 96.7047 39.4696C96.6285 39.3986 96.5711 39.3306 96.5292 39.276C96.5292 39.276 94.4727 41.0984 92.2976 41.8845C92.2976 41.8845 92.7627 41.041 93.6227 40.428C94.668 39.6824 95.4517 39.4323 96.3674 39.0083Z" fill="#818AAD"/>
<path d="M94.8074 37.7653C94.8364 37.6917 94.8674 37.623 94.8987 37.5551C93.9978 37.7394 91.7463 38.0083 90.7394 38.3161C89.7348 38.6244 87.915 39.361 86.8358 41.4189C86.8358 41.4189 88.421 41.9089 91.4105 40.5007C94.3993 39.0934 95.3363 38.8035 95.9074 38.6535C95.4515 38.62 95.1295 38.4659 94.9618 38.3632C93.7701 38.8926 92.1743 39.5229 90.5924 39.5629C90.5924 39.5629 91.3748 39.0101 92.1929 38.6667C93.0843 38.2928 94.0636 37.9548 94.8074 37.7653Z" fill="#818AAD"/>
<path d="M94.8823 36.2824C95.1749 36.4203 95.3999 36.489 95.7815 36.5298C95.5736 36.6627 95.374 36.8356 95.198 37.0649C94.1456 37.3679 92.3495 37.6999 89.3866 37.9146C86.4233 38.1283 84.8437 37.5827 84.8437 37.5827C85.8767 36.9524 87.5223 36.3107 88.6365 36.0966C89.7481 35.8816 92.6709 35.904 93.9528 35.7307C93.9677 35.7443 94.1246 35.8719 94.3739 36.0238C93.2971 36.1207 91.0009 36.2282 89.8151 36.8281C89.8151 36.8276 92.0033 37.1205 94.8823 36.2824Z" fill="#818AAD"/>
<path d="M94.6611 34.5798C94.8096 34.4915 94.9905 34.4045 95.2104 34.3221C93.712 33.8677 91.6507 33.1436 88.5548 32.9396C86.2804 32.7902 84.6391 32.9206 83.7915 33.1405C83.7915 33.1405 85.8595 34.5997 88.2265 35.1147C90.593 35.6297 92.5147 35.3025 93.9194 35.3139C94.0127 35.1758 94.1163 35.0212 94.2814 34.8652C92.6399 34.8753 89.906 34.4499 88.9271 34.1248C88.9271 34.1244 91.3107 33.6262 94.6611 34.5798Z" fill="#818AAD"/>
<path d="M94.6533 32.8159C94.6611 32.8573 94.8353 33.7028 95.8154 34.1718C93.712 33.2493 89.5613 32.7179 87.332 31.7915C84.3169 30.5398 83.7682 28.9757 83.7682 28.9757C86.3756 28.9075 88.4853 29.5451 90.1102 30.042C92.0135 30.6263 94.9108 31.7064 95.9259 32.1593C95.5454 32.1748 95.1299 32.2836 94.7787 32.5182C93.3617 31.9749 92.7027 31.7463 91.4163 31.3857C90.4027 31.1023 89.65 31.0459 89.0178 30.9851C89.0178 30.9851 89.9099 31.5752 91.3809 32.0475C92.8385 32.5122 93.47 32.5899 94.6533 32.8159Z" fill="#818AAD"/>
<path d="M94.493 30.5154C94.5785 30.665 94.8273 31.0227 94.9251 31.1649C91.5942 30.6067 87.9325 28.088 86.8011 26.5279C85.6687 24.9667 85.991 22.6349 85.991 22.6349C87.0879 22.8579 89.4756 24.9157 90.0927 25.5333C90.7098 26.1508 92.5793 27.9676 93.8694 28.9834L94.2756 30.1545C93.1679 29.2646 91.8519 28.2696 91.034 27.6533C90.4038 27.1774 89.4599 26.5065 88.5231 26.1847C88.5231 26.1847 89.3873 27.311 90.0835 27.8577C90.8879 28.4938 91.7075 29.0462 92.3796 29.4159C92.9782 29.7438 93.2838 29.9303 94.493 30.5154Z" fill="#818AAD"/>
<path d="M103.886 39.8365C103.988 39.7502 104.075 39.6619 104.147 39.5805C104.302 39.7746 104.815 40.4186 105.067 41.0578C105.26 41.6049 105.463 42.3479 105.566 42.7748C105.668 43.1998 105.971 44.0831 106.154 44.3878C106.154 44.3878 105.343 44.4895 104.743 43.7893C104.153 43.1001 103.952 42.4087 103.86 41.6971C103.787 41.1398 103.81 40.3696 103.886 39.8365Z" fill="#818AAD"/>
<path d="M102.607 39.9433C102.758 40.1449 102.903 40.2269 102.917 40.2347L103.026 40.2912L103.141 40.2545C103.241 40.2222 103.334 40.1846 103.422 40.1408C103.537 40.4689 103.587 40.6282 103.616 40.9068C103.656 41.277 103.728 41.8609 103.588 42.3381C103.419 42.919 103.071 43.2732 102.879 43.4983C102.879 43.4983 102.349 42.914 102.197 42.4318C102.038 41.9276 101.982 41.3407 102.177 40.7404C102.283 40.4151 102.455 40.1145 102.607 39.9433Z" fill="#818AAD"/>
<path d="M100.778 39.999C101.32 39.926 101.732 39.7294 102.041 39.5027C102.11 39.6938 102.216 39.9511 102.137 40.3156C102.058 40.6806 101.806 41.0849 101.442 41.3767C100.895 41.8129 100.161 42.225 99.3526 42.0985C99.3531 42.0983 99.1674 41.4922 100.778 39.999Z" fill="#818AAD"/>
<path d="M100.165 38.9852C100.231 39.5252 100.489 39.8639 100.51 39.8902C100.321 40.1162 99.6382 41.2898 98.2126 41.0912C98.2126 41.0912 97.8273 40.2941 98.7755 39.6582C99.4202 39.2286 99.7241 39.1414 100.165 38.9852Z" fill="#818AAD"/>
<path d="M100.29 37.9834C99.9103 38.0788 99.4162 38.1165 98.8112 37.9736L98.6474 37.9357L98.5995 37.7764C97.8671 38.3738 96.9988 38.4725 96.6998 39.0097C96.6998 39.0097 97.0642 39.6868 98.0135 39.5733C98.9619 39.4604 99.6748 39.0168 100.183 38.3801C100.203 38.2823 100.244 38.1053 100.29 37.9834Z" fill="#818AAD"/>
<path d="M98.6469 37.1441C98.7826 36.9445 98.8761 36.635 99.1595 36.3211C98.5329 36.2134 97.9659 36.2048 97.2298 36.3444C96.3548 36.5102 95.4625 36.7163 95.0153 38.0472C95.0153 38.0472 95.5773 38.526 96.5972 38.3179C97.4625 38.1407 98.2169 37.7679 98.6469 37.1441Z" fill="#818AAD"/>
<path d="M98.2767 35.6998C98.0557 35.5096 97.8553 35.262 97.7088 34.9398L97.6335 34.7744C96.8767 34.4645 96.0848 34.306 95.3133 34.5942C94.54 34.8839 94.3349 35.2182 94.1393 35.5066C94.1393 35.5066 94.9965 36.2234 95.9829 36.2513C96.9704 36.2791 97.8804 35.9959 98.2767 35.6998Z" fill="#818AAD"/>
<path d="M98.5048 34.1433C98.6351 34.0932 98.7825 34.0483 98.949 34.014C98.6122 33.7187 98.2816 33.2693 98.1214 32.5948C97.7702 32.6777 96.9418 32.6777 96.5788 32.5374C96.2161 32.3984 95.4991 32.3893 94.9409 32.7608C94.9409 32.7608 95.127 33.7379 96.3927 34.0731C97.5809 34.3878 98.0239 34.3067 98.5048 34.1433Z" fill="#818AAD"/>
<path d="M98.0501 32.2334L98.2167 32.1276C98.2389 32.1125 98.5226 31.9398 99.0058 31.9025C98.5979 31.5983 97.6303 30.7865 96.9417 30.3967C96.1936 29.9767 94.9497 29.42 94.317 29.3361C94.317 29.3361 94.9102 30.8955 95.6015 31.5226C96.3181 32.1747 96.8206 32.4168 98.0501 32.2334Z" fill="#818AAD"/>
<path d="M99.3284 31.5177C99.0258 31.1232 98.7869 30.5816 98.611 29.941C98.4668 29.4195 98.1417 28.1268 97.9461 27.7916C97.7517 27.4553 97.053 26.2828 95.6858 25.9204C95.6858 25.9204 95.3223 27.4462 96.0102 28.6563C96.6029 29.6975 97.8179 30.7968 99.3284 31.5177Z" fill="#818AAD"/>
<path d="M106.909 38.6208C107.081 38.7893 107.209 38.8852 107.514 39.038C107.514 39.038 107.95 39.8705 107.423 40.8746C106.894 41.88 106.448 42.9066 106.235 43.4754C106.235 43.4754 105.95 43.4348 105.636 41.8608C105.423 40.7943 105.154 40.5282 104.872 40.1641C105.177 40.3201 105.427 40.3676 105.447 40.3702L105.659 40.406L105.756 40.2172C105.943 39.8554 105.999 39.5057 105.999 39.2161C105.999 39.1204 105.993 39.0313 105.984 38.9508C106.474 38.9627 106.735 38.7147 106.835 38.5873C106.843 38.5752 106.852 38.5653 106.858 38.5549L106.909 38.6208Z" fill="#818AAD"/>
<path d="M95.3015 26.5609C95.297 26.7059 95.2939 26.8691 95.2993 27.0413L95.3272 27.4158C94.5219 26.3865 93.5553 25.1443 92.6336 24.002C92.0012 23.2174 91.4696 22.7432 90.8754 22.3607C91.375 23.8131 92.2693 24.972 92.9041 25.5494C93.5369 26.127 94.4528 27.1041 95.3464 27.6992L95.4329 27.9934C95.5027 28.2641 95.6076 28.5391 95.7563 28.8007C95.965 29.1676 96.2387 29.5298 96.5638 29.8778C96.3032 29.7504 96.0047 29.6116 95.7051 29.4845L95.4288 29.3697C92.9695 28.066 90.53 25.3653 89.5425 23.4831C88.5552 21.6031 88.9651 19.422 89.228 18.2516C90.3435 19.1983 91.9518 21.0622 92.6518 22.0771C93.5139 23.3214 94.6168 25.0847 95.3004 26.5177V26.5609H95.3015Z" fill="#818AAD"/>
<path d="M129.794 34.5798C129.644 34.4915 129.465 34.4045 129.244 34.3221C130.743 33.8677 132.804 33.1436 135.902 32.9396C138.174 32.7902 139.814 32.9206 140.664 33.1405C140.664 33.1405 138.595 34.5997 136.227 35.1147C133.862 35.6297 131.94 35.3025 130.536 35.3139C130.442 35.1758 130.339 35.0212 130.174 34.8652C131.815 34.8753 134.549 34.4499 135.527 34.1248C135.527 34.1244 133.144 33.6262 129.794 34.5798Z" fill="#818AAD"/>
<path d="M129.8 32.8159C129.794 32.8573 129.619 33.7028 128.639 34.1718C130.743 33.2493 134.893 32.7179 137.123 31.7915C140.138 30.5398 140.686 28.9757 140.686 28.9757C138.08 28.9075 135.968 29.5451 134.345 30.042C132.441 30.6263 129.542 31.7064 128.528 32.1593C128.909 32.1748 129.324 32.2836 129.675 32.5182C131.094 31.9749 131.753 31.7463 133.038 31.3857C134.052 31.1023 134.805 31.0459 135.437 30.9851C135.437 30.9851 134.544 31.5752 133.074 32.0475C131.615 32.5122 130.985 32.5899 129.8 32.8159Z" fill="#818AAD"/>
<path d="M129.96 30.5154C129.875 30.665 129.626 31.0227 129.529 31.1649C132.861 30.6067 136.522 28.088 137.655 26.5279C138.786 24.9667 138.464 22.6349 138.464 22.6349C137.365 22.8579 134.979 24.9157 134.362 25.5333C133.744 26.1508 131.875 27.9676 130.585 28.9834L130.179 30.1545C131.287 29.2646 132.602 28.2696 133.421 27.6533C134.05 27.1774 134.993 26.5065 135.933 26.1847C135.933 26.1847 135.067 27.311 134.371 27.8577C133.566 28.4938 132.749 29.0462 132.075 29.4159C131.478 29.7438 131.17 29.9303 129.96 30.5154Z" fill="#818AAD"/>
<path d="M129.153 26.5609C129.156 26.7059 129.16 26.8691 129.155 27.0413L129.127 27.4158C129.933 26.3865 130.899 25.1443 131.821 24.002C132.454 23.2174 132.985 22.7432 133.578 22.3607C133.079 23.8131 132.185 24.972 131.55 25.5494C130.917 26.127 130.001 27.1041 129.108 27.6992L129.021 27.9934C128.951 28.2641 128.846 28.5391 128.698 28.8007C128.487 29.1676 128.214 29.5298 127.89 29.8778C128.15 29.7504 128.449 29.6116 128.749 29.4845L129.025 29.3697C131.484 28.066 133.924 25.3653 134.912 23.4831C135.897 21.6031 135.49 19.422 135.226 18.2516C134.109 19.1983 132.502 21.0622 131.8 22.0771C130.939 23.3214 129.837 25.0847 129.153 26.5177V26.5609Z" fill="#818AAD"/>
<path d="M98.4453 41.4092C97.4312 42.4226 95.2937 44.6963 95.4955 47.1649C95.4955 47.1649 97.4807 46.5439 98.2974 45.0883C99.114 43.6326 99.6201 42.7206 99.9646 42.3919C99.7427 42.4223 99.5224 42.4215 99.3082 42.3876L99.1282 42.3576C98.6249 43.2736 97.627 44.777 96.7287 45.3006C96.7287 45.3006 96.4992 44.0839 99.1399 41.6177C99.1779 41.5173 99.231 41.4027 99.3048 41.2753C99.063 41.3608 98.7876 41.4128 98.4779 41.4053" fill="#818AAD"/>
<path d="M125.656 27.7485C125.15 28.8645 124.321 30.0074 122.067 31.5487C121.562 31.8949 121.005 32.6131 121.43 33.6226C121.855 34.6332 122.652 36.0681 122.173 36.6256C121.694 37.1851 119.993 37.4767 118.611 36.919C118.611 36.919 118.32 37.796 117.814 38.3535C117.814 38.3535 118.054 38.8327 118.852 38.5937C118.852 38.5937 118.559 39.3105 118.957 40.0813C118.957 40.0813 119.887 39.9229 120.286 39.0705C120.286 39.0705 120.658 39.7366 121.403 39.9743C121.403 39.9743 122.014 39.6566 121.882 38.434C121.882 38.434 122.334 39.524 123.715 39.709C123.715 39.709 124.513 38.6997 123.476 37.3429C123.476 37.3429 124.22 38.009 125.576 37.6893C125.576 37.6893 125.788 36.9984 124.566 36.0398C124.566 36.0398 125.947 35.9882 126.48 34.8181C126.48 34.8181 125.894 34.1005 124.46 34.2606C124.46 34.2606 125.788 33.9673 126.081 32.3726C126.081 32.3726 125.125 31.7613 123.61 32.7441C123.61 32.7441 123.875 32.2394 124.513 31.7348C125.15 31.2301 125.921 29.8204 125.656 27.7485Z" fill="#818AAD"/>
<path d="M120.092 43.7812C120.294 43.5144 120.444 43.2482 120.556 42.9899C120.32 44.9241 120.232 46.2284 119.188 47.481C119.188 47.481 118.558 46.6416 118.966 44.6055C119.141 44.555 119.337 44.4732 119.528 44.3437C119.528 44.3437 119.29 45.1699 119.437 46.0037C119.437 46.0037 119.815 45.7294 120.092 43.7812Z" fill="#818AAD"/>
<path d="M121.899 43.5807C122.024 43.4234 122.264 43.0912 122.391 42.8535C122.477 43.9766 122.773 46.933 121.784 47.8581C121.784 47.8581 121.103 47.3615 120.865 43.051C121.009 43.2921 121.26 43.5485 121.383 43.688C121.383 43.688 121.218 45.0564 121.709 46.0206C121.709 46.0198 122.201 45.6472 121.899 43.5807Z" fill="#818AAD"/>
<path d="M124.26 45.8406C123.426 44.8436 123.176 41.858 123.176 41.858C123.061 41.781 122.946 41.6966 122.83 41.6042C122.783 41.5649 122.736 41.5258 122.692 41.4835C122.693 41.5923 122.689 41.7043 122.678 41.817C122.799 43.6137 122.941 45.4661 123.502 46.3886C124.051 47.2917 125.061 47.7603 125.061 47.7603C126.009 46.0748 124.863 43.8119 123.906 42.2403C123.786 42.1947 123.667 42.1403 123.547 42.0784C123.884 43.2893 124.521 44.7281 124.26 45.8406Z" fill="#818AAD"/>
<path d="M126.608 40.6567C126.614 40.8505 126.577 41.0061 126.552 41.0888C126.541 41.1208 126.53 41.1652 126.509 41.2099C127.3 41.9902 127.89 42.7336 129.067 44.3688C130.244 46.0045 132.108 46.0695 132.108 46.0695C131.928 44.7461 131.568 43.699 130.572 42.5708C129.574 41.4419 128.298 40.4128 127.36 39.7283C127.118 39.8406 126.805 39.9103 126.407 39.8632C126.376 39.8591 126.345 39.8559 126.314 39.8507C126.439 40.0139 126.516 40.1779 126.558 40.3318C127.268 40.7387 129.329 41.7843 130.164 43.4692C130.164 43.4689 128.859 43.0601 126.608 40.6567Z" fill="#818AAD"/>
<path d="M128.086 39.0082L128.009 38.8688C127.984 38.8235 127.956 38.7818 127.926 38.7404C128.69 39.0389 131.422 40.0691 132.304 40.5256C133.187 40.9843 134.464 42.0251 135.16 44.1365C135.16 44.1365 133.319 44.3029 131.797 43.0445C130.276 41.7844 128.506 40.0281 127.749 39.4695C127.825 39.3985 127.884 39.3305 127.926 39.2759C127.926 39.2759 129.982 41.0983 132.157 41.8844C132.157 41.8844 131.692 41.0408 130.832 40.4278C129.785 39.6823 129.003 39.4321 128.086 39.0082Z" fill="#818AAD"/>
<path d="M129.647 37.7652C129.617 37.6916 129.586 37.6229 129.554 37.5549C130.456 37.7393 132.708 38.0082 133.714 38.316C134.719 38.6242 136.539 39.3609 137.618 41.4188C137.618 41.4188 136.034 41.9088 133.043 40.5006C130.054 39.0933 129.12 38.8034 128.547 38.6534C129.002 38.6199 129.325 38.4658 129.493 38.3631C130.686 38.8925 132.279 39.5228 133.862 39.5627C133.862 39.5627 133.08 39.0099 132.261 38.6665C131.371 38.2927 130.392 37.9547 129.647 37.7652Z" fill="#818AAD"/>
<path d="M129.572 36.2823C129.28 36.4202 129.054 36.4889 128.672 36.5297C128.882 36.6626 129.08 36.8355 129.257 37.0647C130.31 37.3678 132.105 37.6998 135.067 37.9145C138.031 38.1282 139.61 37.5826 139.61 37.5826C138.579 36.9523 136.932 36.3106 135.82 36.0965C134.705 35.8815 131.782 35.9039 130.5 35.7306C130.486 35.7442 130.33 35.8718 130.079 36.0237C131.157 36.1206 133.454 36.2281 134.638 36.828C134.638 36.8275 132.452 37.1204 129.572 36.2823Z" fill="#818AAD"/>
<path d="M120.569 39.8364C120.466 39.75 120.38 39.6618 120.307 39.5804C120.152 39.7744 119.64 40.4185 119.388 41.0576C119.195 41.6048 118.991 42.3477 118.889 42.7747C118.787 43.1997 118.483 44.0829 118.3 44.3877C118.3 44.3877 119.113 44.4894 119.712 43.7892C120.301 43.1 120.503 42.4086 120.594 41.697C120.666 41.1397 120.645 40.3695 120.569 39.8364Z" fill="#818AAD"/>
<path d="M121.846 39.9432C121.696 40.1448 121.551 40.2268 121.537 40.2346L121.43 40.2911L121.314 40.2544C121.213 40.222 121.121 40.1845 121.033 40.1407C120.918 40.4688 120.869 40.6281 120.839 40.9067C120.799 41.2769 120.726 41.8608 120.866 42.338C121.036 42.9188 121.383 43.273 121.574 43.4982C121.574 43.4982 122.105 42.9139 122.257 42.4317C122.416 41.9275 122.474 41.3406 122.277 40.7403C122.172 40.415 121.999 40.1143 121.846 39.9432Z" fill="#818AAD"/>
<path d="M123.676 39.9989C123.134 39.9259 122.721 39.7293 122.412 39.5026C122.344 39.6936 122.238 39.9509 122.318 40.3155C122.396 40.6805 122.649 41.0848 123.013 41.3766C123.558 41.8128 124.293 42.2249 125.101 42.0984C125.101 42.0982 125.287 41.4921 123.676 39.9989Z" fill="#818AAD"/>
<path d="M124.289 38.985C124.225 39.5251 123.964 39.8638 123.945 39.8901C124.134 40.1161 124.816 41.2896 126.241 41.0911C126.241 41.0911 126.626 40.2939 125.678 39.6581C125.033 39.2285 124.731 39.1413 124.289 38.985Z" fill="#818AAD"/>
<path d="M124.164 37.9832C124.544 38.0786 125.039 38.1164 125.643 37.9735L125.806 37.9355L125.855 37.7762C126.586 38.3737 127.454 38.4723 127.753 39.0096C127.753 39.0096 127.389 39.6867 126.441 39.5732C125.492 39.4603 124.778 39.0167 124.271 38.38C124.251 38.2822 124.21 38.1052 124.164 37.9832Z" fill="#818AAD"/>
<path d="M125.808 37.144C125.67 36.9444 125.578 36.6348 125.294 36.321C125.922 36.2133 126.49 36.2047 127.224 36.3443C128.1 36.5101 128.992 36.7162 129.438 38.0471C129.438 38.0471 128.876 38.5259 127.856 38.3178C126.991 38.1406 126.237 37.7678 125.808 37.144Z" fill="#818AAD"/>
<path d="M126.178 35.6996C126.398 35.5095 126.598 35.2619 126.745 34.9396L126.82 34.7743C127.58 34.4644 128.37 34.3059 129.14 34.5941C129.915 34.8837 130.118 35.2181 130.314 35.5065C130.314 35.5065 129.458 36.2233 128.471 36.2511C127.484 36.279 126.573 35.9958 126.178 35.6996Z" fill="#818AAD"/>
<path d="M125.947 34.1432C125.818 34.0931 125.672 34.0482 125.506 34.0139C125.843 33.7186 126.172 33.2692 126.332 32.5947C126.685 32.6776 127.513 32.6776 127.876 32.5373C128.239 32.3983 128.956 32.3892 129.513 32.7607C129.513 32.7607 129.329 33.7378 128.061 34.073C126.872 34.3877 126.432 34.3066 125.947 34.1432Z" fill="#818AAD"/>
<path d="M126.404 32.2332L126.237 32.1275C126.215 32.1124 125.931 31.9397 125.447 31.9023C125.856 31.5982 126.823 30.7864 127.512 30.3966C128.261 29.9766 129.504 29.4199 130.137 29.3359C130.137 29.3359 129.544 30.8954 128.853 31.5225C128.137 32.1745 127.634 32.4167 126.404 32.2332Z" fill="#818AAD"/>
<path d="M125.124 31.5176C125.427 31.123 125.668 30.5815 125.843 29.9409C125.987 29.4194 126.314 28.1267 126.508 27.7915C126.703 27.4552 127.402 26.2827 128.769 25.9203C128.769 25.9203 129.132 27.4461 128.444 28.6561C127.849 29.6974 126.636 30.7967 125.124 31.5176Z" fill="#818AAD"/>
<path d="M117.546 38.6208C117.372 38.7894 117.245 38.8852 116.941 39.0381C116.941 39.0381 116.505 39.8706 117.032 40.8747C117.56 41.8801 118.007 42.9067 118.22 43.4754C118.22 43.4754 118.503 43.4348 118.818 41.8609C119.032 40.7944 119.301 40.5283 119.583 40.1641C119.278 40.3202 119.028 40.3677 119.007 40.3703L118.796 40.4061L118.698 40.2172C118.51 39.8555 118.455 39.5058 118.455 39.2161C118.455 39.1205 118.462 39.0314 118.471 38.9509C117.98 38.9627 117.72 38.7147 117.618 38.5874C117.609 38.5753 117.602 38.5654 117.596 38.555L117.546 38.6208Z" fill="#818AAD"/>
<path d="M126.01 41.409C127.023 42.4224 129.16 44.6962 128.958 47.1648C128.958 47.1648 126.973 46.5438 126.157 45.0881C125.34 43.6325 124.835 42.7205 124.49 42.3918C124.711 42.4222 124.93 42.4214 125.147 42.3875L125.327 42.3575C125.83 43.2735 126.828 44.7769 127.727 45.3005C127.727 45.3005 127.955 44.0838 125.315 41.6175C125.277 41.5172 125.223 41.4026 125.15 41.2752C125.39 41.3607 125.666 41.4127 125.976 41.4051" fill="#818AAD"/>
<path d="M110.677 21.7315C110.677 21.55 111.372 21.4017 112.227 21.4017C113.084 21.4017 113.778 21.5502 113.778 21.7315C113.778 21.9141 113.084 22.0607 112.227 22.0607C111.371 22.0609 110.677 21.9139 110.677 21.7315Z" fill="#818AAD"/>
<path d="M105.415 23.5154C105.415 23.4152 105.862 23.3351 106.415 23.3351C106.966 23.3351 107.412 23.4152 107.412 23.5154C107.412 23.6151 106.966 23.6958 106.415 23.6958C105.862 23.6958 105.415 23.6149 105.415 23.5154Z" fill="#818AAD"/>
<path d="M112.531 22.4586C112.531 22.6269 112.395 22.7634 112.227 22.7634C112.058 22.7634 111.921 22.6269 111.921 22.4586C111.921 22.2902 112.058 22.1538 112.227 22.1538C112.396 22.1536 112.531 22.29 112.531 22.4586Z" fill="#818AAD"/>
<path d="M110.565 21.4103C110.049 20.1791 109.704 19.2734 109.718 18.9684C109.727 18.7828 109.946 18.6475 110.151 18.5849C110.356 18.521 110.54 18.5093 110.677 18.6131C110.945 18.8188 111.195 20.4793 111.287 21.1692C111.025 21.2203 110.869 21.2527 110.565 21.4103Z" fill="#818AAD"/>
<path d="M111.507 21.1424C111.637 21.129 111.772 21.1204 111.908 21.1159C111.826 20.4573 111.598 19.358 111.463 18.9248C111.329 18.4922 111.157 18.1806 110.874 18.1016C110.874 18.1016 111.094 18.7046 111.214 19.3293C111.335 19.9535 111.429 20.5503 111.507 21.1424Z" fill="#818AAD"/>
<path d="M110.726 23.2886C109.934 23.7518 109.045 23.679 109.045 23.679C109.216 23.3667 109.378 23.076 109.875 22.7209C110.372 22.3656 111.18 22.2765 111.498 22.3207C111.427 22.5586 111.101 23.0684 110.726 23.2886ZM109.875 23.3449C110.443 23.2096 111.025 22.6017 111.025 22.6017C110.108 22.7343 109.875 23.3449 109.875 23.3449Z" fill="#818AAD"/>
<path d="M105.178 23.7561C105.178 23.7561 106.163 24.1248 107.151 24.0756C108.136 24.0259 109.953 24.005 110.541 23.7205C110.541 23.7205 110.443 24.0894 109.974 24.3029C109.974 24.3029 110.223 24.3029 110.464 24.515C110.464 24.515 110.322 24.8198 109.904 24.9828C109.904 24.9828 110.654 25.7633 111.457 25.7067C111.457 25.7067 111.087 26.1676 110.265 25.9897C109.443 25.8138 109.18 25.3521 109.037 25.1751C109.037 25.1751 109.144 25.6146 109.094 25.7922C109.094 25.7922 108.732 25.7702 108.449 25.4156C108.449 25.4156 108.655 25.7706 108.696 26.0687C108.696 26.0687 108.471 26.0968 108.065 25.8561C108.065 25.8561 108.15 26.076 108.165 26.3305C108.165 26.3305 107.214 26.0253 106.752 25.5932C106.752 25.5932 106.746 25.89 106.767 26.0616C106.767 26.0629 105.291 25.9137 105.178 23.7561ZM107.767 24.5938V24.5293C106.986 24.629 106.065 24.5865 106.065 24.5865C106.114 24.8779 106.235 25.0981 106.44 25.233C106.491 24.6012 107.767 24.5938 107.767 24.5938Z" fill="#818AAD"/>
<path d="M104.951 23.9061C104.986 24.3739 105.107 24.8354 105.271 25.1611C105.271 25.1611 104.689 24.722 104.547 24.3534C104.404 23.9834 104.37 23.7291 104.951 23.9061Z" fill="#818AAD"/>
<path d="M105.208 25.3963C105.597 25.5733 105.944 25.9916 105.944 25.9916C105.355 26.1271 105.092 26.2968 105.092 26.2968C103.964 25.5023 103.036 26.3043 103.036 26.3043C102.426 25.957 102.306 25.1127 102.61 24.6654C102.915 24.2182 103.604 24.297 103.929 24.3738C104.135 25.0276 104.858 25.2387 105.208 25.3963ZM103.786 25.6793C103.92 25.6793 104.028 25.5722 104.028 25.439C104.028 25.3054 103.92 25.1971 103.786 25.1971C103.655 25.1971 103.546 25.3054 103.546 25.439C103.546 25.5722 103.654 25.6793 103.786 25.6793Z" fill="#818AAD"/>
<path d="M106.071 26.1407C106.071 26.1407 106.483 26.6873 106.781 26.9282C106.781 26.9282 105.263 26.9146 104.879 28.2273C104.879 28.2273 104.354 27.4248 104.738 26.9005C105.152 26.3331 105.532 26.2623 106.071 26.1407Z" fill="#818AAD"/>
<path d="M107.738 26.4671C107.738 26.4671 108.229 26.6095 108.39 26.6514C108.39 26.6514 108.398 26.368 108.385 26.2331C108.534 26.2683 108.716 26.3186 108.874 26.3315C108.874 26.3315 109.364 27.4243 109.747 27.8645C109.747 27.8645 109.768 28.106 109.555 28.4747C109.555 28.4747 109.278 27.8295 108.782 27.3119C108.5 27.0188 108.32 26.8709 107.738 26.4671Z" fill="#818AAD"/>
<path d="M106.447 26.2333C106.605 26.2761 107.387 26.5213 107.767 26.7943C108.242 27.1343 108.569 27.5241 108.518 28.1975C108.518 28.1975 108.136 27.6666 107.711 27.425C107.374 27.2342 106.767 26.7011 106.447 26.2333Z" fill="#818AAD"/>
<path d="M106.458 21.2924C106.604 21.2924 106.884 21.3608 106.884 21.5922C106.884 21.8262 106.521 22.3883 106.423 22.6395H106.415C106.317 22.3885 105.953 21.8262 105.953 21.5922C105.953 21.3613 106.235 21.2924 106.379 21.2924H106.458Z" fill="#818AAD"/>
<path d="M106.142 23.1072C106.073 22.7789 105.944 21.9285 105.741 21.7401C105.548 21.5609 105.266 21.5437 105.125 21.5529C104.984 21.5609 104.833 21.7079 104.893 21.8992C104.952 22.0915 105.581 23.0345 105.662 23.1526C105.809 23.1275 105.779 23.1357 106.142 23.1072Z" fill="#818AAD"/>
<path d="M106.697 23.1072C106.767 22.7789 106.896 21.9285 107.098 21.7401C107.289 21.5609 107.573 21.5437 107.713 21.5529C107.856 21.5609 108.005 21.7079 107.945 21.8992C107.887 22.0915 107.258 23.0345 107.176 23.1526C107.029 23.1275 107.059 23.1357 106.697 23.1072Z" fill="#818AAD"/>
<path d="M107.101 20.1489H106.612V19.6069H106.215V20.1489H105.724V20.4904H106.215V21.1289H106.612V20.4904H107.101V20.1489Z" fill="#818AAD"/>
<path d="M101.162 23.6432C101.163 23.5398 101.17 23.4353 101.184 23.3321C101.222 23.0686 101.224 22.8426 101.196 22.657C100.845 22.7912 100.605 22.8774 100.12 23.6609C100.119 23.6607 100.893 23.1832 101.162 23.6432Z" fill="#818AAD"/>
<path d="M101.839 24.8874C101.849 24.6922 101.977 24.0779 102.137 23.643C102.336 23.1125 102.223 22.3393 101.984 21.8716C101.754 21.4194 101.627 20.9946 101.669 20.5258C101.669 20.5258 101.209 20.6794 100.945 20.842C100.902 21.3859 101.219 21.9283 101.371 22.2383C101.55 22.6041 101.513 23.0792 101.473 23.3708C101.406 23.8645 101.507 24.3931 101.839 24.8874Z" fill="#818AAD"/>
<path d="M101.891 20.7307C101.874 20.6707 101.874 20.4991 101.907 20.4301C101.907 20.4301 102.628 19.7268 103.237 19.6068C103.62 19.5302 103.858 19.7001 103.97 19.7942C103.97 19.7942 103.755 19.7687 103.433 20.0325C103.109 20.2965 102.707 20.6135 102.402 20.6936C102.101 20.7726 102.036 20.7482 101.891 20.7307Z" fill="#818AAD"/>
<path d="M104.028 19.8473C104.302 20.1201 104.529 20.4063 104.526 20.655C104.521 20.9138 104.221 21.56 104.064 21.8078C103.907 22.056 103.677 22.3774 103.704 22.7705C103.717 22.9669 103.853 23.1689 104.015 23.3339C104.015 23.3339 103.131 23.1241 103.022 22.5782C102.927 22.0897 103.135 21.747 103.277 21.4765C103.409 21.2227 103.817 20.6293 103.92 20.3822C104.014 20.1581 104.063 19.9708 104.028 19.8473Z" fill="#818AAD"/>
<path d="M109.197 26.002C109.375 26.626 109.674 27.2124 109.97 27.6754C110.236 28.0937 110.406 28.7788 110.38 29.0111C110.38 29.0111 110.78 28.1293 110.574 27.5058C110.417 27.0242 109.987 26.3054 109.197 26.002Z" fill="#818AAD"/>
<path d="M110.193 26.2072C110.193 26.2072 110.797 26.2152 111.082 26.4023C111.447 26.6439 111.794 27.1686 111.926 27.7999C111.926 27.7999 111.313 27.694 111.011 27.3909C110.709 27.0883 110.335 26.635 110.193 26.2072Z" fill="#818AAD"/>
<path d="M107.052 27.302C106.935 27.3119 106.625 27.3827 106.472 27.4276C106.472 27.4276 106.989 27.5785 107.247 27.792C107.467 27.9729 107.657 28.2541 107.745 28.7264C107.871 29.3847 108.259 30.097 108.376 30.3105L108.423 30.3008C108.351 29.8468 108.635 28.9044 108.706 28.7708C108.706 28.7708 108.298 28.5127 108.11 28.2448C107.972 28.0486 107.728 27.7212 107.052 27.302Z" fill="#818AAD"/>
<path d="M109.74 28.7178C109.89 29.064 110.291 29.6776 110.104 30.3187C109.916 30.96 109.499 31.2354 109.24 31.778C109.24 31.778 109.035 30.7992 109.081 30.0429C109.125 29.2867 109.401 28.9934 109.74 28.7178Z" fill="#818AAD"/>
<path d="M110.904 28.7441C110.904 28.7441 111.507 29.9129 111.617 30.3729C111.723 30.8255 111.625 31.1286 111.42 31.4036C111.215 31.6794 110.869 31.9747 110.549 32.5521C110.549 32.5521 110.176 32.0626 110.13 31.8046C110.086 31.5465 110.157 30.9324 110.238 30.6742C110.317 30.4172 110.637 29.5892 110.904 28.7441Z" fill="#818AAD"/>
<path d="M111.215 32.4777C111.081 32.6206 110.377 33.4669 110.282 33.7143C110.187 33.9619 110.025 34.429 110.243 34.7523C110.464 35.0754 110.964 35.5948 111.404 35.8147C111.404 35.8147 110.928 35.0711 110.976 34.4611C111.007 34.0717 111.308 33.7242 111.366 33.4857C111.423 33.2489 111.385 32.8485 111.215 32.4777Z" fill="#818AAD"/>
<path d="M109.834 32.009C109.943 32.1588 110.132 32.5233 110.157 32.8788C110.182 33.2274 110.125 33.51 109.934 34.0239C109.694 34.6701 109.319 35.3911 109.147 35.714C109.147 35.714 108.815 35.2413 108.633 34.8191C108.633 34.8191 109.151 34.1117 109.37 33.6095C109.626 33.0198 109.734 32.473 109.834 32.009Z" fill="#818AAD"/>
<path d="M109.593 31.7357C109.593 31.7357 109.371 33.3998 108.392 34.6368C107.73 35.4739 107.19 35.7642 106.834 35.7642C106.296 35.7642 105.756 35.3159 105.573 34.8033C105.391 34.29 105.449 33.4944 105.797 33.2114C105.797 33.2114 106.121 34.2101 106.809 34.2466C107.587 34.29 108.591 33.4184 109.593 31.7357Z" fill="#818AAD"/>
<path d="M108.791 31.0399C108.873 31.3377 108.898 31.7947 108.791 32.2255C108.708 32.5516 108.509 32.9807 108.127 33.2195C107.796 33.4258 107.016 33.4763 106.718 32.7384C106.718 32.7388 108.143 32.8467 108.791 31.0399Z" fill="#818AAD"/>
<path d="M111.124 37.7529C111.319 38.253 112.017 38.8861 112.013 39.277C112 40.3126 111.549 40.9472 111.441 41.2886C111.441 41.2886 110.611 40.6301 110.464 39.8738C110.389 39.4881 110.476 38.3259 111.124 37.7529Z" fill="#818AAD"/>
<path d="M110.196 38.4839C110.294 38.2163 110.598 37.4841 110.95 37.2288C110.95 37.2288 111.403 35.8992 109.952 35.0835C109.952 35.0835 109.354 35.8759 109.197 36.6192C109.037 37.363 109.83 37.8135 110.196 38.4839Z" fill="#818AAD"/>
<path d="M108.381 35.1324C108.148 35.4118 107.819 35.8024 107.562 35.924C107.562 35.924 107.477 36.5177 107.525 36.9115C107.599 37.4966 107.976 38.0943 108.136 38.5337C108.136 38.5337 108.77 37.7047 108.843 37.2167C108.916 36.7284 108.903 36.3267 108.929 36.0951C108.929 36.0951 108.575 35.521 108.381 35.1324Z" fill="#818AAD"/>
<path d="M106.708 37.9758C106.529 37.7034 105.946 36.6969 105.938 35.9663C105.938 35.9663 106.654 36.3464 107.254 36.0682C107.254 36.0682 107.333 37.0175 107.217 37.3397C107.123 37.6007 106.999 37.757 106.708 37.9758Z" fill="#818AAD"/>
<path d="M106.874 38.1796C106.99 38.0784 107.275 37.8152 107.392 37.6765C107.392 37.6765 107.866 38.5459 107.947 38.8014C107.947 38.8014 107.71 38.8621 107.449 38.6722C107.189 38.482 107.129 38.4343 106.874 38.1796Z" fill="#818AAD"/>
<path d="M109.073 37.6689C109.014 37.889 108.247 38.9549 108.115 39.0859C108.115 39.0859 108.174 39.4727 108.459 40.0281C108.743 40.5832 109.138 40.9711 109.35 41.1684C109.35 41.1684 109.823 40.3417 109.964 39.9774C110.124 39.5606 110.106 39.1504 110.036 38.9985C109.875 38.6406 109.319 38.1219 109.073 37.6689Z" fill="#818AAD"/>
<path d="M110.226 40.4602C110.394 40.8038 110.907 41.3661 110.986 41.8105C111.048 42.1609 110.993 42.4462 110.899 42.6877C110.804 42.9284 110.497 43.3968 110.292 43.7547C110.292 43.7547 109.591 43.094 109.436 42.6215C109.319 42.2649 109.364 41.7594 109.532 41.4458C109.7 41.1317 110.066 40.7876 110.226 40.4602Z" fill="#818AAD"/>
<path d="M108.239 40.3644C108.423 40.7594 108.855 41.1557 108.955 41.5034C109.071 41.9126 109.108 42.1749 108.913 42.6508C108.737 43.0715 108.523 43.3152 108.45 43.5708C108.45 43.5708 107.88 42.8343 107.787 42.5269C107.691 42.2196 107.661 41.7154 107.779 41.3946C107.896 41.073 108.1 40.6558 108.239 40.3644Z" fill="#818AAD"/>
<path d="M111.044 43.17C111.044 43.17 110.065 44.3533 110.087 44.9811C110.117 45.7636 110.635 46.2821 110.709 46.7649C110.709 46.7649 111.222 46.1841 111.417 45.7936C111.637 45.3543 111.805 44.982 111.746 44.4853C111.687 43.9887 111.556 43.6679 111.044 43.17Z" fill="#818AAD"/>
<path d="M109.24 43.0532C109.394 43.28 109.832 44.0536 109.708 44.5144C109.584 44.9748 109.101 45.6241 108.941 45.9023C108.941 45.9023 108.553 45.1063 108.465 44.7409C108.379 44.3757 108.459 43.7842 109.24 43.0532Z" fill="#818AAD"/>
<path d="M119.038 23.5154C119.038 23.4152 118.592 23.3351 118.04 23.3351C117.489 23.3351 117.042 23.4152 117.042 23.5154C117.042 23.6151 117.489 23.6958 118.04 23.6958C118.592 23.6958 119.038 23.6149 119.038 23.5154Z" fill="#818AAD"/>
<path d="M112.236 20.4504C112.301 20.0038 112.819 19.0519 112.819 18.6349C112.819 18.3075 112.554 18.0417 112.227 18.0417C111.899 18.0417 111.634 18.3075 111.634 18.6349C111.634 19.0523 112.153 20.0038 112.216 20.4504H112.236Z" fill="#818AAD"/>
<path d="M113.889 21.4103C114.406 20.1791 114.749 19.2734 114.736 18.9684C114.726 18.7828 114.508 18.6475 114.302 18.5849C114.096 18.521 113.913 18.5093 113.778 18.6131C113.508 18.8188 113.259 20.4793 113.166 21.1692C113.429 21.2203 113.587 21.2527 113.889 21.4103Z" fill="#818AAD"/>
<path d="M112.947 21.1424C112.816 21.129 112.682 21.1204 112.547 21.1159C112.628 20.4573 112.855 19.358 112.99 18.9248C113.125 18.4922 113.296 18.1806 113.579 18.1016C113.579 18.1016 113.359 18.7046 113.238 19.3293C113.118 19.9535 113.026 20.5503 112.947 21.1424Z" fill="#818AAD"/>
<path d="M112.955 22.3205C113.273 22.276 114.083 22.3654 114.58 22.7207C115.077 23.0759 115.239 23.3667 115.409 23.6788C115.409 23.6788 114.519 23.7515 113.727 23.2883C113.353 23.0684 113.028 22.5586 112.955 22.3205ZM113.43 22.6011C113.43 22.6011 114.011 23.2091 114.58 23.3445C114.58 23.3449 114.345 22.7343 113.43 22.6011Z" fill="#818AAD"/>
<path d="M117.686 26.0628C117.709 25.8912 117.701 25.5944 117.701 25.5944C117.24 26.0263 116.289 26.3318 116.289 26.3318C116.303 26.0766 116.389 25.8575 116.389 25.8575C115.984 26.098 115.756 26.0699 115.756 26.0699C115.798 25.7714 116.004 25.417 116.004 25.417C115.721 25.7718 115.36 25.7936 115.36 25.7936C115.31 25.6158 115.416 25.1763 115.416 25.1763C115.275 25.3538 115.012 25.815 114.189 25.9909C113.365 26.169 112.996 25.708 112.996 25.708C113.8 25.7645 114.551 24.984 114.551 24.984C114.132 24.8208 113.989 24.5163 113.989 24.5163C114.231 24.3041 114.48 24.3041 114.48 24.3041C114.011 24.0906 113.913 23.7217 113.913 23.7217C114.502 24.0056 116.318 24.0265 117.304 24.077C118.289 24.1262 119.276 23.7574 119.276 23.7574C119.162 25.9137 117.686 26.0628 117.686 26.0628ZM118.014 25.2327C118.22 25.0978 118.34 24.8774 118.388 24.5862C118.388 24.5862 117.467 24.6289 116.687 24.529V24.5935C116.687 24.5938 117.964 24.6011 118.014 25.2327Z" fill="#818AAD"/>
<path d="M119.503 23.9061C119.467 24.3739 119.347 24.8354 119.184 25.1611C119.184 25.1611 119.764 24.722 119.907 24.3534C120.049 23.9834 120.085 23.7291 119.503 23.9061Z" fill="#818AAD"/>
<path d="M120.524 24.3741C120.851 24.2975 121.539 24.218 121.843 24.6657C122.149 25.1127 122.029 25.9567 121.419 26.3046C121.419 26.3046 120.488 25.5025 119.362 26.2971C119.362 26.2971 119.097 26.1276 118.509 25.9919C118.509 25.9919 118.856 25.5735 119.247 25.3966C119.595 25.2388 120.317 25.0277 120.524 24.3741ZM120.908 25.4391C120.908 25.3055 120.799 25.1971 120.666 25.1971C120.535 25.1971 120.425 25.3055 120.425 25.4391C120.425 25.5722 120.535 25.6793 120.666 25.6793C120.799 25.6793 120.908 25.5722 120.908 25.4391Z" fill="#818AAD"/>
<path d="M118.383 26.1407C118.383 26.1407 117.971 26.6873 117.674 26.9282C117.674 26.9282 119.191 26.9146 119.575 28.2273C119.575 28.2273 120.1 27.4248 119.716 26.9005C119.303 26.3331 118.921 26.2623 118.383 26.1407Z" fill="#818AAD"/>
<path d="M116.715 26.4671C116.715 26.4671 116.225 26.6095 116.063 26.6514C116.063 26.6514 116.055 26.368 116.07 26.2331C115.92 26.2683 115.735 26.3186 115.58 26.3315C115.58 26.3315 115.09 27.4243 114.708 27.8645C114.708 27.8645 114.685 28.106 114.899 28.4747C114.899 28.4747 115.175 27.8295 115.672 27.3119C115.953 27.0188 116.134 26.8709 116.715 26.4671Z" fill="#818AAD"/>
<path d="M118.007 26.2333C117.85 26.2761 117.067 26.5213 116.688 26.7943C116.212 27.1343 115.884 27.5241 115.934 28.1975C115.934 28.1975 116.319 27.6666 116.743 27.425C117.08 27.2342 117.686 26.7011 118.007 26.2333Z" fill="#818AAD"/>
<path d="M117.997 21.2924C117.851 21.2924 117.57 21.3608 117.57 21.5922C117.57 21.8262 117.934 22.3883 118.031 22.6395H118.04C118.137 22.3885 118.501 21.8262 118.501 21.5922C118.501 21.3613 118.22 21.2924 118.074 21.2924H117.997Z" fill="#818AAD"/>
<path d="M118.313 23.1072C118.381 22.7789 118.51 21.9285 118.714 21.7401C118.905 21.5609 119.187 21.5437 119.329 21.5529C119.471 21.5609 119.621 21.7079 119.562 21.8992C119.503 22.0915 118.873 23.0345 118.792 23.1526C118.645 23.1275 118.674 23.1357 118.313 23.1072Z" fill="#818AAD"/>
<path d="M117.755 23.1072C117.688 22.7789 117.559 21.9285 117.355 21.7401C117.163 21.5609 116.881 21.5437 116.739 21.5529C116.599 21.5609 116.448 21.7079 116.508 21.8992C116.566 22.0915 117.195 23.0345 117.277 23.1526C117.424 23.1275 117.395 23.1357 117.755 23.1072Z" fill="#818AAD"/>
<path d="M117.352 20.1489H117.842V19.6069H118.237V20.1489H118.729V20.4904H118.237V21.1289H117.842V20.4904H117.352V20.1489Z" fill="#818AAD"/>
<path d="M111.467 16.9416H111.955V16.3986H112.352V16.9416H112.844V17.2833H112.352V17.9205H111.955V17.2833H111.467V16.9416Z" fill="#818AAD"/>
<path d="M123.292 23.6432C123.292 23.5398 123.284 23.4353 123.27 23.3321C123.233 23.0686 123.229 22.8426 123.258 22.657C123.611 22.7912 123.849 22.8774 124.333 23.6609C124.334 23.6607 123.561 23.1832 123.292 23.6432Z" fill="#818AAD"/>
<path d="M122.614 24.8874C122.605 24.6922 122.477 24.0779 122.317 23.643C122.119 23.1125 122.231 22.3393 122.469 21.8716C122.699 21.4194 122.827 20.9946 122.785 20.5258C122.785 20.5258 123.244 20.6794 123.508 20.842C123.551 21.3859 123.234 21.9283 123.083 22.2383C122.903 22.6041 122.941 23.0792 122.98 23.3708C123.049 23.8645 122.946 24.3931 122.614 24.8874Z" fill="#818AAD"/>
<path d="M122.563 20.7307C122.581 20.6707 122.58 20.4991 122.547 20.4301C122.547 20.4301 121.825 19.7268 121.218 19.6068C120.834 19.5302 120.596 19.7001 120.485 19.7942C120.485 19.7942 120.698 19.7687 121.021 20.0325C121.345 20.2965 121.745 20.6135 122.052 20.6936C122.353 20.7726 122.42 20.7482 122.563 20.7307Z" fill="#818AAD"/>
<path d="M120.424 19.8473C120.152 20.1201 119.924 20.4063 119.929 20.655C119.934 20.9138 120.231 21.56 120.391 21.8078C120.549 22.056 120.779 22.3774 120.75 22.7705C120.735 22.9669 120.601 23.1689 120.44 23.3339C120.44 23.3339 121.324 23.1241 121.433 22.5782C121.528 22.0897 121.32 21.747 121.178 21.4765C121.044 21.2227 120.637 20.6293 120.535 20.3822C120.442 20.1581 120.392 19.9708 120.424 19.8473Z" fill="#818AAD"/>
<path d="M115.258 26.002C115.081 26.626 114.779 27.2124 114.484 27.6754C114.217 28.0937 114.048 28.7788 114.075 29.0111C114.075 29.0111 113.675 28.1293 113.879 27.5058C114.037 27.0242 114.465 26.3054 115.258 26.002Z" fill="#818AAD"/>
<path d="M114.261 26.2072C114.261 26.2072 113.656 26.2152 113.371 26.4023C113.007 26.6439 112.66 27.1686 112.527 27.7999C112.527 27.7999 113.141 27.694 113.443 27.3909C113.745 27.0883 114.12 26.635 114.261 26.2072Z" fill="#818AAD"/>
<path d="M117.403 27.302C117.518 27.3119 117.829 27.3827 117.98 27.4276C117.98 27.4276 117.464 27.5785 117.207 27.792C116.987 27.9729 116.798 28.2541 116.71 28.7264C116.584 29.3847 116.194 30.097 116.078 30.3105L116.032 30.3008C116.103 29.8468 115.819 28.9044 115.747 28.7708C115.747 28.7708 116.157 28.5127 116.345 28.2448C116.481 28.0486 116.727 27.7212 117.403 27.302Z" fill="#818AAD"/>
<path d="M114.715 28.7178C114.564 29.064 114.164 29.6776 114.35 30.3187C114.537 30.96 114.956 31.2354 115.214 31.778C115.214 31.778 115.419 30.7992 115.374 30.0429C115.329 29.2867 115.053 28.9934 114.715 28.7178Z" fill="#818AAD"/>
<path d="M112.235 30.5108C112.261 30.1376 113.13 29.233 113.087 28.7438C113.041 28.2539 112.39 27.9074 112.23 27.8364H112.222C112.062 27.907 111.411 28.2543 111.367 28.7438C111.322 29.233 112.191 30.1373 112.217 30.5108H112.235Z" fill="#818AAD"/>
<path d="M113.549 28.7441C113.549 28.7441 112.946 29.9129 112.837 30.3729C112.732 30.8255 112.829 31.1286 113.034 31.4036C113.238 31.6794 113.584 31.9747 113.906 32.5521C113.906 32.5521 114.279 32.0626 114.324 31.8046C114.367 31.5465 114.298 30.9324 114.217 30.6742C114.137 30.4172 113.816 29.5892 113.549 28.7441Z" fill="#818AAD"/>
<path d="M112.233 33.2683C112.51 33.0298 112.754 32.6777 112.831 32.4679C112.907 32.2585 112.929 31.9507 112.746 31.7174C112.527 31.4368 112.251 31.1253 112.233 30.87H112.219C112.199 31.1253 111.927 31.4368 111.708 31.7174C111.525 31.9507 111.547 32.2585 111.623 32.4679C111.7 32.6777 111.947 33.0298 112.222 33.2683H112.233Z" fill="#818AAD"/>
<path d="M113.24 32.4777C113.373 32.6206 114.077 33.4669 114.172 33.7143C114.267 33.9619 114.429 34.429 114.209 34.7523C113.991 35.0754 113.49 35.5948 113.051 35.8147C113.051 35.8147 113.526 35.0711 113.478 34.4611C113.447 34.0717 113.145 33.7242 113.087 33.4857C113.031 33.2489 113.07 32.8485 113.24 32.4777Z" fill="#818AAD"/>
<path d="M114.619 32.009C114.511 32.1588 114.322 32.5233 114.296 32.8788C114.271 33.2274 114.328 33.51 114.521 34.0239C114.761 34.6701 115.133 35.3911 115.308 35.714C115.308 35.714 115.639 35.2413 115.821 34.8191C115.821 34.8191 115.302 34.1117 115.083 33.6095C114.826 33.0198 114.719 32.473 114.619 32.009Z" fill="#818AAD"/>
<path d="M114.86 31.7357C114.86 31.7357 115.082 33.3998 116.061 34.6368C116.724 35.4739 117.262 35.7642 117.619 35.7642C118.158 35.7642 118.697 35.3159 118.88 34.8033C119.062 34.29 119.004 33.4944 118.656 33.2114C118.656 33.2114 118.333 34.2101 117.644 34.2466C116.865 34.29 115.862 33.4184 114.86 31.7357Z" fill="#818AAD"/>
<path d="M115.664 31.0399C115.582 31.3377 115.556 31.7947 115.664 32.2255C115.746 32.5516 115.945 32.9807 116.327 33.2195C116.658 33.4258 117.437 33.4763 117.735 32.7384C117.736 32.7388 116.311 32.8467 115.664 31.0399Z" fill="#818AAD"/>
<path d="M112.227 35.9824C112.429 35.8868 112.6 35.8141 112.832 35.4605C113.014 35.1823 113.186 34.6683 113.088 34.3036C112.967 33.8509 112.722 33.6692 112.575 33.3875C112.454 33.4987 112.381 33.5857 112.233 33.6716H112.226C112.078 33.5857 112.001 33.4982 111.879 33.3875C111.733 33.6692 111.487 33.8509 111.367 34.3036C111.271 34.6683 111.442 35.1823 111.623 35.4605C111.854 35.8141 112.025 35.8868 112.227 35.9824H112.227Z" fill="#818AAD"/>
<path d="M112.227 38.7892C112.325 38.35 113.247 37.4969 113.161 37.0333C113.033 36.3385 112.587 36.4855 112.232 36.1921H112.226C111.871 36.4855 111.42 36.3389 111.293 37.0333C111.209 37.4965 112.124 38.35 112.223 38.7892H112.227Z" fill="#818AAD"/>
<path d="M113.332 37.7529C113.136 38.253 112.437 38.8861 112.442 39.277C112.453 40.3126 112.905 40.9472 113.014 41.2886C113.014 41.2886 113.842 40.6301 113.989 39.8738C114.064 39.4881 113.978 38.3259 113.332 37.7529Z" fill="#818AAD"/>
<path d="M114.257 38.4839C114.16 38.2163 113.855 37.4841 113.503 37.2288C113.503 37.2288 113.051 35.8992 114.502 35.0835C114.502 35.0835 115.099 35.8759 115.259 36.6192C115.417 37.363 114.625 37.8135 114.257 38.4839Z" fill="#818AAD"/>
<path d="M116.074 35.1324C116.306 35.4118 116.635 35.8024 116.891 35.924C116.891 35.924 116.976 36.5177 116.928 36.9115C116.854 37.4966 116.477 38.0943 116.319 38.5337C116.319 38.5337 115.684 37.7047 115.61 37.2167C115.537 36.7284 115.55 36.3267 115.525 36.0951C115.525 36.0951 115.879 35.521 116.074 35.1324Z" fill="#818AAD"/>
<path d="M117.747 37.9758C117.925 37.7034 118.509 36.6969 118.516 35.9663C118.516 35.9663 117.799 36.3464 117.2 36.0682C117.2 36.0682 117.12 37.0175 117.238 37.3397C117.331 37.6007 117.455 37.757 117.747 37.9758Z" fill="#818AAD"/>
<path d="M117.582 38.1796C117.464 38.0784 117.178 37.8152 117.062 37.6765C117.062 37.6765 116.588 38.5459 116.507 38.8014C116.507 38.8014 116.745 38.8621 117.005 38.6722C117.264 38.482 117.324 38.4343 117.582 38.1796Z" fill="#818AAD"/>
<path d="M115.382 37.6689C115.44 37.889 116.208 38.9549 116.338 39.0859C116.338 39.0859 116.28 39.4727 115.995 40.0281C115.71 40.5832 115.316 40.9711 115.104 41.1684C115.104 41.1684 114.631 40.3417 114.49 39.9774C114.33 39.5606 114.35 39.1504 114.417 38.9985C114.578 38.6406 115.133 38.1219 115.382 37.6689Z" fill="#818AAD"/>
<path d="M112.233 43.9802C112.307 43.6877 112.75 43.3419 112.935 42.8343C113.044 42.5332 113.04 42.1822 112.92 41.9413C112.781 41.6639 112.285 40.9784 112.227 40.7803H112.225C112.166 40.9784 111.673 41.6639 111.534 41.9413C111.414 42.1815 111.41 42.5332 111.52 42.8343C111.705 43.3419 112.147 43.6871 112.22 43.9802H112.233Z" fill="#818AAD"/>
<path d="M114.228 40.4602C114.06 40.8038 113.548 41.3661 113.468 41.8105C113.405 42.1609 113.462 42.4462 113.554 42.6877C113.649 42.9284 113.957 43.3968 114.161 43.7547C114.161 43.7547 114.862 43.094 115.015 42.6215C115.133 42.2649 115.09 41.7594 114.921 41.4458C114.753 41.1317 114.389 40.7876 114.228 40.4602Z" fill="#818AAD"/>
<path d="M116.215 40.3644C116.032 40.7594 115.598 41.1557 115.499 41.5034C115.383 41.9126 115.346 42.1749 115.543 42.6508C115.718 43.0715 115.93 43.3152 116.003 43.5708C116.003 43.5708 116.573 42.8343 116.668 42.5269C116.764 42.2196 116.793 41.7154 116.676 41.3946C116.558 41.073 116.353 40.6558 116.215 40.3644Z" fill="#818AAD"/>
<path d="M112.227 49.6356C112.263 49.2748 113.009 48.1597 113.044 46.976C113.063 46.3846 112.533 45.4571 112.233 45.1059H112.218C111.917 45.4571 111.393 46.3846 111.409 46.976C111.446 48.1597 112.188 49.2748 112.225 49.6356H112.227Z" fill="#818AAD"/>
<path d="M113.409 43.17C113.409 43.17 114.39 44.3533 114.367 44.9811C114.339 45.7636 113.819 46.2821 113.745 46.7649C113.745 46.7649 113.232 46.1841 113.036 45.7936C112.817 45.3543 112.649 44.982 112.709 44.4853C112.766 43.9887 112.898 43.6679 113.409 43.17Z" fill="#818AAD"/>
<path d="M115.213 43.0532C115.059 43.28 114.623 44.0536 114.746 44.5144C114.87 44.9748 115.353 45.6241 115.513 45.9023C115.513 45.9023 115.901 45.1063 115.988 44.7409C116.075 44.3757 115.995 43.7842 115.213 43.0532Z" fill="#818AAD"/>
<path d="M112.898 51.5344C112.956 50.614 113.478 50.0636 113.569 49.5847C113.672 49.0584 113.636 48.5549 113.227 47.9485C112.898 49.0804 112.533 49.9067 112.248 50.4759C112.241 50.4895 112.234 50.5059 112.227 50.5227C112.219 50.5059 112.213 50.4904 112.206 50.4759C111.921 49.9067 111.555 49.0804 111.226 47.9485C110.818 48.5553 110.782 49.0591 110.883 49.5847C110.977 50.0636 111.498 50.6145 111.555 51.5344C111.613 52.4556 110.577 52.807 110.577 52.807C110.927 52.9314 111.325 52.9875 111.957 52.3887C112.074 52.2791 112.161 52.1593 112.227 52.0337C112.293 52.1593 112.38 52.2791 112.497 52.3887C113.128 52.9868 113.526 52.9314 113.876 52.807C113.876 52.8077 112.839 52.4556 112.898 51.5344Z" fill="#818AAD"/>
<path d="M109.634 45.415C109.743 45.759 110.066 46.3938 110.107 46.589C110.185 46.9533 110.081 47.3949 109.415 47.865C109.415 47.865 108.984 47.5644 108.814 47.1674C108.655 46.796 108.747 46.5354 108.914 46.3433C109.079 46.1501 109.469 45.7038 109.634 45.415Z" fill="#818AAD"/>
<path d="M111.034 46.7764C111.034 46.961 110.895 48.0033 110.599 48.5196C110.185 49.2455 109.573 49.786 109.039 49.786C108.543 49.786 108.439 49.4918 108.192 49.3703C108.192 49.3703 108.318 48.74 108.874 48.5736C109.559 48.3713 110.608 47.5496 111.034 46.7764Z" fill="#818AAD"/>
<path d="M109.249 48.1041C109.134 48.0161 109.033 47.9556 108.895 47.7955C108.895 47.7955 108.367 47.9915 107.933 48.2837C107.498 48.576 107.072 49.0724 106.843 49.3329C106.843 49.3329 107.494 49.5007 107.906 49.3139C107.906 49.3139 108.057 48.6921 108.52 48.4147C108.624 48.3541 108.947 48.2595 109.249 48.1041Z" fill="#818AAD"/>
<path d="M108.706 47.5708C108.606 47.4148 108.4 47.1255 108.445 46.6738C108.445 46.6738 107.531 47.2509 107.256 47.473C106.98 47.696 106.411 48.2851 106.283 48.4789C106.283 48.4789 106.974 48.3289 107.505 48.1508C108.089 47.9565 108.492 47.696 108.706 47.5708Z" fill="#818AAD"/>
<path d="M107.158 48.5616C106.666 48.7371 105.557 48.9169 105.094 49.0536C104.628 49.1906 104.293 49.43 103.849 49.9144C103.849 49.9144 104.53 50.1032 104.893 50.2196C104.893 50.2196 105.473 49.8237 106.107 49.5813C106.519 49.4242 106.72 48.9903 107.158 48.5616Z" fill="#818AAD"/>
<path d="M106.128 51.8295C106.234 51.7145 106.367 51.5778 106.265 51.3031C106.191 51.101 105.791 50.8807 105.547 50.7639C105.15 50.575 104.048 50.28 103.689 50.1738C103.689 50.1738 103.511 50.3842 103.415 50.6059C103.373 50.6914 103.428 50.7805 103.584 50.8075C103.89 50.8602 104.629 50.7222 104.809 50.8388C105.004 50.9657 104.936 51.1356 104.936 51.3037C104.936 51.3037 105.273 51.0993 105.484 51.1453C105.779 51.2079 105.958 51.3452 106.128 51.8295Z" fill="#818AAD"/>
<path d="M105.147 50.2972C105.226 50.3238 105.655 50.4552 106.075 50.721C106.075 50.721 106.26 50.6484 106.352 50.4777C106.44 50.3141 106.818 49.7572 107.163 49.6821C107.163 49.6821 106.869 49.6534 106.701 49.6007C106.701 49.6007 106.342 49.6935 106.087 49.7954C105.833 49.8997 105.516 50.0561 105.147 50.2972Z" fill="#818AAD"/>
<path d="M107.99 49.5944C107.922 49.6257 107.811 49.6779 107.553 49.6885C107.553 49.6885 106.583 50.3617 106.47 51.0312C106.373 51.6058 106.675 51.8804 106.82 51.9529C106.968 52.0263 107.643 52.3041 108.083 51.3973C108.083 51.3973 107.333 51.6445 107.129 51.2827C106.925 50.9214 107.255 50.3967 107.46 50.2447C107.727 50.0444 108.21 49.9086 108.501 49.9617C108.502 49.9615 108.268 49.7364 107.99 49.5944Z" fill="#818AAD"/>
<path d="M101.639 57.2883C101.758 56.7964 101.888 56.2764 102.114 55.7998C102.551 54.8732 103.627 52.4028 105.867 51.966C106.078 51.9252 105.626 51.4043 105.424 51.4307C105.223 51.4555 104.824 51.7136 104.646 51.8304C104.646 51.8304 104.646 51.304 104.641 51.2098C104.635 51.1153 104.553 51.0803 104.465 51.0838C104.38 51.0859 103.837 51.0803 103.666 51.2772C103.156 51.8673 102.294 53.4583 101.806 54.6427C101.317 55.8255 100.983 56.1864 100.468 56.0053C99.9525 55.8257 99.6451 55.2347 98.7452 55.4152C98.4355 55.4754 98.0901 55.6858 97.819 55.9945C97.8944 56.1387 97.9885 56.3148 98.4098 56.3148C98.8292 56.3148 99.6298 56.4914 100.078 56.8035C100.523 57.1141 100.993 57.2181 101.639 57.2883Z" fill="#818AAD"/>
<path d="M110.585 49.6319C110.634 50.0122 110.819 50.3718 111.023 50.7431C111.023 50.7431 110.341 53.891 107.874 54.1342C107.874 54.1342 107.924 53.4822 108.655 52.9846C109.386 52.4875 110.478 51.717 110.398 50.5471C110.398 50.5471 110.204 50.5872 109.854 51.0256C109.502 51.4636 108.733 52.7308 107.544 52.7409C107.544 52.7409 107.719 52.1465 108.245 51.8037C108.773 51.4636 109.445 51.0256 109.748 50.4977C110.049 49.9721 110.371 49.7292 110.585 49.6319Z" fill="#818AAD"/>
<path d="M109.42 61.0945L110.921 63.1956L112.058 61.1707L111.655 60.4489C111.359 60.9827 111.04 61.5573 110.859 61.87C110.721 61.6749 110.342 61.1442 109.846 60.4489L109.42 61.0945Z" fill="#818AAD"/>
<path d="M109.036 59.3163C107.575 57.2688 105.767 54.7322 105.584 54.4762L106.152 54.0672L104.361 53.3834L104.395 55.3309L105 54.8958L108.613 59.9611L109.036 59.3163Z" fill="#818AAD"/>
<path d="M96.695 47.8115C97.1371 47.3301 97.8865 47.7443 98.642 48.4413C99.3992 49.1357 99.876 49.8478 99.4339 50.3291C99.0257 50.7731 98.2422 50.3954 97.4859 49.7006C96.7294 49.0051 96.2521 48.2922 96.695 47.8115Z" fill="#818AAD"/>
<path d="M97.915 56.3656C97.8908 56.3467 97.8677 56.3251 97.8449 56.305C97.4432 55.9525 97.2135 55.4112 97.2135 54.8198C97.2135 53.6816 98.1388 52.7556 99.277 52.7556C100.415 52.7556 101.339 53.681 101.339 54.8198C101.339 54.9741 101.309 55.2249 101.309 55.2249C101.403 55.0483 101.742 54.262 101.811 54.1191C101.503 53.0079 100.484 52.1908 99.277 52.1908C98.2388 52.1908 97.3391 52.7949 96.9135 53.6702C97.0758 52.6298 97.593 51.6939 97.961 51.3468C98.3996 50.9328 99.1462 50.8005 99.1462 50.8005C98.6575 50.8788 98.0113 50.5775 97.2891 49.9147C96.6035 49.284 96.2495 48.7346 96.2286 48.2747C96.2737 48.9244 96.2511 49.2881 96.07 49.8147C95.8189 50.5356 95.1379 51.8607 95.3801 53.3563C95.5161 54.1793 96.1103 55.4023 97.1073 56.4013C97.3184 56.6268 97.3996 56.9577 97.424 57.1315C97.424 57.1315 98.8949 57.1315 99.2438 57.1619C99.2438 57.1619 99.5926 57.1315 99.5869 56.9133C99.5816 56.6952 99.3875 56.6396 99.2131 56.6396C99.0374 56.6402 98.3068 56.657 97.915 56.3656Z" fill="#818AAD"/>
<path d="M106.043 56.8654C105.098 57.2081 104.156 57.3886 103.26 57.5261C102.678 57.6154 102.109 57.6459 101.563 57.6189C101.572 57.7091 101.571 57.8302 101.518 57.9178C101.518 57.9178 101.628 58.0456 101.628 58.1876C102.182 58.2101 102.759 58.1766 103.348 58.0855C104.325 57.936 105.353 57.7365 106.387 57.3465L106.043 56.8654Z" fill="#818AAD"/>
<path d="M107.592 56.7933C108.846 56.1074 110.071 55.0519 111.173 53.3637L111.371 53.0324C111.071 53.1656 110.683 53.0741 110.683 53.0741C110.666 53.1028 110.616 53.177 110.592 53.2187C109.562 54.7398 108.423 55.697 107.257 56.3236L107.592 56.7933Z" fill="#818AAD"/>
<path d="M99.3245 57.3316C99.1509 57.3034 98.6016 57.3178 98.2709 57.3688C97.9103 57.4262 97.4978 57.4998 97.4557 57.6988C97.4147 57.8881 97.5455 58.0897 97.7281 58.3759C97.8414 58.5529 98.1093 58.4523 98.2586 58.3966C98.4086 58.3401 99.2554 57.8866 99.3927 57.7359C99.5291 57.5861 99.5859 57.375 99.3245 57.3316Z" fill="#818AAD"/>
<path d="M100.189 57.8913C100.098 57.833 99.8777 57.7488 99.6467 57.8356C99.4173 57.9224 98.5815 58.4154 98.5258 58.6459C98.4701 58.8756 98.5841 58.9936 98.7134 59.0452C98.8431 59.0957 99.0013 59.1452 99.1153 59.1562C99.3242 59.173 99.5289 59.0513 99.6346 58.9205C99.7421 58.789 100.133 58.3154 100.189 58.2097C100.245 58.1039 100.277 57.9474 100.189 57.8913Z" fill="#818AAD"/>
<path d="M100.291 58.4099C100.171 58.5457 99.8322 58.9558 99.7916 59.0229C99.7521 59.0905 99.8114 59.1958 99.9185 59.1848C100.023 59.1738 100.598 59.1144 100.929 58.888C101.258 58.6625 101.48 58.2286 101.253 58.0698C101.026 57.9098 100.674 57.9815 100.291 58.4099Z" fill="#818AAD"/>
<path d="M100.475 57.1569C100.367 57.1304 99.9333 57.019 99.8379 57.1628C99.7207 57.3419 99.8046 57.5347 100.142 57.6974C100.479 57.8593 101.116 57.9884 101.24 57.8138C101.366 57.6376 101.192 57.3417 100.475 57.1569Z" fill="#818AAD"/>
<path d="M114.817 45.415C114.708 45.759 114.387 46.3938 114.344 46.589C114.267 46.9533 114.372 47.3949 115.037 47.865C115.037 47.865 115.467 47.5644 115.639 47.1674C115.798 46.796 115.704 46.5354 115.539 46.3433C115.372 46.1501 114.983 45.7038 114.817 45.415Z" fill="#818AAD"/>
<path d="M113.418 46.7764C113.418 46.961 113.557 48.0033 113.854 48.5196C114.267 49.2455 114.878 49.786 115.414 49.786C115.91 49.786 116.014 49.4918 116.259 49.3703C116.259 49.3703 116.134 48.74 115.576 48.5736C114.894 48.3713 113.844 47.5496 113.418 46.7764Z" fill="#818AAD"/>
<path d="M115.203 48.1041C115.319 48.0161 115.417 47.9556 115.556 47.7955C115.556 47.7955 116.085 47.9915 116.518 48.2837C116.953 48.576 117.379 49.0724 117.608 49.3329C117.608 49.3329 116.958 49.5007 116.545 49.3139C116.545 49.3139 116.394 48.6921 115.93 48.4147C115.829 48.3541 115.505 48.2595 115.203 48.1041Z" fill="#818AAD"/>
<path d="M115.746 47.5708C115.846 47.4148 116.053 47.1255 116.008 46.6738C116.008 46.6738 116.922 47.2509 117.197 47.473C117.472 47.696 118.042 48.2851 118.171 48.4789C118.171 48.4789 117.478 48.3289 116.947 48.1508C116.363 47.9565 115.962 47.696 115.746 47.5708Z" fill="#818AAD"/>
<path d="M117.295 48.5616C117.786 48.7371 118.894 48.9169 119.359 49.0536C119.823 49.1902 120.159 49.43 120.603 49.9144C120.603 49.9144 119.923 50.1032 119.559 50.2196C119.559 50.2196 118.98 49.8237 118.346 49.5813C117.933 49.4242 117.734 48.9903 117.295 48.5616Z" fill="#818AAD"/>
<path d="M118.323 51.8295C118.219 51.7145 118.085 51.5778 118.187 51.3031C118.261 51.101 118.662 50.8807 118.905 50.7639C119.303 50.575 120.405 50.28 120.762 50.1738C120.762 50.1738 120.942 50.3842 121.036 50.6059C121.079 50.6914 121.023 50.7805 120.868 50.8075C120.562 50.8602 119.821 50.7222 119.643 50.8388C119.449 50.9657 119.516 51.1356 119.516 51.3037C119.516 51.3037 119.18 51.0993 118.967 51.1453C118.673 51.2079 118.493 51.3452 118.323 51.8295Z" fill="#818AAD"/>
<path d="M119.306 50.2972C119.227 50.3238 118.797 50.4552 118.376 50.721C118.376 50.721 118.192 50.6484 118.101 50.4777C118.012 50.3141 117.635 49.7572 117.29 49.6821C117.29 49.6821 117.582 49.6534 117.751 49.6007C117.751 49.6007 118.11 49.6935 118.365 49.7954C118.62 49.8997 118.936 50.0561 119.306 50.2972Z" fill="#818AAD"/>
<path d="M116.463 49.5944C116.53 49.6257 116.64 49.6779 116.897 49.6885C116.897 49.6885 117.869 50.3617 117.982 51.0312C118.08 51.6058 117.779 51.8804 117.632 51.9529C117.484 52.0263 116.808 52.3041 116.368 51.3973C116.368 51.3973 117.117 51.6445 117.322 51.2827C117.527 50.9214 117.197 50.3967 116.992 50.2447C116.725 50.0444 116.243 49.9086 115.948 49.9617C115.947 49.9615 116.184 49.7364 116.463 49.5944Z" fill="#818AAD"/>
<path d="M122.812 57.2883C122.693 56.7964 122.563 56.2764 122.337 55.7998C121.901 54.8732 120.826 52.4028 118.586 51.966C118.374 51.9252 118.828 51.4043 119.027 51.4307C119.23 51.4555 119.629 51.7136 119.806 51.8304C119.806 51.8304 119.806 51.304 119.811 51.2098C119.816 51.1153 119.899 51.0803 119.987 51.0838C120.072 51.0859 120.616 51.0803 120.786 51.2772C121.296 51.8673 122.158 53.4583 122.646 54.6427C123.135 55.8255 123.469 56.1864 123.983 56.0053C124.499 55.8257 124.807 55.2347 125.706 55.4152C126.017 55.4754 126.36 55.6858 126.633 55.9945C126.558 56.1387 126.462 56.3148 126.043 56.3148C125.621 56.3148 124.822 56.4914 124.374 56.8035C123.927 57.1141 123.458 57.2181 122.812 57.2883Z" fill="#818AAD"/>
<path d="M113.867 49.6319C113.82 50.0122 113.633 50.3718 113.429 50.7431C113.429 50.7431 114.111 53.891 116.577 54.1342C116.577 54.1342 116.529 53.4822 115.799 52.9846C115.067 52.4875 113.976 51.717 114.053 50.5471C114.053 50.5471 114.247 50.5872 114.599 51.0256C114.951 51.4636 115.719 52.7308 116.908 52.7409C116.908 52.7409 116.732 52.1465 116.207 51.8037C115.681 51.4636 115.007 51.0256 114.706 50.4977C114.402 49.9721 114.081 49.7292 113.867 49.6319Z" fill="#818AAD"/>
<path d="M112.231 52.6825C112.374 53.1027 113.308 54.4185 113.716 54.7937C114.126 55.1697 115.121 56.1643 115.65 56.6625C115.65 56.6625 114.137 56.2865 113.287 55.5133C113.287 55.5133 112.68 55.8671 112.238 55.8671H112.214C111.773 55.8671 111.167 55.5133 111.167 55.5133C110.316 56.2865 108.801 56.6625 108.801 56.6625C109.333 56.1637 110.326 55.1697 110.736 54.7937C111.145 54.4185 112.08 53.1027 112.224 52.6825H112.231Z" fill="#818AAD"/>
<path d="M112.235 56.176C112.57 56.176 112.888 56.0424 113.065 55.9651C112.889 56.3411 112.548 56.9263 112.229 57.1695H112.222C111.901 56.9263 111.564 56.3411 111.387 55.9651C111.564 56.0417 111.878 56.176 112.214 56.176H112.235Z" fill="#818AAD"/>
<path d="M113.53 63.1961L119.453 54.8975L120.057 55.3322L120.092 53.3846L118.3 54.0684L118.867 54.4775C118.576 54.8856 114.149 61.0916 113.591 61.8719L110.909 57.0128L110.578 57.5166L108.191 61.1232L107.595 60.7243L107.586 62.6442L109.396 61.925L108.79 61.5229C109.118 61.0258 110.413 59.0702 110.846 58.4158L113.53 63.1961Z" fill="#818AAD"/>
<path d="M114.612 59.9355C114.212 59.3327 113.81 58.7259 113.606 58.4145C113.456 58.6931 113.15 59.2386 112.812 59.8436L112.388 59.086L113.542 57.0115L113.874 57.5153L115.06 59.3083L114.612 59.9355Z" fill="#818AAD"/>
<path d="M115.832 60.4756L116.259 61.1218L116.857 60.7229L116.867 62.6429L115.055 61.9237L115.66 61.5216C115.599 61.4275 115.503 61.2809 115.385 61.1033L115.832 60.4756Z" fill="#818AAD"/>
<path d="M127.759 47.8115C127.314 47.3301 126.567 47.7443 125.809 48.4413C125.052 49.1357 124.576 49.8478 125.018 50.3291C125.427 50.7731 126.21 50.3954 126.967 49.7006C127.723 49.0051 128.2 48.2922 127.759 47.8115Z" fill="#818AAD"/>
<path d="M126.537 56.3656C126.563 56.3467 126.584 56.3251 126.606 56.305C127.008 55.9525 127.239 55.4112 127.239 54.8198C127.239 53.6816 126.314 52.7556 125.175 52.7556C124.038 52.7556 123.114 53.681 123.114 54.8198C123.114 54.9741 123.144 55.2249 123.144 55.2249C123.052 55.0483 122.711 54.262 122.643 54.1191C122.95 53.0079 123.969 52.1908 125.175 52.1908C126.214 52.1908 127.113 52.7949 127.54 53.6702C127.377 52.6298 126.859 51.6939 126.492 51.3468C126.054 50.9328 125.305 50.8005 125.305 50.8005C125.796 50.8788 126.441 50.5775 127.163 49.9147C127.849 49.284 128.202 48.7346 128.223 48.2747C128.179 48.9244 128.2 49.2881 128.383 49.8147C128.633 50.5356 129.314 51.8607 129.071 53.3563C128.937 54.1793 128.342 55.4023 127.346 56.4013C127.133 56.6268 127.053 56.9577 127.028 57.1315C127.028 57.1315 125.558 57.1315 125.209 57.1619C125.209 57.1619 124.86 57.1315 124.865 56.9133C124.872 56.6952 125.066 56.6396 125.239 56.6396C125.415 56.6402 126.145 56.657 126.537 56.3656Z" fill="#818AAD"/>
<path d="M116.857 56.7916C115.604 56.1048 114.382 55.0497 113.278 53.3637L113.081 53.0324C113.381 53.1656 113.77 53.0741 113.77 53.0741C113.788 53.1028 113.836 53.177 113.861 53.2187C114.889 54.7376 116.027 55.6964 117.193 56.3228L116.857 56.7916Z" fill="#818AAD"/>
<path d="M118.405 56.8637C119.353 57.2082 120.296 57.3882 121.191 57.5255C121.773 57.6149 122.343 57.6453 122.889 57.6183C122.88 57.7085 122.882 57.8296 122.934 57.9173C122.934 57.9173 122.825 58.0446 122.825 58.1871C122.268 58.2095 121.693 58.1761 121.104 58.085C120.128 57.9354 119.097 57.7359 118.065 57.3455L118.405 56.8637Z" fill="#818AAD"/>
<path d="M125.129 57.3316C125.303 57.3034 125.852 57.3178 126.182 57.3688C126.542 57.4262 126.955 57.4998 126.998 57.6988C127.04 57.8881 126.909 58.0897 126.724 58.3759C126.61 58.5529 126.342 58.4523 126.192 58.3966C126.044 58.3401 125.197 57.8866 125.059 57.7359C124.924 57.5861 124.867 57.375 125.129 57.3316Z" fill="#818AAD"/>
<path d="M124.262 57.8913C124.354 57.833 124.575 57.7488 124.806 57.8356C125.034 57.9224 125.871 58.4154 125.926 58.6459C125.981 58.8756 125.868 58.9936 125.739 59.0452C125.609 59.0957 125.45 59.1452 125.337 59.1562C125.13 59.173 124.924 59.0513 124.817 58.9205C124.712 58.789 124.32 58.3154 124.262 58.2097C124.206 58.1039 124.177 57.9474 124.262 57.8913Z" fill="#818AAD"/>
<path d="M124.161 58.4099C124.282 58.5457 124.62 58.9558 124.661 59.0229C124.7 59.0905 124.641 59.1958 124.535 59.1848C124.429 59.1738 123.854 59.1144 123.524 58.888C123.193 58.6625 122.972 58.2286 123.2 58.0698C123.426 57.9098 123.779 57.9815 124.161 58.4099Z" fill="#818AAD"/>
<path d="M123.976 57.1569C124.085 57.1304 124.519 57.019 124.615 57.1628C124.733 57.3419 124.649 57.5347 124.312 57.6974C123.974 57.8593 123.338 57.9884 123.211 57.8138C123.087 57.6376 123.262 57.3417 123.976 57.1569Z" fill="#818AAD"/>
</svg>
