<svg width="152" height="80" viewBox="0 0 152 80" fill="none" xmlns="http://www.w3.org/2000/svg">
<path d="M56.1539 52.4147V47.6021H58.8297V48.335H56.9422V49.6214H58.567V50.3404H56.9422V51.668H58.8297V52.4147H56.1539Z" fill="#818AAD"/>
<path d="M59.9153 50.942V50.2578H61.9757V50.942H59.9153Z" fill="#818AAD"/>
<path d="M64.3815 48.9507C64.6484 48.9507 64.8811 49.0129 65.0802 49.1374C65.278 49.2615 65.4235 49.4368 65.5158 49.6632C65.4971 49.6767 65.457 49.6998 65.3945 49.732C65.3322 49.7648 65.2655 49.7977 65.1943 49.8322C65.1227 49.8672 65.056 49.9004 64.9938 49.9325C64.9312 49.965 64.8911 49.9878 64.8724 50.0016C64.7711 49.7759 64.6166 49.6632 64.4092 49.6632C64.2889 49.6632 64.191 49.6881 64.115 49.7392C64.0386 49.7897 63.9798 49.8606 63.9383 49.9498C63.8972 50.04 63.8695 50.1479 63.8557 50.2748C63.8419 50.4013 63.8346 50.5385 63.8346 50.6858C63.8346 50.8376 63.8422 50.98 63.8584 51.1107C63.8747 51.2414 63.9034 51.3537 63.9449 51.446C63.9864 51.5387 64.0438 51.6113 64.1177 51.6638C64.1914 51.7167 64.2858 51.7433 64.4012 51.7433C64.5115 51.7433 64.6052 51.7133 64.6812 51.6531C64.7576 51.5933 64.8206 51.5152 64.8717 51.4177C64.8904 51.4315 64.9305 51.4536 64.9931 51.4834C65.0553 51.5134 65.122 51.547 65.1936 51.5836C65.2648 51.6199 65.3315 51.6538 65.3938 51.6839C65.4563 51.714 65.4989 51.735 65.5217 51.7489C65.429 51.9708 65.2838 52.1423 65.0861 52.264C64.888 52.3864 64.655 52.4472 64.3874 52.4472C64.1292 52.4472 63.9155 52.4033 63.7461 52.3158C63.5767 52.228 63.4426 52.107 63.3447 51.9525C63.2465 51.7983 63.1771 51.613 63.1359 51.3962C63.0948 51.1795 63.074 50.9399 63.074 50.6772C63.074 50.4238 63.0979 50.1907 63.1463 49.9785C63.1943 49.7666 63.269 49.584 63.372 49.4323C63.4751 49.2805 63.6089 49.1616 63.7734 49.0765C63.9397 48.9932 64.1419 48.9507 64.3815 48.9507Z" fill="#818AAD"/>
<path d="M67.8248 48.9438C68.12 48.9438 68.3523 49.0026 68.5235 49.1204C68.6939 49.238 68.8229 49.3842 68.9107 49.5595C68.9757 49.6885 69.0189 49.8578 69.042 50.068C69.0649 50.2775 69.077 50.4929 69.077 50.7145C69.077 50.8984 69.0655 51.0927 69.042 51.2953C69.0192 51.4983 68.9819 51.6621 68.9318 51.7866C68.8813 51.9155 68.8149 52.0227 68.735 52.1081C68.6545 52.1935 68.5622 52.2623 68.4581 52.3159C68.3541 52.3684 68.2428 52.4071 68.1224 52.4299C68.0025 52.4524 67.8808 52.4649 67.756 52.4649C67.5067 52.4649 67.2983 52.4185 67.1296 52.3266C66.9615 52.2346 66.8316 52.1126 66.7389 51.9601C66.6563 51.8263 66.5972 51.6535 66.5626 51.4416C66.5277 51.2296 66.5107 50.9897 66.5107 50.7225C66.5107 50.5147 66.5211 50.3132 66.5422 50.1175C66.5633 49.9215 66.5985 49.7642 66.6497 49.6439C66.742 49.4271 66.8848 49.2567 67.0784 49.1325C67.272 49.006 67.5206 48.9438 67.8248 48.9438ZM67.811 49.649C67.7097 49.649 67.617 49.6739 67.5344 49.7254C67.4518 49.7759 67.3916 49.8544 67.3543 49.9605C67.3218 50.0435 67.3 50.1534 67.2886 50.289C67.2775 50.4248 67.2713 50.5804 67.2713 50.7557C67.2713 50.8898 67.2751 51.0163 67.2817 51.1363C67.2886 51.2566 67.308 51.3596 67.3404 51.4471C67.4193 51.6549 67.5686 51.7582 67.7899 51.7582C67.8963 51.7582 67.9928 51.7316 68.0803 51.6787C68.1681 51.6262 68.2307 51.5214 68.267 51.3645C68.286 51.2995 68.2984 51.2054 68.305 51.0813C68.3122 50.9569 68.3154 50.8162 68.3154 50.6592C68.3154 50.5213 68.3102 50.3927 68.3015 50.2758C68.2922 50.1583 68.2739 50.0604 68.2462 49.9816C68.1681 49.7597 68.0232 49.649 67.811 49.649Z" fill="#818AAD"/>
<path d="M74.5181 52.4148H73.7579V50.4923C73.7579 50.2433 73.7271 50.0473 73.667 49.9046C73.6065 49.7618 73.4789 49.6902 73.2843 49.6902C73.1823 49.6902 73.1 49.7092 73.0371 49.7455C72.9738 49.7822 72.9244 49.8358 72.8867 49.9046C72.8494 49.9737 72.8241 50.0567 72.8103 50.1538C72.7961 50.2503 72.7889 50.3616 72.7889 50.4857V52.4148H72.0287V50.4923C72.0287 50.2433 71.9996 50.0473 71.9422 49.9046C71.8841 49.7618 71.7566 49.6902 71.5585 49.6902C71.3604 49.6902 71.229 49.7631 71.1644 49.9083C71.0994 50.0535 71.0676 50.253 71.0676 50.5061V52.4148H70.307V48.9988H71.0676V49.331C71.0762 49.331 71.0814 49.3324 71.0814 49.3345C71.0814 49.3369 71.0862 49.3383 71.0952 49.3383C71.1827 49.2183 71.2906 49.125 71.4199 49.0579C71.5488 48.9912 71.6854 48.9576 71.8281 48.9576C72.0217 48.9576 72.1859 48.9977 72.3225 49.079C72.4587 49.1599 72.568 49.2667 72.6509 49.4005H72.6582C72.7785 49.2577 72.9102 49.1485 73.0554 49.0724C73.2006 48.996 73.361 48.9583 73.5363 48.9583C73.7019 48.9583 73.8471 48.9884 73.9719 49.0482C74.096 49.1084 74.1987 49.1889 74.2799 49.2902C74.3601 49.3919 74.4206 49.5118 74.46 49.6498C74.4995 49.7877 74.5188 49.9353 74.5188 50.0919L74.5181 52.4148Z" fill="#818AAD"/>
<path d="M80.0492 52.4148H79.289V50.4923C79.289 50.2433 79.2585 50.0473 79.1984 49.9046C79.1375 49.7618 79.01 49.6902 78.8157 49.6902C78.7137 49.6902 78.6314 49.7092 78.5685 49.7455C78.5049 49.7822 78.4558 49.8358 78.4178 49.9046C78.3808 49.9737 78.3555 50.0567 78.3414 50.1538C78.3272 50.2503 78.3203 50.3616 78.3203 50.4857V52.4148H77.5601V50.4923C77.5601 50.2433 77.531 50.0473 77.4736 49.9046C77.4156 49.7618 77.288 49.6902 77.0895 49.6902C76.8918 49.6902 76.7601 49.7632 76.6958 49.9083C76.6308 50.0535 76.5986 50.253 76.5986 50.5061V52.4148H75.8381V48.9988H76.5986V49.331C76.6073 49.331 76.6128 49.3324 76.6128 49.3345C76.6128 49.3369 76.6177 49.3383 76.6263 49.3383C76.7141 49.2183 76.822 49.125 76.9509 49.0579C77.0799 48.9908 77.2164 48.9576 77.3596 48.9576C77.5528 48.9576 77.7174 48.9977 77.8539 49.079C77.9898 49.1599 78.099 49.2667 78.182 49.4005H78.1893C78.3096 49.2577 78.4413 49.1485 78.5861 49.0724C78.7313 48.996 78.8921 48.9583 79.067 48.9583C79.233 48.9583 79.3782 48.9884 79.5026 49.0482C79.6274 49.1084 79.7294 49.1889 79.8106 49.2902C79.8908 49.3919 79.951 49.5118 79.9904 49.6498C80.0298 49.7877 80.0499 49.9353 80.0499 50.0919V52.4151H80.0492V52.4148Z" fill="#818AAD"/>
<path d="M83.1122 51.4191C83.2183 51.4744 83.3234 51.5297 83.4268 51.585C83.5309 51.64 83.6356 51.6977 83.7414 51.7579C83.6346 51.9861 83.478 52.1582 83.2716 52.2747C83.0641 52.3909 82.8332 52.4493 82.5802 52.4493C82.0962 52.4493 81.7536 52.3065 81.553 52.0206C81.3525 51.7347 81.2526 51.2971 81.2526 50.7069C81.2526 50.4625 81.2723 50.2343 81.3114 50.0224C81.3505 49.8109 81.4196 49.6256 81.5188 49.4665C81.618 49.3071 81.7504 49.182 81.9164 49.0894C82.082 48.9967 82.2918 48.9514 82.5456 48.9514C82.7807 48.9514 82.9784 48.9905 83.1399 49.069C83.3013 49.1478 83.433 49.2556 83.5343 49.3936C83.6356 49.5315 83.7086 49.6957 83.7525 49.8848C83.7957 50.0739 83.8178 50.281 83.8178 50.5071V50.9081H82.027C82.027 51.0195 82.0339 51.1277 82.0474 51.2324C82.0616 51.3372 82.0892 51.4284 82.1304 51.508C82.1722 51.5871 82.2275 51.6494 82.296 51.6964C82.3655 51.7427 82.4553 51.7655 82.566 51.7655C82.6759 51.7655 82.7779 51.7344 82.8699 51.6722C82.9622 51.6092 83.0431 51.5249 83.1122 51.4191ZM83.0365 50.3751C83.0365 50.1583 82.9981 49.9844 82.9224 49.8527C82.8453 49.7213 82.715 49.656 82.5314 49.656C82.3471 49.656 82.2203 49.7251 82.1504 49.8634C82.0816 50.0017 82.0422 50.1728 82.0329 50.3751H83.0365Z" fill="#818AAD"/>
<path d="M86.4448 49.7044C86.2509 49.7044 86.0977 49.7562 85.985 49.8603C85.8723 49.9644 85.8156 50.1317 85.8156 50.363V52.4217H85.0554V48.9922H85.8091V49.3822L85.8302 49.3894C85.9228 49.2245 86.0355 49.1115 86.1686 49.0503C86.3024 48.9888 86.4521 48.9576 86.6184 48.9576C86.6872 48.9576 86.7529 48.9639 86.813 48.9749C86.8725 48.9867 86.9278 49.0109 86.9786 49.0475L86.8268 49.7943C86.7618 49.759 86.6993 49.7358 86.6364 49.7234C86.5734 49.711 86.5091 49.7044 86.4448 49.7044Z" fill="#818AAD"/>
<path d="M89.0999 48.9507C89.3665 48.9507 89.5995 49.0129 89.7983 49.1374C89.9967 49.2615 90.1419 49.4368 90.2339 49.6632C90.2155 49.6767 90.1751 49.6998 90.1129 49.732C90.0506 49.7648 89.9839 49.7977 89.9123 49.8322C89.8408 49.8672 89.7741 49.9004 89.7118 49.9325C89.6496 49.965 89.6092 49.9878 89.5908 50.0016C89.4895 49.7759 89.335 49.6632 89.1276 49.6632C89.0073 49.6632 88.9094 49.6881 88.833 49.7392C88.7566 49.7897 88.6979 49.8606 88.6567 49.9498C88.6149 50.04 88.5872 50.1479 88.5738 50.2748C88.5596 50.4013 88.5527 50.5385 88.5527 50.6858C88.5527 50.8376 88.5606 50.98 88.5769 51.1107C88.5931 51.2414 88.6214 51.3537 88.6633 51.446C88.7044 51.5387 88.7625 51.6113 88.8361 51.6638C88.9098 51.7167 89.0042 51.7433 89.1196 51.7433C89.2296 51.7433 89.3236 51.7133 89.3993 51.6531C89.4757 51.5933 89.539 51.5152 89.5898 51.4177C89.6081 51.4315 89.6486 51.4536 89.7108 51.4834C89.7737 51.5134 89.8397 51.547 89.9113 51.5836C89.9829 51.6199 90.0496 51.6538 90.1118 51.6839C90.1747 51.714 90.2173 51.735 90.2401 51.7489C90.1474 51.9708 90.0022 52.1423 89.8045 52.264C89.606 52.3864 89.373 52.4472 89.1058 52.4472C88.8479 52.4472 88.6339 52.4033 88.4645 52.3158C88.2951 52.228 88.1613 52.107 88.0635 51.9525C87.9649 51.7983 87.8955 51.613 87.8543 51.3962C87.8132 51.1795 87.7928 50.9399 87.7928 50.6772C87.7928 50.4238 87.8163 50.1907 87.8643 49.9785C87.9124 49.7662 87.9878 49.584 88.0904 49.4323C88.1931 49.2805 88.3276 49.1616 88.4922 49.0765C88.6578 48.9932 88.8603 48.9507 89.0999 48.9507Z" fill="#818AAD"/>
<path d="M93.0756 51.4191C93.1817 51.4744 93.2855 51.5297 93.3895 51.585C93.4936 51.64 93.5987 51.6977 93.7041 51.7579C93.598 51.9861 93.4414 52.1582 93.2343 52.2747C93.0262 52.3909 92.7959 52.4493 92.5429 52.4493C92.0596 52.4493 91.7163 52.3065 91.5158 52.0206C91.3159 51.7347 91.2153 51.2971 91.2153 50.7069C91.2153 50.4625 91.235 50.2343 91.2741 50.0224C91.3125 49.8109 91.3823 49.6256 91.4822 49.4665C91.5807 49.3071 91.7138 49.182 91.8791 49.0894C92.0443 48.9967 92.2552 48.9514 92.5076 48.9514C92.7434 48.9514 92.9411 48.9905 93.1033 49.069C93.2647 49.1478 93.3957 49.2556 93.497 49.3936C93.599 49.5315 93.6713 49.6957 93.7152 49.8848C93.7591 50.0739 93.7805 50.281 93.7805 50.5071V50.9081H91.989C91.989 51.0195 91.9963 51.1277 92.0108 51.2324C92.0243 51.3372 92.0519 51.4284 92.0938 51.508C92.1342 51.5871 92.1895 51.6494 92.2594 51.6964C92.3282 51.7427 92.4181 51.7655 92.5287 51.7655C92.6393 51.7655 92.7406 51.7344 92.8333 51.6722C92.9256 51.6092 93.0061 51.5249 93.0756 51.4191ZM92.9992 50.3751C92.9992 50.1583 92.9615 49.9844 92.8851 49.8527C92.8094 49.7213 92.6791 49.656 92.4948 49.656C92.3105 49.656 92.1837 49.7251 92.1138 49.8634C92.045 50.0017 92.0056 50.1728 91.9963 50.3751H92.9992Z" fill="#818AAD"/>
<path d="M98.8068 52.1243C98.7141 52.2398 98.609 52.3224 98.4887 52.3736C98.3684 52.424 98.2415 52.45 98.1077 52.45C97.8682 52.45 97.6784 52.4002 97.538 52.301C97.3977 52.2021 97.2908 52.0707 97.22 51.9065C97.1484 51.7427 97.1031 51.5563 97.0848 51.3465C97.0665 51.1373 97.0571 50.9216 97.0571 50.7003C97.0571 50.4884 97.0699 50.2782 97.0948 50.0715C97.1204 49.8634 97.1712 49.6767 97.2466 49.5114C97.323 49.3455 97.4322 49.2117 97.5753 49.1104C97.7178 49.0091 97.9069 48.9586 98.142 48.9586C98.2574 48.9586 98.375 48.9835 98.4949 49.035C98.6146 49.0855 98.7165 49.1616 98.7988 49.2629H98.8199V47.3964H99.5808V52.4164H98.8199V52.1395L98.8068 52.1243ZM98.337 49.6836C98.2263 49.6836 98.1378 49.7112 98.0704 49.7662C98.0044 49.8215 97.9529 49.8965 97.919 49.9906C97.8837 50.085 97.8623 50.1921 97.8529 50.3124C97.8443 50.4327 97.8395 50.5541 97.8395 50.6792C97.8395 50.8269 97.8457 50.9638 97.8571 51.0903C97.8678 51.2168 97.8917 51.3285 97.9259 51.426C97.9605 51.5224 98.0096 51.5988 98.0746 51.6538C98.1396 51.7091 98.2263 51.7364 98.3373 51.7364C98.4576 51.7364 98.5506 51.7043 98.6177 51.64C98.6844 51.575 98.7331 51.491 98.7629 51.388C98.7933 51.2842 98.8123 51.1701 98.8182 51.046C98.8254 50.9219 98.8282 50.7968 98.8282 50.6727C98.8282 50.5576 98.8241 50.4397 98.8147 50.3197C98.8054 50.1997 98.7836 50.0939 98.7494 50.0016C98.7152 49.9093 98.6657 49.8333 98.6007 49.7735C98.5357 49.7137 98.4476 49.6836 98.337 49.6836Z" fill="#818AAD"/>
<path d="M102.603 51.4191C102.709 51.4744 102.814 51.5297 102.917 51.585C103.021 51.64 103.126 51.6977 103.232 51.7579C103.125 51.9861 102.968 52.1582 102.762 52.2747C102.555 52.3909 102.324 52.4493 102.071 52.4493C101.587 52.4493 101.244 52.3065 101.044 52.0206C100.843 51.7347 100.743 51.2971 100.743 50.7069C100.743 50.4625 100.763 50.2343 100.802 50.0224C100.841 49.8109 100.91 49.6256 101.009 49.4665C101.109 49.3071 101.241 49.182 101.407 49.0894C101.573 48.9967 101.782 48.9514 102.036 48.9514C102.271 48.9514 102.469 48.9905 102.63 49.069C102.792 49.1478 102.924 49.2556 103.025 49.3936C103.126 49.5315 103.199 49.6957 103.243 49.8848C103.287 50.0739 103.308 50.281 103.308 50.5071V50.9081H101.517C101.517 51.0195 101.524 51.1277 101.538 51.2324C101.552 51.3372 101.58 51.4284 101.621 51.508C101.663 51.5871 101.718 51.6494 101.786 51.6964C101.856 51.7427 101.947 51.7655 102.056 51.7655C102.166 51.7655 102.268 51.7344 102.36 51.6722C102.453 51.6092 102.534 51.5249 102.603 51.4191ZM102.527 50.3751C102.527 50.1583 102.489 49.9844 102.413 49.8527C102.337 49.7213 102.207 49.656 102.022 49.656C101.838 49.656 101.711 49.7251 101.641 49.8634C101.573 50.0017 101.533 50.1728 101.524 50.3751H102.527Z" fill="#818AAD"/>
<path d="M105.465 52.4286C105.166 52.4286 104.933 52.3636 104.767 52.2346C104.601 52.1057 104.518 51.8727 104.518 51.5359V47.3947H105.278V51.3842C105.278 51.518 105.304 51.611 105.356 51.6642C105.408 51.7174 105.489 51.7437 105.602 51.7437H105.714V52.4279L105.465 52.4286Z" fill="#818AAD"/>
<path d="M106.821 48.3215V47.6024H107.581V48.3215H106.821ZM106.821 52.4147V48.9925H107.581V52.4147H106.821Z" fill="#818AAD"/>
<path d="M110.063 51.35C110.077 51.2947 110.095 51.2234 110.115 51.1356C110.136 51.0482 110.157 50.9565 110.18 50.8625C110.204 50.7685 110.226 50.6772 110.246 50.5897C110.267 50.5019 110.284 50.4331 110.298 50.3816C110.316 50.2942 110.34 50.1891 110.37 50.0674C110.4 49.945 110.431 49.8195 110.464 49.6902C110.496 49.5616 110.527 49.4361 110.557 49.3134C110.588 49.191 110.614 49.0869 110.637 48.9988H111.466C111.447 49.0455 111.412 49.1543 111.359 49.3272C111.305 49.5001 111.242 49.7058 111.168 49.9426C111.095 50.1801 111.017 50.4335 110.937 50.7028C110.857 50.9721 110.779 51.2262 110.705 51.4634C110.631 51.7012 110.568 51.9066 110.515 52.0822C110.462 52.2575 110.425 52.3677 110.407 52.4141H109.66C109.592 52.2021 109.509 51.9442 109.415 51.6397C109.321 51.3354 109.225 51.0236 109.128 50.7028C109.031 50.3827 108.936 50.0715 108.845 49.7697C108.752 49.4679 108.672 49.2107 108.603 48.9988H109.432C109.455 49.0818 109.483 49.1844 109.515 49.3068C109.548 49.4292 109.58 49.5561 109.612 49.6874C109.644 49.8188 109.675 49.9457 109.706 50.0681C109.735 50.1904 109.762 50.2924 109.785 50.3761L110.034 51.3507L110.063 51.35Z" fill="#818AAD"/>
<path d="M114.06 51.4191C114.166 51.4744 114.27 51.5297 114.374 51.585C114.478 51.64 114.583 51.6977 114.688 51.7579C114.582 51.9861 114.426 52.1582 114.219 52.2747C114.011 52.3909 113.78 52.4493 113.527 52.4493C113.044 52.4493 112.701 52.3065 112.5 52.0206C112.3 51.7347 112.2 51.2971 112.2 50.7069C112.2 50.4625 112.219 50.2343 112.258 50.0224C112.297 49.8109 112.367 49.6256 112.467 49.4665C112.565 49.3071 112.698 49.182 112.863 49.0894C113.029 48.9967 113.239 48.9514 113.493 48.9514C113.728 48.9514 113.925 48.9905 114.088 49.069C114.249 49.1478 114.38 49.2556 114.481 49.3936C114.583 49.5315 114.656 49.6957 114.699 49.8848C114.743 50.0739 114.765 50.281 114.765 50.5071V50.9081H112.974C112.974 51.0195 112.981 51.1277 112.995 51.2324C113.009 51.3372 113.036 51.4284 113.077 51.508C113.119 51.5871 113.175 51.6494 113.243 51.6964C113.313 51.7427 113.403 51.7655 113.513 51.7655C113.623 51.7655 113.725 51.7344 113.817 51.6722C113.91 51.6092 113.99 51.5249 114.06 51.4191ZM113.984 50.3751C113.984 50.1583 113.946 49.9844 113.869 49.8527C113.793 49.7213 113.663 49.656 113.478 49.656C113.294 49.656 113.168 49.7251 113.098 49.8634C113.029 50.0017 112.99 50.1728 112.981 50.3751H113.984Z" fill="#818AAD"/>
<path d="M117.392 49.7044C117.198 49.7044 117.046 49.7562 116.932 49.8603C116.82 49.9644 116.763 50.1317 116.763 50.363V52.4217H116.003V48.9922H116.756V49.3822L116.778 49.3894C116.87 49.2245 116.983 49.1115 117.116 49.0503C117.25 48.9891 117.4 48.9576 117.566 48.9576C117.635 48.9576 117.699 48.9639 117.759 48.9749C117.82 48.9867 117.875 49.0109 117.925 49.0475L117.774 49.7943C117.709 49.759 117.645 49.7358 117.583 49.7234C117.521 49.711 117.457 49.7044 117.392 49.7044Z" fill="#818AAD"/>
<path d="M120.123 53.0577C120.045 53.3156 119.922 53.5047 119.753 53.625C119.585 53.745 119.384 53.8052 119.148 53.8052H118.893V53.1483H119.073C119.276 53.1483 119.414 53.008 119.488 52.7265L119.612 52.284L118.54 48.9929H119.356L119.688 50.2305L119.957 51.2815H119.985L120.248 50.2305L120.58 48.9929H121.382L120.123 53.0577Z" fill="#818AAD"/>
<path d="M126.878 51.3983C126.878 51.7164 126.766 51.9722 126.54 52.1658C126.314 52.3598 126.002 52.4562 125.606 52.4562C125.302 52.4562 125.046 52.4019 124.839 52.292C124.631 52.1824 124.461 52.0113 124.327 51.7786L124.895 51.3641C125.051 51.6362 125.286 51.7724 125.6 51.7724C125.756 51.7724 125.88 51.7378 125.969 51.6687C126.059 51.5999 126.105 51.5052 126.105 51.3862C126.105 51.2625 126.062 51.1746 125.977 51.1238C125.891 51.0734 125.773 51.0298 125.621 50.9928C125.459 50.9562 125.307 50.9136 125.161 50.8652C125.016 50.8168 124.888 50.755 124.777 50.6792C124.667 50.6032 124.578 50.5078 124.511 50.393C124.444 50.2779 124.411 50.1379 124.411 49.9719C124.411 49.8157 124.442 49.6746 124.503 49.5477C124.565 49.4215 124.648 49.314 124.754 49.2266C124.859 49.1391 124.985 49.0731 125.131 49.0267C125.279 48.9804 125.437 48.9579 125.607 48.9579C125.917 48.9579 126.164 49.0095 126.351 49.1132C126.538 49.2172 126.688 49.3586 126.804 49.5384L126.293 49.9806C126.14 49.7451 125.919 49.6276 125.629 49.6276C125.458 49.6276 125.339 49.6635 125.272 49.7351C125.206 49.8067 125.172 49.8841 125.172 49.9667C125.172 50.0217 125.189 50.0694 125.224 50.1081C125.259 50.1472 125.306 50.1811 125.366 50.2084C125.426 50.236 125.493 50.2602 125.567 50.281C125.642 50.3024 125.719 50.3214 125.796 50.3401C125.953 50.3767 126.099 50.4193 126.234 50.4677C126.369 50.5164 126.483 50.5807 126.577 50.662C126.673 50.7429 126.746 50.8424 126.8 50.9624C126.852 51.0827 126.878 51.2279 126.878 51.3983Z" fill="#818AAD"/>
<path d="M129.776 51.4191C129.882 51.4744 129.986 51.5297 130.09 51.585C130.194 51.64 130.299 51.6977 130.405 51.7579C130.299 51.9861 130.142 52.1582 129.934 52.2747C129.727 52.3909 129.497 52.4493 129.243 52.4493C128.76 52.4493 128.417 52.3065 128.216 52.0206C128.016 51.7347 127.915 51.2971 127.915 50.7069C127.915 50.4625 127.935 50.2343 127.974 50.0224C128.013 49.8109 128.083 49.6256 128.182 49.4665C128.281 49.3071 128.414 49.182 128.579 49.0894C128.745 48.9967 128.955 48.9514 129.208 48.9514C129.443 48.9514 129.642 48.9905 129.803 49.069C129.965 49.1478 130.096 49.2556 130.198 49.3936C130.299 49.5315 130.371 49.6957 130.415 49.8848C130.459 50.0739 130.481 50.281 130.481 50.5071V50.9081H128.69C128.69 51.0195 128.697 51.1277 128.711 51.2324C128.725 51.3372 128.752 51.4284 128.794 51.508C128.835 51.5871 128.89 51.6494 128.96 51.6964C129.028 51.7427 129.118 51.7655 129.228 51.7655C129.339 51.7655 129.44 51.7344 129.533 51.6722C129.626 51.6092 129.706 51.5249 129.776 51.4191ZM129.699 50.3751C129.699 50.1583 129.662 49.9844 129.585 49.8527C129.509 49.7213 129.379 49.656 129.195 49.656C129.011 49.656 128.884 49.7251 128.814 49.8634C128.745 50.0017 128.706 50.1728 128.696 50.3751H129.699Z" fill="#818AAD"/>
<path d="M133.108 49.7044C132.914 49.7044 132.762 49.7562 132.648 49.8603C132.535 49.9644 132.479 50.1317 132.479 50.363V52.4217H131.719V48.9922H132.472V49.3822L132.493 49.3894C132.586 49.2245 132.699 49.1115 132.832 49.0503C132.965 48.9891 133.116 48.9576 133.282 48.9576C133.351 48.9576 133.415 48.9639 133.475 48.9749C133.535 48.9867 133.591 49.0109 133.641 49.0475L133.489 49.7943C133.424 49.759 133.361 49.7358 133.299 49.7234C133.237 49.711 133.173 49.7044 133.108 49.7044Z" fill="#818AAD"/>
<path d="M135.743 51.35C135.756 51.2947 135.774 51.2234 135.794 51.1356C135.815 51.0482 135.836 50.9565 135.859 50.8625C135.882 50.7685 135.904 50.6772 135.924 50.5897C135.946 50.5019 135.962 50.4331 135.976 50.3816C135.995 50.2942 136.019 50.1891 136.049 50.0674C136.079 49.945 136.11 49.8195 136.142 49.6902C136.175 49.5616 136.206 49.4361 136.236 49.3134C136.265 49.191 136.292 49.0869 136.315 48.9988H137.144C137.126 49.0455 137.09 49.1543 137.037 49.3272C136.984 49.5001 136.92 49.7058 136.846 49.9426C136.772 50.1797 136.695 50.4335 136.614 50.7028C136.535 50.9721 136.457 51.2262 136.383 51.4634C136.309 51.7012 136.246 51.9066 136.193 52.0822C136.14 52.2575 136.104 52.3677 136.086 52.4141H135.339C135.27 52.2021 135.187 51.9442 135.094 51.6397C134.999 51.3354 134.903 51.0236 134.807 50.7028C134.71 50.3827 134.615 50.0715 134.523 49.7697C134.432 49.4679 134.35 49.2107 134.281 48.9988H135.111C135.133 49.0818 135.161 49.1844 135.194 49.3068C135.226 49.4292 135.259 49.5561 135.29 49.6874C135.323 49.8188 135.354 49.9457 135.384 50.0681C135.413 50.1904 135.44 50.2924 135.463 50.3761L135.712 51.3507L135.743 51.35Z" fill="#818AAD"/>
<path d="M138.163 48.3215V47.6024H138.922V48.3215H138.163ZM138.163 52.4147V48.9925H138.922V52.4147H138.163Z" fill="#818AAD"/>
<path d="M141.426 48.9507C141.693 48.9507 141.926 49.0129 142.124 49.1374C142.323 49.2615 142.468 49.4368 142.56 49.6632C142.541 49.6767 142.502 49.6998 142.439 49.732C142.376 49.7648 142.31 49.7977 142.238 49.8322C142.167 49.8672 142.101 49.9004 142.038 49.9325C141.975 49.965 141.935 49.9878 141.917 50.0016C141.815 49.7759 141.661 49.6632 141.453 49.6632C141.333 49.6632 141.235 49.6881 141.16 49.7392C141.082 49.7897 141.024 49.8606 140.983 49.9498C140.941 50.04 140.914 50.1479 140.9 50.2748C140.886 50.4013 140.878 50.5385 140.878 50.6858C140.878 50.8376 140.886 50.98 140.903 51.1107C140.919 51.2414 140.948 51.3537 140.989 51.446C141.031 51.5387 141.088 51.6113 141.162 51.6638C141.236 51.7167 141.33 51.7433 141.445 51.7433C141.555 51.7433 141.649 51.7133 141.726 51.6531C141.802 51.5933 141.865 51.5152 141.916 51.4177C141.935 51.4315 141.974 51.4536 142.037 51.4834C142.1 51.5134 142.166 51.547 142.238 51.5836C142.309 51.6199 142.375 51.6538 142.438 51.6839C142.501 51.714 142.543 51.735 142.566 51.7489C142.473 51.9708 142.328 52.1423 142.13 52.264C141.932 52.3864 141.699 52.4472 141.432 52.4472C141.174 52.4472 140.96 52.4033 140.79 52.3158C140.621 52.228 140.487 52.107 140.389 51.9525C140.291 51.7983 140.222 51.613 140.18 51.3962C140.139 51.1795 140.119 50.9399 140.119 50.6772C140.119 50.4238 140.142 50.1907 140.19 49.9785C140.239 49.7662 140.313 49.584 140.416 49.4323C140.519 49.2805 140.653 49.1616 140.818 49.0765C140.984 48.9932 141.186 48.9507 141.426 48.9507Z" fill="#818AAD"/>
<path d="M145.401 51.4191C145.508 51.4744 145.612 51.5297 145.716 51.585C145.819 51.64 145.925 51.6977 146.031 51.7579C145.924 51.9861 145.768 52.1582 145.56 52.2747C145.353 52.3909 145.122 52.4493 144.869 52.4493C144.385 52.4493 144.043 52.3065 143.842 52.0206C143.642 51.7347 143.541 51.2971 143.541 50.7069C143.541 50.4625 143.561 50.2343 143.6 50.0224C143.639 49.8109 143.708 49.6256 143.808 49.4665C143.907 49.3071 144.04 49.182 144.205 49.0894C144.371 48.9967 144.581 48.9514 144.834 48.9514C145.069 48.9514 145.268 48.9905 145.429 49.069C145.591 49.1478 145.722 49.2556 145.823 49.3936C145.925 49.5315 145.997 49.6957 146.041 49.8848C146.085 50.0739 146.106 50.281 146.106 50.5071V50.9081H144.316C144.316 51.0195 144.322 51.1277 144.337 51.2324C144.35 51.3372 144.378 51.4284 144.42 51.508C144.461 51.5871 144.516 51.6494 144.585 51.6964C144.654 51.7427 144.744 51.7655 144.855 51.7655C144.965 51.7655 145.066 51.7344 145.159 51.6722C145.252 51.6092 145.332 51.5249 145.401 51.4191ZM145.325 50.3751C145.325 50.1583 145.288 49.9844 145.211 49.8527C145.136 49.7213 145.005 49.656 144.821 49.656C144.637 49.656 144.51 49.7251 144.44 49.8634C144.371 50.0017 144.332 50.1728 144.322 50.3751H145.325Z" fill="#818AAD"/>
<path d="M47.6695 35.2284C47.6695 31.411 47.4859 27.0488 44.0837 24.4194C41.7744 22.6659 39.1501 22.5971 36.3547 22.5971H21.5385L32.0274 31.3882H34.8017C38.4487 31.3882 38.3716 32.4907 38.3716 35.9962V45.3771C38.3716 48.568 38.3716 49.6352 34.9072 49.6352H31.9337V57.5831H35.2121C38.6744 57.5831 41.7741 57.4556 44.388 55.3287C46.8792 53.3239 47.7303 50.5714 47.7303 46.0025L47.6695 35.2284Z" fill="#818AAD"/>
<path d="M26.6827 31.3882V57.5976H16.2498V31.3882H5.63751V22.5971H21.5389L32.0267 31.3882H26.6827Z" fill="#818AAD"/>
<path d="M87.7568 43.8902C87.0553 44.592 86.0666 44.8924 85.0073 44.8924H81.226V34.6953H85.0073C86.0666 34.6953 87.0553 34.9957 87.7568 35.6975C88.9457 36.8861 88.8167 38.1898 88.8167 39.7939C88.8171 41.3983 88.946 42.7013 87.7568 43.8902ZM86.0376 37.5025C85.8087 37.1589 85.4651 36.93 84.8348 36.93H83.7324V42.6584H84.8348C85.4647 42.6584 85.8084 42.4292 86.0376 42.0859C86.2388 41.7997 86.3103 41.5276 86.3103 39.7942C86.3107 38.0753 86.2388 37.7891 86.0376 37.5025Z" fill="#818AAD"/>
<path d="M90.5488 44.8928V34.6957H97.482V36.93H93.0559V38.6347H96.8373V40.8687H93.0559V42.6585H97.482V44.8928H90.5488Z" fill="#818AAD"/>
<path d="M99.2572 44.8928V34.6957H101.764V42.6585H106.046V44.8928H99.2572Z" fill="#818AAD"/>
<path d="M107.506 44.8928V34.6957H110.013V44.8928H107.506Z" fill="#818AAD"/>
<path d="M116.271 44.8928H114.409L111.044 34.6957H113.636L115.355 40.3958L117.045 34.6957H119.652L116.271 44.8928Z" fill="#818AAD"/>
<path d="M120.682 44.8928V34.6957H127.615V36.93H123.189V38.6347H126.971V40.8687H123.189V42.6585H127.615V44.8928H120.682Z" fill="#818AAD"/>
<path d="M134.546 44.8928L132.741 41.0972H131.897V44.8928H129.39V34.6957H133.429C135.692 34.6957 136.909 36.3001 136.909 37.9751C136.909 39.3649 136.051 40.2381 135.248 40.6392L137.453 44.8928H134.546ZM133.314 36.9442H131.896V39.0067H133.314C134.002 39.0067 134.403 38.5054 134.403 37.9754C134.403 37.4455 134.002 36.9442 133.314 36.9442Z" fill="#818AAD"/>
<path d="M143.283 40.7394V44.8927H140.776V40.7394L137.697 34.696H140.433L142.037 38.3619L143.627 34.696H146.363L143.283 40.7394Z" fill="#818AAD"/>
<path d="M59.1948 36.9293V44.8921H56.6884V36.9293H54.182V34.6949H61.7012V36.9293H59.1948Z" fill="#818AAD"/>
<path d="M69.2779 43.8325C68.5332 44.5768 67.6734 44.9778 66.4278 44.9778C65.1819 44.9778 64.3224 44.5768 63.5774 43.8325C62.5036 42.7583 62.5465 41.326 62.5465 39.7932C62.5465 38.2606 62.5036 36.8287 63.5774 35.7542C64.3224 35.0095 65.1819 34.6085 66.4278 34.6085C67.6737 34.6085 68.5332 35.0095 69.2779 35.7542C70.3516 36.828 70.3084 38.2606 70.3084 39.7932C70.3088 41.326 70.3523 42.7583 69.2779 43.8325ZM67.4307 37.2874C67.2444 37.0444 66.8869 36.8439 66.4285 36.8439C65.9697 36.8439 65.6123 37.0444 65.4259 37.2874C65.1967 37.5882 65.0539 37.9318 65.0539 39.7939C65.0539 41.6562 65.1967 41.9853 65.4259 42.2857C65.6123 42.5291 65.9697 42.7442 66.4285 42.7442C66.8869 42.7442 67.2444 42.5291 67.4307 42.2857C67.6596 41.9853 67.8027 41.6562 67.8027 39.7939C67.8027 37.9318 67.6596 37.5882 67.4307 37.2874Z" fill="#818AAD"/>
<path d="M76.0807 41.2545H74.5479V44.8917H72.0414V34.6946H76.0807C78.3434 34.6946 79.561 36.299 79.561 37.974C79.561 39.6507 78.3438 41.2545 76.0807 41.2545ZM75.9663 36.9438H74.5479V39.0063H75.9663C76.6536 39.0063 77.0546 38.505 77.0546 37.975C77.0546 37.4451 76.6536 36.9438 75.9663 36.9438Z" fill="#818AAD"/>
</svg>
